<svg width="1em" height="1em" viewBox="0 0 36 36" fill="none" xmlns="http://www.w3.org/2000/svg">
<path d="M35.3189 8.73745C35.1032 8.50367 34.8471 8.31821 34.5651 8.19167C34.2832 8.06513 33.981 8 33.6758 8C33.3706 8 33.0684 8.06513 32.7865 8.19167C32.5045 8.31821 32.2484 8.50367 32.0327 8.73745L19.3293 22.4915C18.9722 22.8641 18.4956 23.0723 17.9997 23.0723C17.5038 23.0723 17.0272 22.8641 16.6702 22.4915L3.96675 8.73745C3.53098 8.26564 2.93995 8.00058 2.32367 8.00058C1.70739 8.00058 1.11636 8.26564 0.680587 8.73745C0.244814 9.20927 0 9.84918 0 10.5164C0 11.1837 0.244814 11.8236 0.680587 12.2954L13.384 26.0494C14.6087 27.3738 16.2688 28.1176 17.9997 28.1176C19.7306 28.1176 21.3908 27.3738 22.6155 26.0494L35.3189 12.2954C35.5348 12.0619 35.7061 11.7846 35.823 11.4793C35.9398 11.1741 36 10.8469 36 10.5164C36 10.186 35.9398 9.85879 35.823 9.55354C35.7061 9.2483 35.5348 8.97098 35.3189 8.73745Z" fill="currentColor"/>
</svg>
