<svg width="1em" height="1em" viewBox="0 0 37 37" fill="none" xmlns="http://www.w3.org/2000/svg">
<path d="M1.52223 13.7458L4.84004 15.1216C4.37888 17.1185 4.37888 19.1942 4.84004 21.1911L1.52223 22.5669C1.24182 22.6767 0.986123 22.8412 0.770084 23.051C0.554045 23.2608 0.382006 23.5115 0.264034 23.7885C0.146062 24.0656 0.0845238 24.3634 0.0830208 24.6645C0.0815177 24.9656 0.14008 25.264 0.25528 25.5422C0.370481 25.8204 0.540007 26.0729 0.753942 26.2848C0.967876 26.4967 1.22192 26.6638 1.50122 26.7764C1.78051 26.8889 2.07945 26.9447 2.38054 26.9403C2.68163 26.9359 2.97882 26.8716 3.25474 26.751L6.57822 25.3751C7.66869 27.1061 9.13324 28.5707 10.8642 29.6611L9.48838 32.9789C9.36778 33.2549 9.30342 33.5521 9.29905 33.8531C9.29469 34.1542 9.35041 34.4532 9.46296 34.7325C9.57551 35.0118 9.74263 35.2658 9.95454 35.4797C10.1665 35.6937 10.4189 35.8632 10.6971 35.9784C10.9753 36.0936 11.2737 36.1522 11.5748 36.1507C11.876 36.1492 12.1738 36.0876 12.4508 35.9697C12.7278 35.8517 12.9786 35.6796 13.1884 35.4636C13.3981 35.2476 13.5627 34.9919 13.6725 34.7115L15.0483 31.3936C17.0451 31.8548 19.1208 31.8548 21.1177 31.3936L22.4935 34.7115C22.6033 34.9919 22.7679 35.2476 22.9776 35.4636C23.1874 35.6796 23.4381 35.8517 23.7152 35.9697C23.9922 36.0876 24.29 36.1492 24.5911 36.1507C24.8923 36.1522 25.1907 36.0936 25.4689 35.9784C25.7471 35.8632 25.9995 35.6937 26.2114 35.4797C26.4234 35.2658 26.5905 35.0118 26.703 34.7325C26.8156 34.4532 26.8713 34.1542 26.8669 33.8531C26.8626 33.5521 26.7982 33.2549 26.6776 32.9789L25.3018 29.6611C27.0327 28.5707 28.4973 27.1061 29.5878 25.3751L32.9112 26.751C33.4635 26.9671 34.0784 26.9581 34.624 26.7257C35.1696 26.4934 35.6023 26.0564 35.8292 25.5085C36.056 24.9606 36.0589 24.3456 35.8373 23.7956C35.6157 23.2455 35.1871 22.8044 34.6438 22.5669L31.3259 21.1911C31.7871 19.1942 31.7871 17.1185 31.3259 15.1216L34.6438 13.7458C34.9242 13.6361 35.1799 13.4715 35.3959 13.2617C35.6119 13.052 35.784 12.8012 35.902 12.5242C36.0199 12.2471 36.0815 11.9493 36.083 11.6482C36.0845 11.3471 36.0259 11.0487 35.9107 10.7705C35.7955 10.4923 35.626 10.2398 35.412 10.0279C35.1981 9.81599 34.9441 9.64887 34.6648 9.53632C34.3855 9.42377 34.0865 9.36805 33.7854 9.37241C33.4844 9.37678 33.1872 9.44114 32.9112 9.56174L29.5878 10.9376C28.4973 9.2066 27.0327 7.74205 25.3018 6.65158L26.6776 3.33376C26.8938 2.78156 26.8847 2.16661 26.6524 1.62102C26.42 1.07542 25.983 0.642713 25.4351 0.415848C24.8872 0.188983 24.2722 0.186061 23.7222 0.407709C23.1722 0.629357 22.731 1.05789 22.4935 1.60125L21.1177 4.91907C19.1208 4.4579 17.0451 4.4579 15.0483 4.91907L13.6725 1.60125C13.435 1.05789 12.9938 0.629357 12.4438 0.407709C11.8938 0.186061 11.2788 0.188983 10.7309 0.415848C10.183 0.642713 9.74594 1.07542 9.51362 1.62102C9.2813 2.16661 9.27223 2.78156 9.48838 3.33376L10.8642 6.65158C9.13324 7.74205 7.66869 9.2066 6.57822 10.9376L3.25474 9.56174C2.70254 9.3456 2.08759 9.35466 1.54199 9.58698C0.996398 9.8193 0.56369 10.2564 0.336825 10.8042C0.10996 11.3521 0.107038 11.9671 0.328686 12.5172C0.550334 13.0672 0.978868 13.5083 1.52223 13.7458ZM27.1419 18.1507C27.1419 19.9424 26.6106 21.6938 25.6152 23.1835C24.6198 24.6733 23.205 25.8344 21.5497 26.52C19.8944 27.2057 18.0729 27.385 16.3157 27.0355C14.5584 26.686 12.9443 25.8232 11.6774 24.5563C10.4105 23.2894 9.54772 21.6752 9.19818 19.918C8.84864 18.1607 9.02803 16.3393 9.71368 14.684C10.3993 13.0287 11.5604 11.6139 13.0501 10.6185C14.5399 9.62311 16.2913 9.09181 18.083 9.09181C20.4856 9.09181 22.7897 10.0462 24.4886 11.7451C26.1875 13.444 27.1419 15.7481 27.1419 18.1507Z" fill="currentColor"/>
</svg>
