<svg width="1em" height="1em" viewBox="0 0 36 36" fill="none" xmlns="http://www.w3.org/2000/svg">
<path fill-rule="evenodd" clip-rule="evenodd" d="M5.98883 34.2018L6.33217 34.2975C10.128 35.3522 14.0492 35.888 17.9888 35.8904C21.9263 35.8902 25.8457 35.3563 29.6398 34.3031L29.9831 34.2075C31.7067 33.7255 33.2264 32.6951 34.3121 31.2723C35.3977 29.8494 35.9903 28.1116 36 26.3219C35.9945 25.3218 35.8036 24.3314 35.4371 23.4007L35.0206 22.275C32.4954 15.6231 28.8814 9.43733 24.3265 3.97116C23.5516 3.04123 22.5817 2.29305 21.4855 1.77962C20.3893 1.26617 19.1936 1.00003 17.9832 1.00003C16.7727 1.00003 15.577 1.26617 14.4808 1.77962C13.3846 2.29305 12.4148 3.04123 11.6398 3.97116C7.10879 9.40643 3.50682 15.553 0.979466 22.1625L0.540441 23.3613C0.133334 24.4277 -0.0471525 25.5672 0.0104832 26.7072C0.0681188 27.8472 0.362613 28.9627 0.875198 29.9825C1.38778 31.0024 2.10721 31.9043 2.98764 32.6307C3.86806 33.3572 4.89018 33.8923 5.98883 34.2018ZM4.72242 24.9711L5.18396 23.7722C7.53504 17.6258 10.8839 11.9093 15.0957 6.85294C15.4481 6.42996 15.8891 6.08965 16.3876 5.8561C16.8861 5.62254 17.4298 5.50148 17.9804 5.50148C18.5308 5.50148 19.0746 5.62254 19.5731 5.8561C20.0716 6.08965 20.5126 6.42996 20.865 6.85294C25.1073 11.9353 28.4759 17.6871 30.833 23.8735L31.2552 24.9992C31.414 25.4222 31.4959 25.8701 31.4972 26.3219C31.4943 27.1323 31.2274 27.9196 30.7368 28.5646C30.2462 29.2095 29.5588 29.6769 28.7786 29.896L28.4353 29.9917C21.5993 31.8828 14.3782 31.8828 7.5423 29.9917L7.19333 29.896C6.41328 29.6776 5.72604 29.2101 5.23626 28.5649C4.74649 27.9196 4.48106 27.132 4.48039 26.3219C4.47902 25.8607 4.56102 25.4031 4.72242 24.9711ZM17.9888 19.5677C18.5859 19.5677 19.1586 19.3305 19.5808 18.9083C20.003 18.4861 20.2402 17.9135 20.2402 17.3163V13.3764C20.2402 12.7793 20.003 12.2066 19.5808 11.7844C19.1586 11.3622 18.5859 11.125 17.9888 11.125C17.3917 11.125 16.819 11.3622 16.3968 11.7844C15.9746 12.2066 15.7374 12.7793 15.7374 13.3764V17.3163C15.7374 17.9135 15.9746 18.4861 16.3968 18.9083C16.819 19.3305 17.3917 19.5677 17.9888 19.5677ZM17.9888 27.4476C16.7454 27.4476 15.7374 26.4396 15.7374 25.1962C15.7374 23.9528 16.7454 22.9448 17.9888 22.9448C19.2322 22.9448 20.2402 23.9528 20.2402 25.1962C20.2402 26.4396 19.2322 27.4476 17.9888 27.4476Z" fill="currentColor"/>
</svg>
