<svg width="1em" height="1em" viewBox="0 0 36 36" fill="none" xmlns="http://www.w3.org/2000/svg">
<path d="M0.681122 27.3802C0.896805 27.614 1.15294 27.7994 1.43487 27.926C1.7168 28.0525 2.01901 28.1176 2.3242 28.1176C2.6294 28.1176 2.93161 28.0525 3.21354 27.926C3.49547 27.7994 3.7516 27.614 3.96729 27.3802L16.6707 13.6261C17.0278 13.2536 17.5044 13.0454 18.0003 13.0454C18.4962 13.0454 18.9728 13.2536 19.3298 13.6261L32.0332 27.3802C32.469 27.852 33.0601 28.1171 33.6763 28.1171C34.2926 28.1171 34.8836 27.852 35.3194 27.3802C35.7552 26.9084 36 26.2685 36 25.6012C36 24.934 35.7552 24.2941 35.3194 23.8222L22.616 10.0682C21.3913 8.74386 19.7312 8 18.0003 8C16.2694 8 14.6092 8.74386 13.3845 10.0682L0.681122 23.8222C0.465195 24.0558 0.293896 24.3331 0.177025 24.6383C0.060154 24.9436 0 25.2708 0 25.6012C0 25.9317 0.060154 26.2589 0.177025 26.5641C0.293896 26.8694 0.465195 27.1467 0.681122 27.3802Z" fill="currentColor"/>
</svg>
