<svg width="1em" height="1em" viewBox="0 0 20 20" fill="none" xmlns="http://www.w3.org/2000/svg">
<path d="M19.3338 6.25003C19.3351 5.68205 19.1816 5.12445 18.8898 4.63717C18.598 4.14989 18.1789 3.75136 17.6776 3.48441L12.3151 0.593789C11.5908 0.204022 10.7813 0 9.95882 0C9.13638 0 8.32679 0.204022 7.60257 0.593789L2.24008 3.46878C1.66462 3.76772 1.19641 4.23827 0.900356 4.81522C0.604298 5.39216 0.495057 6.04692 0.587774 6.68873C0.680491 7.33054 0.970574 7.92761 1.41781 8.39718C1.86505 8.86674 2.44729 9.18555 3.08383 9.3094V13.0063C2.56056 13.3322 2.13851 13.7975 1.86508 14.35L0.846335 16.3813C0.655538 16.7625 0.565427 17.1863 0.584565 17.6122C0.603703 18.0382 0.731454 18.4521 0.955677 18.8148C1.1799 19.1774 1.49314 19.4767 1.86563 19.6841C2.23812 19.8916 2.65747 20.0003 3.08383 20H16.8338C17.2602 20.0003 17.6795 19.8916 18.052 19.6841C18.4245 19.4767 18.7377 19.1774 18.962 18.8148C19.1862 18.4521 19.3139 18.0382 19.3331 17.6122C19.3522 17.1863 19.2621 16.7625 19.0713 16.3813L18.0526 14.35C17.7791 13.7975 17.3571 13.3322 16.8338 13.0063V9.3094C17.5373 9.16165 18.1689 8.77754 18.6238 8.22094C19.0786 7.66434 19.3292 6.96881 19.3338 6.25003ZM3.42133 5.68753L8.78382 2.81253C9.14485 2.61779 9.54862 2.51584 9.95882 2.51584C10.369 2.51584 10.7728 2.61779 11.1338 2.81253L16.4963 5.68753C16.6249 5.7497 16.7283 5.85404 16.7893 5.98318C16.8504 6.11232 16.8653 6.25846 16.8317 6.39728C16.7981 6.53611 16.718 6.65923 16.6046 6.74616C16.4913 6.83308 16.3516 6.87856 16.2088 6.87503H3.72445C3.57179 6.89788 3.41607 6.86343 3.2873 6.77832C3.15852 6.6932 3.0658 6.56344 3.02699 6.41404C2.98819 6.26463 3.00604 6.10615 3.07712 5.96913C3.1482 5.8321 3.26747 5.72623 3.41195 5.6719L3.42133 5.68753ZM11.2088 12.5V9.37502H14.3338V12.5H11.2088ZM8.70882 9.37502V12.5H5.58383V9.37502H8.70882ZM3.08383 17.5L4.09945 15.4688C4.16961 15.3282 4.2775 15.2099 4.41106 15.1271C4.54462 15.0443 4.69857 15.0003 4.8557 15H15.0619C15.2191 15.0003 15.373 15.0443 15.5066 15.1271C15.6401 15.2099 15.748 15.3282 15.8182 15.4688L16.8338 17.5H3.08383Z" fill="currentColor"/>
</svg>
