<svg width="1em" height="1em" viewBox="0 0 36 36" fill="none" xmlns="http://www.w3.org/2000/svg">
<path d="M33.6451 7.87503H26.4325L25.3475 4.07816C25.012 2.90452 24.3041 1.87194 23.3305 1.13627C22.357 0.400608 21.1707 0.00179472 19.9507 3.13868e-05H16.0493C14.8274 -0.000648063 13.6385 0.397041 12.6627 1.13289C11.6869 1.86873 10.9773 2.90267 10.6413 4.07816L9.56752 7.87503H2.35494C1.78245 7.86369 1.22606 8.06493 0.793141 8.43994C0.360226 8.81494 0.0814846 9.3371 0.0107164 9.90566C-0.0199696 10.219 0.0154234 10.5354 0.114606 10.8342C0.213789 11.133 0.374553 11.4077 0.586501 11.6405C0.798449 11.8732 1.05686 12.0589 1.34503 12.1854C1.63319 12.3119 1.94469 12.3765 2.25938 12.375H3.94587C3.94508 12.5498 3.95447 12.7245 3.97398 12.8982L6.10459 31.0275C6.26452 32.3978 6.92215 33.6615 7.95242 34.5783C8.98269 35.4951 10.3137 36.0011 11.6925 36H24.3075C25.6844 35.9998 27.0134 35.494 28.0424 34.5785C29.0713 33.663 29.7287 32.4014 29.8898 31.0332L32.0204 12.9038C32.042 12.7283 32.0533 12.5518 32.0541 12.375H33.7406C34.0553 12.3765 34.3668 12.3119 34.655 12.1854C34.9431 12.0589 35.2016 11.8732 35.4135 11.6405C35.6255 11.4077 35.7862 11.133 35.8854 10.8342C35.9846 10.5354 36.02 10.219 35.9893 9.90566C35.9185 9.3371 35.6398 8.81494 35.2069 8.43994C34.7739 8.06493 34.2175 7.86369 33.6451 7.87503ZM14.9643 5.31566C15.0317 5.08 15.1741 4.87281 15.3699 4.72558C15.5658 4.57836 15.8043 4.49916 16.0493 4.50003H19.9563C20.2003 4.50038 20.4376 4.58015 20.6323 4.72728C20.827 4.87441 20.9686 5.08093 21.0357 5.31566L21.7665 7.87503H14.2335L14.9643 5.31566ZM26.6967 19.6875L26.1683 24.1875L25.4262 30.5044C25.3943 30.7798 25.262 31.0338 25.0545 31.2175C24.847 31.4013 24.579 31.5019 24.3019 31.5H11.6925C11.4154 31.5019 11.1474 31.4013 10.9399 31.2175C10.7324 31.0338 10.6 30.7798 10.5682 30.5044L9.83174 24.1875L9.3033 19.6875L8.44319 12.375H27.5568L26.6967 19.6875Z" fill="currentColor"/>
</svg>
