<svg width="1em" height="1em" viewBox="0 0 36 36" fill="none" xmlns="http://www.w3.org/2000/svg">
<g clip-path="url(#clip0_179466_318)">
<path fill-rule="evenodd" clip-rule="evenodd" d="M2 30.1943C2 31.7343 2.61175 33.2112 3.70067 34.3001C4.78959 35.389 6.26649 36.0008 7.80645 36.0008H28.7097C30.2497 36.0008 31.7265 35.389 32.8155 34.3001C33.9044 33.2112 34.5161 31.7343 34.5161 30.1943V6.96849C34.5166 6.35829 34.3969 5.75399 34.1637 5.19009C33.9306 4.62619 33.5887 4.11375 33.1574 3.68204L30.8348 1.35946C29.9638 0.488981 28.7827 0 27.5513 0C26.3199 0 25.1388 0.488981 24.2677 1.35946L22.9032 2.72398L21.5445 1.36527C20.6735 0.494788 19.4924 0.00580548 18.261 0.00580548C17.0295 0.00580548 15.8484 0.494788 14.9774 1.36527L13.6129 2.72398L12.2542 1.36527C11.3832 0.494788 10.2021 0.00580548 8.97065 0.00580548C7.7392 0.00580548 6.55815 0.494788 5.6871 1.36527L3.36452 3.68785C2.49289 4.55736 2.00211 5.73733 2 6.96849V30.1943ZM6.64516 6.96849L8.96774 4.64591L12.5735 8.25172C12.71 8.38828 12.872 8.49669 13.0503 8.57061C13.2287 8.64452 13.4198 8.68256 13.6129 8.68256C13.806 8.68256 13.9971 8.64452 14.1755 8.57061C14.3538 8.49669 14.5158 8.38828 14.6523 8.25172L18.2581 4.64591L21.8639 8.25172C22.0003 8.38828 22.1623 8.49669 22.3406 8.57061C22.519 8.64452 22.7102 8.68256 22.9032 8.68256C23.0963 8.68256 23.2874 8.64452 23.4658 8.57061C23.6441 8.49669 23.8061 8.38828 23.9426 8.25172L27.5484 4.64591L29.871 6.96849V30.1943C29.871 30.5023 29.7486 30.7976 29.5308 31.0154C29.313 31.2332 29.0177 31.3556 28.7097 31.3556H7.80645C7.49846 31.3556 7.20308 31.2332 6.9853 31.0154C6.76751 30.7976 6.64516 30.5023 6.64516 30.1943V6.96849ZM22.9032 17.4201C23.5192 17.4201 24.11 17.1754 24.5455 16.7398C24.9811 16.3043 25.2258 15.7135 25.2258 15.0975C25.2258 14.4815 24.9811 13.8908 24.5455 13.4552C24.11 13.0196 23.5192 12.7749 22.9032 12.7749H13.6129C12.9969 12.7749 12.4061 13.0196 11.9706 13.4552C11.535 13.8908 11.2903 14.4815 11.2903 15.0975C11.2903 15.7135 11.535 16.3043 11.9706 16.7398C12.4061 17.1754 12.9969 17.4201 13.6129 17.4201H22.9032ZM24.5455 26.0301C24.11 26.4657 23.5192 26.7104 22.9032 26.7104H13.6129C12.9969 26.7104 12.4061 26.4657 11.9706 26.0301C11.535 25.5946 11.2903 25.0039 11.2903 24.3878C11.2903 23.7718 11.535 23.1811 11.9706 22.7456C12.4061 22.3099 12.9969 22.0653 13.6129 22.0653H22.9032C23.5192 22.0653 24.11 22.3099 24.5455 22.7456C24.9811 23.1811 25.2258 23.7718 25.2258 24.3878C25.2258 25.0039 24.9811 25.5946 24.5455 26.0301Z" fill="currentColor"/>
</g>
<defs>
<clipPath id="clip0_179466_318">
<rect width="36" height="36" fill="white"/>
</clipPath>
</defs>
</svg>
