<svg width="1em" height="1em" viewBox="0 0 36 36" fill="none" xmlns="http://www.w3.org/2000/svg">
<path d="M35.9891 15.4833C36.019 14.4876 35.8444 13.4964 35.476 12.5709C35.1075 11.6454 34.5531 10.8053 33.8471 10.1026L27.0498 3.28813C25.6903 1.89868 23.8513 1.08131 21.9089 1.00332C20.9132 0.97339 19.922 1.14804 18.9965 1.51647C18.071 1.88491 17.2309 2.43929 16.5282 3.14533L2.2881 17.3683C0.898646 18.7277 0.0812803 20.5668 0.00328805 22.5091C-0.0266409 23.5048 0.148011 24.4961 0.516444 25.4216C0.884877 26.3471 1.43926 27.1872 2.1453 27.8899L7.62314 33.3677C8.04783 33.7919 8.55194 34.1283 9.10667 34.3577C9.6614 34.587 10.2559 34.7048 10.8562 34.7043H33.6072C34.1889 34.7158 34.7542 34.5115 35.1941 34.1307C35.634 33.7499 35.9172 33.2196 35.9891 32.6423C36.0203 32.3241 35.9843 32.0028 35.8836 31.6994C35.7828 31.3959 35.6194 31.117 35.4041 30.8806C35.1887 30.6443 34.9261 30.4558 34.6333 30.3273C34.3405 30.1988 34.024 30.1332 33.7043 30.1347H24.1709L33.7043 20.6242C35.0938 19.2647 35.9111 17.4256 35.9891 15.4833ZM17.7106 30.1347H10.8562L5.37831 24.6569C4.86103 24.1395 4.57043 23.4378 4.57043 22.7062C4.57043 21.9746 4.86103 21.2729 5.37831 20.7555L10.9533 15.1806L12.9525 13.1814L23.8053 24.0342L21.8061 26.0335L17.7106 30.1347ZM30.6141 17.2312L27.0384 20.8069L16.1855 9.95408L19.7612 6.37834C20.2786 5.86106 20.9803 5.57046 21.7119 5.57046C22.4435 5.57046 23.1452 5.86106 23.6625 6.37834L30.6141 13.3356C31.1314 13.853 31.422 14.5546 31.422 15.2863C31.422 16.0179 31.1314 16.7195 30.6141 17.2369V17.2312Z" fill="currentColor"/>
</svg>
