<svg width="1em" height="1em" viewBox="0 0 36 36" fill="none" xmlns="http://www.w3.org/2000/svg">
<path d="M27.3966 24.1919C29.6698 21.1102 30.6944 17.2832 30.2649 13.478C29.8355 9.67279 27.9838 6.17044 25.0809 3.67293C22.178 1.17541 18.4385 -0.132724 14.6118 0.0106893C10.7851 0.154103 7.15401 1.73847 4.44623 4.44626C1.73844 7.15404 0.154072 10.7852 0.0106588 14.6119C-0.132755 18.4386 1.17538 22.1781 3.6729 25.0809C6.17041 27.9838 9.67276 29.8355 13.478 30.265C17.2832 30.6944 21.1102 29.6698 24.1918 27.3966L32.1587 35.341C32.3676 35.5499 32.6157 35.7157 32.8887 35.8287C33.1617 35.9418 33.4543 36 33.7498 36C34.0453 36 34.3379 35.9418 34.6109 35.8287C34.8839 35.7157 35.132 35.5499 35.3409 35.341C35.5499 35.132 35.7156 34.884 35.8287 34.611C35.9418 34.3379 36 34.0453 36 33.7498C36 33.4543 35.9418 33.1617 35.8287 32.8887C35.7156 32.6157 35.5499 32.3677 35.3409 32.1587L27.3966 24.1919ZM4.51361 15.1961C4.51361 13.0833 5.14012 11.018 6.31393 9.26124C7.48773 7.50452 9.1561 6.13532 11.1081 5.32679C13.06 4.51826 15.2079 4.30671 17.2801 4.7189C19.3523 5.13108 21.2557 6.14849 22.7497 7.64246C24.2437 9.13643 25.2611 11.0399 25.6733 13.1121C26.0855 15.1842 25.8739 17.3321 25.0654 19.2841C24.2568 21.2361 22.8876 22.9044 21.1309 24.0782C19.3742 25.252 17.3089 25.8786 15.1961 25.8786C12.3629 25.8786 9.64578 24.7531 7.64243 22.7497C5.63908 20.7464 4.51361 18.0293 4.51361 15.1961Z" fill="currentColor"/>
</svg>
