<svg width="1em" height="1em" viewBox="0 0 36 36" fill="none" xmlns="http://www.w3.org/2000/svg">
<path fill-rule="evenodd" clip-rule="evenodd" d="M34.2782 6.89715C35.3077 8.11406 35.8734 9.65604 35.875 11.25V29.25C35.875 31.0402 35.1638 32.7571 33.898 34.023C32.6321 35.2888 30.9152 36 29.125 36H7.75C5.95979 36 4.2429 35.2888 2.97703 34.023C1.71116 32.7571 1 31.0402 1 29.25V11.25C1.00161 9.65604 1.56728 8.11406 2.59681 6.89715C3.62634 5.68025 5.05331 4.86694 6.625 4.60128V2.25003C6.625 1.65329 6.86205 1.081 7.28401 0.659041C7.70597 0.237084 8.27826 3.05176e-05 8.875 3.05176e-05C9.47174 3.05176e-05 10.044 0.237084 10.466 0.659041C10.8879 1.081 11.125 1.65329 11.125 2.25003V4.50003H16.1875V2.25003C16.1875 1.65329 16.4246 1.081 16.8465 0.659041C17.2685 0.237084 17.8408 3.05176e-05 18.4375 3.05176e-05C19.0342 3.05176e-05 19.6065 0.237084 20.0285 0.659041C20.4504 1.081 20.6875 1.65329 20.6875 2.25003V4.50003H25.75V2.25003C25.75 1.65329 25.9871 1.081 26.409 0.659041C26.831 0.237084 27.4033 3.05176e-05 28 3.05176e-05C28.5967 3.05176e-05 29.169 0.237084 29.591 0.659041C30.0129 1.081 30.25 1.65329 30.25 2.25003V4.60128C31.8217 4.86694 33.2487 5.68025 34.2782 6.89715ZM30.716 30.841C31.1379 30.419 31.375 29.8467 31.375 29.25V18H5.5V29.25C5.5 29.8467 5.73705 30.419 6.15901 30.841C6.58097 31.2629 7.15326 31.5 7.75 31.5H29.125C29.7217 31.5 30.294 31.2629 30.716 30.841ZM5.5 11.25V13.5H31.375V11.25C31.375 10.6533 31.1379 10.081 30.716 9.65904C30.294 9.23708 29.7217 9.00003 29.125 9.00003H7.75C7.15326 9.00003 6.58097 9.23708 6.15901 9.65904C5.73705 10.081 5.5 10.6533 5.5 11.25ZM15.0625 24.75C15.0625 25.9926 14.0551 27 12.8125 27C11.5699 27 10.5625 25.9926 10.5625 24.75C10.5625 23.5074 11.5699 22.5 12.8125 22.5C14.0551 22.5 15.0625 23.5074 15.0625 24.75Z" fill="currentColor"/>
</svg>
