<svg width="1em" height="1em" viewBox="0 0 36 36" fill="none" xmlns="http://www.w3.org/2000/svg">
<g clip-path="url(#clip0_179466_454)">
<path fill-rule="evenodd" clip-rule="evenodd" d="M26.6116 15.1955L31.1174 19.7013C31.1378 19.7184 31.1624 19.7297 31.1887 19.7337C31.215 19.7377 31.2419 19.7345 31.2665 19.7243C31.291 19.7142 31.3123 19.6974 31.328 19.6759C31.3437 19.6545 31.3532 19.6291 31.3555 19.6026V18C31.3555 14.4581 29.9485 11.0613 27.444 8.5567C24.9394 6.0522 21.5426 4.64518 18.0006 4.64518C15.5576 4.64066 13.1628 5.32489 11.091 6.61938C10.5666 6.9428 9.93525 7.04464 9.33585 6.9025C8.73639 6.76042 8.21793 6.38602 7.89452 5.86164C7.57115 5.33727 7.46931 4.70593 7.61139 4.10647C7.75348 3.50703 8.12793 2.98857 8.65226 2.66518C11.4559 0.915608 14.696 -0.00811504 18.0006 2.27914e-05C22.7745 2.27914e-05 27.3529 1.89644 30.7286 5.2721C34.1043 8.64775 36.0007 13.2261 36.0007 18V19.6026C36.0015 20.5495 35.7212 21.4753 35.1956 22.2628C34.6699 23.0504 33.9224 23.6642 33.0477 24.0267C32.1729 24.3892 31.2103 24.4839 30.2816 24.299C29.353 24.114 28.5001 23.6577 27.831 22.9878L23.3252 18.482C22.8894 18.0461 22.6445 17.455 22.6445 16.8387C22.6445 16.2224 22.8894 15.6313 23.3252 15.1955C23.761 14.7597 24.3521 14.5149 24.9684 14.5149C25.5847 14.5149 26.1758 14.7597 26.6116 15.1955ZM27.349 33.3349C24.5455 35.0845 21.3054 36.0082 18.0006 36C13.2268 36 8.64837 34.1036 5.27272 30.7279C1.89706 27.3523 0.000642543 22.7739 0.000642543 18L0.000642543 16.3974C-0.000149317 15.4506 0.280029 14.5247 0.805701 13.7372C1.33138 12.9497 2.07891 12.3358 2.95366 11.9733C3.82841 11.6109 4.79103 11.5161 5.71967 11.7011C6.64828 11.886 7.50119 12.3423 8.17032 13.0123L12.6761 17.5181C13.112 17.9539 13.3568 18.545 13.3568 19.1613C13.3568 19.7776 13.112 20.3687 12.6761 20.8045C12.2403 21.2404 11.6493 21.4852 11.0329 21.4852C10.4165 21.4852 9.82551 21.2404 9.38968 20.8045L4.88387 16.2987C4.86352 16.2816 4.83886 16.2704 4.81257 16.2663C4.78629 16.2623 4.7594 16.2655 4.73483 16.2757C4.71027 16.2859 4.68898 16.3026 4.67328 16.3241C4.65757 16.3456 4.64807 16.371 4.6458 16.3974V18C4.6458 21.542 6.05282 24.9388 8.55732 27.4433C11.0619 29.9478 14.4587 31.3549 18.0006 31.3549C20.4437 31.3594 22.8385 30.6752 24.9103 29.3807C25.4347 29.0573 26.066 28.9554 26.6655 29.0976C27.265 29.2396 27.7834 29.614 28.1068 30.1384C28.4301 30.6627 28.532 31.2941 28.3899 31.8936C28.2478 32.493 27.8734 33.0115 27.349 33.3349Z" fill="currentColor"/>
</g>
<defs>
<clipPath id="clip0_179466_454">
<rect width="36" height="36" fill="white"/>
</clipPath>
</defs>
</svg>
