<svg width="1em" height="1em" viewBox="0 0 37 36" fill="none" xmlns="http://www.w3.org/2000/svg">
<path d="M6.08745 34.8844C6.17216 34.8844 6.25158 34.8844 6.33629 34.8844C6.38394 34.8844 6.43159 34.8844 6.48454 34.8844H27.5723C30.5742 34.8844 33.1209 32.8408 33.7721 29.9076L36.0275 19.7582C36.2975 18.5352 36.0063 17.2751 35.2227 16.3009C34.4392 15.3268 33.2744 14.7655 32.0196 14.7655H30.8337V11.5889C30.8337 8.08396 27.9852 5.23555 24.4803 5.23555H19.4824C18.9635 5.23555 18.4606 5.04495 18.0741 4.70081L15.1145 2.06948C14.3362 1.3812 13.3408 1 12.3031 1H6.47924C2.97432 1 0.125916 3.84841 0.125916 7.35333V28.9229C0.125916 32.2107 2.79961 34.8844 6.08745 34.8844ZM31.8555 19.0011L29.6371 28.9917C29.42 29.9659 28.5676 30.6489 27.567 30.6489H11.7896C11.8319 30.5059 11.869 30.363 11.9007 30.2147L14.3944 19.0011H31.8555ZM4.36147 7.35333C4.36147 6.18326 5.30917 5.23555 6.47924 5.23555H12.3031L15.2627 7.86689C16.4275 8.9046 17.9258 9.4711 19.4824 9.4711H24.4803C25.6504 9.4711 26.5981 10.4188 26.5981 11.5889V14.7655H14.3997C12.3984 14.7655 10.6989 16.1315 10.2648 18.0799L7.77108 29.2935C7.59637 30.0876 6.9028 30.6436 6.08745 30.6436C5.13445 30.6436 4.36147 29.8706 4.36147 28.9176V7.35333Z" fill="currentColor"/>
</svg>
