<svg width="1em" height="1em" viewBox="0 0 36 36" fill="none" xmlns="http://www.w3.org/2000/svg">
<path d="M6.75 36H29.25C32.9738 36 36 32.9738 36 29.25V11.25C36 7.52625 32.9738 4.5 29.25 4.5H20.565C20.0138 4.5 19.4794 4.2975 19.0688 3.93187L15.9244 1.13625C15.0975 0.405 14.04 0 12.9375 0H6.75C3.02625 0 0 3.02625 0 6.75V29.25C0 32.9738 3.02625 36 6.75 36ZM4.5 6.75C4.5 5.50688 5.50688 4.5 6.75 4.5H12.9375L16.0819 7.29562C17.3194 8.3925 18.9113 9 20.565 9H29.25C30.4931 9 31.5 10.0069 31.5 11.25V29.25C31.5 30.4931 30.4931 31.5 29.25 31.5C28.0069 31.5 27 30.4931 27 29.25V20.25C27 16.5263 23.9737 13.5 20.25 13.5H4.5V6.75ZM4.5 18H20.25C21.4931 18 22.5 19.0069 22.5 20.25V29.25C22.5 30.0375 22.635 30.7969 22.8881 31.5H6.75C5.50688 31.5 4.5 30.4931 4.5 29.25V18Z" fill="currentColor"/>
</svg>
