<svg width="1em" height="1em" viewBox="0 0 36 36" fill="none" xmlns="http://www.w3.org/2000/svg">
<path fill-rule="evenodd" clip-rule="evenodd" d="M10.0238 6.06938C9.12937 2.4975 5.93438 0 2.25 0C1.00688 0 0 1.00688 0 2.25C0 3.49312 1.00688 4.5 2.25 4.5C3.86437 4.5 5.265 5.59687 5.65875 7.16062L9.10125 20.9306C9.99563 24.5025 13.1906 27 16.875 27H25.2113C28.5694 27 31.5956 24.8794 32.7431 21.7237L35.6906 13.6181C35.8931 13.0556 36 12.465 36 11.8631C36 9.03938 33.705 6.74437 30.8813 6.74437H10.1925L10.0238 6.06375V6.06938ZM30.8813 11.25C31.2244 11.25 31.5 11.5256 31.5 11.8688C31.5 11.9419 31.4888 12.0094 31.4606 12.0825L28.5131 20.1881C28.0125 21.5719 26.685 22.5 25.2113 22.5H16.875C15.2606 22.5 13.86 21.4031 13.4663 19.8394L11.3175 11.25H30.8813ZM11.5312 36C12.9292 36 14.0625 34.8667 14.0625 33.4688C14.0625 32.0708 12.9292 30.9375 11.5312 30.9375C10.1333 30.9375 9 32.0708 9 33.4688C9 34.8667 10.1333 36 11.5312 36ZM32.625 33.4688C32.625 34.8667 31.4917 36 30.0938 36C28.6958 36 27.5625 34.8667 27.5625 33.4688C27.5625 32.0708 28.6958 30.9375 30.0938 30.9375C31.4917 30.9375 32.625 32.0708 32.625 33.4688Z" fill="currentColor"/>
</svg>
