<svg width="1em" height="1em" viewBox="0 0 36 36" fill="none" xmlns="http://www.w3.org/2000/svg">
<path d="M2.25 36H33.75C34.3467 36 34.919 35.7629 35.341 35.341C35.7629 34.919 36 34.3467 36 33.75C36 33.1533 35.7629 32.581 35.341 32.159C34.919 31.7371 34.3467 31.5 33.75 31.5H32.0625V20.1881C33.1038 19.4954 33.9572 18.5552 34.5462 17.4519C35.1351 16.3485 35.4414 15.1163 35.4375 13.8656C35.445 12.6376 35.2551 11.4164 34.875 10.2488L32.8444 4.22438C32.434 2.99772 31.6495 1.93051 30.6012 1.17278C29.5529 0.415049 28.2935 0.00490398 27 0H9C7.70364 0.00137648 6.44045 0.409889 5.38877 1.16786C4.33709 1.92584 3.55005 2.99499 3.13875 4.22438L1.125 10.2488C0.744896 11.4164 0.554973 12.6376 0.5625 13.8656C0.558618 15.1163 0.864871 16.3485 1.45385 17.4519C2.04283 18.5552 2.89617 19.4954 3.9375 20.1881V31.5H2.25C1.65326 31.5 1.08097 31.7371 0.65901 32.159C0.237053 32.581 0 33.1533 0 33.75C0 34.3467 0.237053 34.919 0.65901 35.341C1.08097 35.7629 1.65326 36 2.25 36ZM27.5625 31.5H8.4375V21.375C10.1033 21.256 11.6761 20.5621 12.8869 19.4119L12.9375 19.3669C14.2991 20.6732 16.113 21.4027 18 21.4027C19.887 21.4027 21.7009 20.6732 23.0625 19.3669L23.1131 19.4119C24.3239 20.5621 25.8967 21.256 27.5625 21.375V31.5ZM5.41687 11.6719L7.425 5.625C7.5404 5.29855 7.75343 5.0155 8.03518 4.81425C8.31693 4.613 8.65377 4.50329 9 4.5H27C27.3491 4.49982 27.6897 4.60792 27.9748 4.80941C28.2599 5.01089 28.4755 5.29585 28.5919 5.625L30.6 11.6494C30.8356 12.3568 30.9552 13.0976 30.9544 13.8431C30.9769 14.5896 30.7163 15.3169 30.2249 15.8792C29.7336 16.4415 29.0477 16.7973 28.305 16.875C27.9208 16.8996 27.5356 16.8451 27.1733 16.7149C26.8111 16.5846 26.4794 16.3813 26.1988 16.1177C25.9183 15.854 25.6949 15.5356 25.5424 15.1821C25.39 14.8285 25.3117 14.4475 25.3125 14.0625C25.3125 13.4658 25.0754 12.8935 24.6535 12.4715C24.2315 12.0496 23.6592 11.8125 23.0625 11.8125C22.4658 11.8125 21.8935 12.0496 21.4715 12.4715C21.0496 12.8935 20.8125 13.4658 20.8125 14.0625C20.8125 14.8084 20.5162 15.5238 19.9887 16.0512C19.4613 16.5787 18.7459 16.875 18 16.875C17.2541 16.875 16.5387 16.5787 16.0113 16.0512C15.4838 15.5238 15.1875 14.8084 15.1875 14.0625C15.1875 13.4658 14.9504 12.8935 14.5285 12.4715C14.1065 12.0496 13.5342 11.8125 12.9375 11.8125C12.3408 11.8125 11.7685 12.0496 11.3465 12.4715C10.9246 12.8935 10.6875 13.4658 10.6875 14.0625C10.6883 14.4475 10.61 14.8285 10.4576 15.1821C10.3051 15.5356 10.0817 15.854 9.80115 16.1177C9.52062 16.3813 9.18894 16.5846 8.82665 16.7149C8.46437 16.8451 8.0792 16.8996 7.695 16.875C6.95931 16.7936 6.28085 16.4394 5.79351 15.8823C5.30617 15.3252 5.04534 14.6056 5.0625 13.8656C5.06165 13.1201 5.18132 12.3793 5.41687 11.6719Z" fill="currentColor"/>
</svg>
