<svg width="1em" height="1em" viewBox="0 0 36 36" fill="none" xmlns="http://www.w3.org/2000/svg">
<path fill-rule="evenodd" clip-rule="evenodd" d="M28.8462 5.30594L34.4685 13.0704H34.4854C35.4686 14.4298 35.9979 16.0648 35.9979 17.7426C35.9979 19.4203 35.4686 21.0553 34.4854 22.4147L28.8631 30.1792C28.1225 31.2012 27.1506 32.0335 26.0269 32.608C24.9032 33.1825 23.6595 33.4831 22.3974 33.4851H7.97604C5.86057 33.4837 3.83217 32.6426 2.3363 31.1468C0.840439 29.6509 -0.000585661 27.6225 -0.0020752 25.507V9.97811C-0.000585661 7.86265 0.840439 5.83424 2.3363 4.33838C3.83217 2.84251 5.86057 2.00149 7.97604 2H22.3974C23.6566 2.00466 24.8969 2.3065 26.0175 2.88095C27.1381 3.45541 28.1073 4.28627 28.8462 5.30594ZM25.2029 27.5479L30.8253 19.7779H30.8309C31.2581 19.1852 31.4881 18.4731 31.4881 17.7426C31.4881 17.012 31.2581 16.2999 30.8309 15.7073L25.2085 7.9372C24.886 7.49326 24.4634 7.13159 23.975 6.88152C23.4866 6.63144 22.9461 6.50001 22.3974 6.49788H7.97604C7.05301 6.49788 6.16783 6.86454 5.51514 7.51721C4.86247 8.16991 4.4958 9.05509 4.4958 9.97811V25.507C4.4958 26.4301 4.86247 27.3152 5.51514 27.9679C6.16783 28.6206 7.05301 28.9873 7.97604 28.9873H22.3917C22.9405 28.9851 23.481 28.8537 23.9694 28.6037C24.4578 28.3536 24.8804 27.9919 25.2029 27.5479ZM25.2985 17.7426C25.2985 18.9846 24.2916 19.9915 23.0495 19.9915C21.8075 19.9915 20.8006 18.9846 20.8006 17.7426C20.8006 16.5005 21.8075 15.4936 23.0495 15.4936C24.2916 15.4936 25.2985 16.5005 25.2985 17.7426Z" fill="currentColor"/>
</svg>
