<svg width="1em" height="1em" viewBox="0 0 18 18" fill="none" xmlns="http://www.w3.org/2000/svg">
<path fill-rule="evenodd" clip-rule="evenodd" d="M11.8939 0.480938C10.9602 0.163125 9.98426 0.00281256 8.99991 0.00281256V0C4.0359 0 0 4.03875 0 9C0 13.9613 4.0359 18 8.99991 18C9.98707 18 10.9602 17.8397 11.8939 17.5219C12.4817 17.3194 12.7967 16.6809 12.597 16.0931C12.3945 15.5053 11.7561 15.1903 11.1683 15.39C10.468 15.6291 9.73957 15.75 8.99991 15.75C5.279 15.75 2.24998 12.7209 2.24998 9C2.24998 5.27906 5.279 2.25 8.99991 2.25C9.73676 2.25 10.468 2.37094 11.1683 2.61C11.7589 2.80969 12.3974 2.49469 12.597 1.90688C12.7967 1.31906 12.4817 0.680625 11.8939 0.480938ZM13.1173 13.2722C13.528 13.8881 14.3661 13.9472 14.8582 13.455V13.4578L17.0745 11.2416C17.9323 10.3809 18.2473 9.07875 17.7917 7.86937C17.6285 7.43344 17.3585 7.05094 17.0295 6.72187L14.8582 4.55062C14.3717 4.06406 13.5505 4.11469 13.137 4.70531C12.8164 5.16094 12.9176 5.79375 13.3114 6.1875L15.0017 7.87781H7.87491C7.25335 7.87781 6.74991 8.38125 6.74991 9.00281C6.74991 9.62437 7.25335 10.1278 7.87491 10.1278H15.0017L13.2861 11.8434C12.9064 12.2231 12.8192 12.825 13.1173 13.2722Z" fill="currentColor"/>
</svg>
