<svg width="1em" height="1em" viewBox="0 0 36 36" fill="none" xmlns="http://www.w3.org/2000/svg">
<path fill-rule="evenodd" clip-rule="evenodd" d="M28.0003 32.9665C25.0403 34.9443 21.5601 36 18 36C13.2262 36 8.64759 34.1036 5.27206 30.7279C1.89651 27.3523 0 22.7739 0 18C0 14.44 1.05578 10.9598 3.0336 7.99974C5.01141 5.0397 7.82252 2.73257 11.1116 1.3702C14.4009 0.00782086 18.02 -0.348617 21.5115 0.345891C25.0032 1.04043 28.2107 2.75478 30.7279 5.27212C33.2452 7.78947 34.9596 10.9967 35.6542 14.4884C36.3485 17.9801 35.9923 21.5992 34.6297 24.8883C33.2674 28.1774 30.9603 30.9886 28.0003 32.9665ZM25.5001 6.77517C23.28 5.2918 20.67 4.50002 18 4.50002C14.4196 4.50002 10.9858 5.92237 8.45398 8.45412C5.92245 10.9858 4.5 14.4196 4.5 18C4.5 20.6701 5.29184 23.2802 6.77526 25.5002C8.2584 27.7203 10.367 29.4506 12.8337 30.4724C15.3007 31.4942 18.0151 31.7615 20.6337 31.2407C23.2526 30.7197 25.658 29.434 27.546 27.546C29.434 25.658 30.7197 23.2525 31.2407 20.6338C31.7614 18.015 31.4942 15.3006 30.4725 12.8338C29.4505 10.367 27.7202 8.2586 25.5001 6.77517ZM20.8125 23.8894L18 22.32C16.9744 21.7458 16.1208 20.9082 15.5275 19.8935C14.934 18.8789 14.6225 17.7242 14.625 16.5488V11.8125C14.625 11.2158 14.862 10.6435 15.2839 10.2216C15.7061 9.79957 16.2782 9.56253 16.875 9.56253C17.4718 9.56253 18.0439 9.79957 18.4661 10.2216C18.888 10.6435 19.125 11.2158 19.125 11.8125V16.5488C19.1242 16.9205 19.2214 17.2859 19.4071 17.6079C19.5927 17.9299 19.8602 18.1972 20.1824 18.3825L22.9949 19.9519C23.2536 20.0952 23.4813 20.2881 23.6654 20.5194C23.8494 20.7507 23.9859 21.016 24.0675 21.3002C24.149 21.5843 24.1738 21.8817 24.1403 22.1754C24.1067 22.4692 24.0158 22.7534 23.8724 23.0119C23.7291 23.2704 23.5363 23.4982 23.305 23.6822C23.0737 23.8663 22.8084 24.0029 22.5242 24.0844C22.2402 24.1659 21.9427 24.1906 21.6491 24.1572C21.3552 24.1237 21.071 24.0327 20.8125 23.8894Z" fill="currentColor"/>
</svg>
