<svg width="1em" height="1em" viewBox="0 0 36 36" fill="none" xmlns="http://www.w3.org/2000/svg">
<path fill-rule="evenodd" clip-rule="evenodd" d="M20.2 29.4013C19.5631 29.4013 18.9524 29.1484 18.502 28.698L12.574 22.77C11.3099 21.5044 10.5999 19.7888 10.5999 18C10.5999 16.2112 11.3099 14.4956 12.574 13.23L18.502 7.302C18.9524 6.85164 19.5631 6.59868 20.2 6.59868C20.8369 6.59868 21.4476 6.85164 21.898 7.302C22.3484 7.7523 22.6013 8.3631 22.6013 9C22.6013 9.6369 22.3484 10.2477 21.898 10.698L16.996 15.6H31V2.4C31 1.76349 31.2528 1.15301 31.703 0.702942C32.153 0.252869 32.7635 0 33.4 0C34.0365 0 34.647 0.252869 35.097 0.702942C35.5472 1.15301 35.8 1.76349 35.8 2.4V33.6C35.8 34.2365 35.5472 34.847 35.097 35.297C34.647 35.7472 34.0365 36 33.4 36C32.7635 36 32.153 35.7472 31.703 35.297C31.2528 34.847 31 34.2365 31 33.6V20.4H16.996L21.898 25.302C22.3484 25.7523 22.6013 26.3631 22.6013 27C22.6013 27.6369 22.3484 28.2477 21.898 28.698C21.4476 29.1484 20.8369 29.4013 20.2 29.4013ZM1.70294 21.497C1.25285 21.047 1 20.4365 1 19.8V16.2C1 15.5635 1.25285 14.953 1.70294 14.503C2.15303 14.0528 2.76348 13.8 3.4 13.8C4.03652 13.8 4.64697 14.0528 5.09706 14.503C5.54715 14.953 5.8 15.5635 5.8 16.2V19.8C5.8 20.4365 5.54715 21.047 5.09706 21.497C4.64697 21.9472 4.03652 22.2 3.4 22.2C2.76348 22.2 2.15303 21.9472 1.70294 21.497ZM1 33.6C1 34.2365 1.25285 34.847 1.70294 35.297C2.15303 35.7472 2.76348 36 3.4 36C4.03652 36 4.64697 35.7472 5.09706 35.297C5.54715 34.847 5.8 34.2365 5.8 33.6V30C5.8 29.3635 5.54715 28.753 5.09706 28.303C4.64697 27.8528 4.03652 27.6 3.4 27.6C2.76348 27.6 2.15303 27.8528 1.70294 28.303C1.25285 28.753 1 29.3635 1 30V33.6ZM1.70294 0.702942C2.15303 0.252869 2.76348 0 3.4 0C4.03652 0 4.64697 0.252869 5.09706 0.702942C5.54715 1.15301 5.8 1.76349 5.8 2.4V6C5.8 6.63654 5.54715 7.24698 5.09706 7.69704C4.64697 8.14716 4.03652 8.4 3.4 8.4C2.76348 8.4 2.15303 8.14716 1.70294 7.69704C1.25285 7.24698 1 6.63654 1 6V2.4C1 1.76349 1.25285 1.15301 1.70294 0.702942Z" fill="currentColor"/>
</svg>
