<svg width="1em" height="1em" viewBox="0 0 36 37" fill="none" xmlns="http://www.w3.org/2000/svg">
<path fill-rule="evenodd" clip-rule="evenodd" d="M10.1701 36.9769C8.61862 36.9769 7.13047 36.3607 6.03317 35.2636L4.27361 33.4818C3.64756 32.8549 3.15106 32.1108 2.81238 31.292C2.47397 30.4732 2.29996 29.5957 2.30078 28.7096V9.21612C2.29996 8.33009 2.47397 7.4526 2.81238 6.63374C3.15106 5.81495 3.64756 5.07081 4.27361 4.44395L6.03317 2.69021C7.13047 1.59319 8.61862 0.976929 10.1701 0.976929C11.7217 0.976929 13.2098 1.59319 14.3071 2.69021L14.3858 2.76892L14.4646 2.69021C15.5619 1.59319 17.05 0.976929 18.6015 0.976929C20.1531 0.976929 21.6412 1.59319 22.7385 2.69021L22.8173 2.76892L22.896 2.69021C23.9933 1.59319 25.4815 0.976929 27.033 0.976929C28.5845 0.976929 30.0726 1.59319 31.1699 2.69021L32.9295 4.44395C33.5555 5.07081 34.052 5.81495 34.3907 6.63374C34.7291 7.4526 34.9031 8.33009 34.9023 9.21612V28.7096C34.9067 29.6004 34.7346 30.4832 34.3959 31.3071C34.0572 32.131 33.5588 32.8797 32.9295 33.5099L31.1699 35.2636C30.0726 36.3607 28.5845 36.9769 27.033 36.9769C25.4815 36.9769 23.9933 36.3607 22.896 35.2636L22.8173 35.1849L22.7385 35.2636C21.6412 36.3607 20.1531 36.9769 18.6015 36.9769C17.05 36.9769 15.5619 36.3607 14.4646 35.2636L14.3858 35.1849L14.3071 35.2636C13.2098 36.3607 11.7217 36.9769 10.1701 36.9769ZM6.96799 8.35533C6.85518 8.62828 6.79727 8.92079 6.79755 9.21612V28.7096C6.79727 29.005 6.85518 29.2975 6.96799 29.5704C7.08106 29.8433 7.24656 30.0914 7.45515 30.3003L9.20893 32.054C9.33495 32.1809 9.48453 32.2815 9.64944 32.3502C9.81442 32.4188 9.99142 32.4541 10.1701 32.4541C10.3488 32.4541 10.5258 32.4188 10.6908 32.3502C10.8557 32.2815 11.0053 32.1809 11.1313 32.054L12.9468 30.2385C13.0566 30.1289 13.1782 30.0324 13.3091 29.9507C13.4038 29.8916 13.5035 29.8402 13.6072 29.7973C13.8539 29.695 14.1185 29.6424 14.3858 29.6424C14.6532 29.6424 14.9177 29.695 15.1647 29.7973C15.4115 29.8996 15.6357 30.0495 15.8248 30.2385L17.6404 32.054C17.7664 32.1809 17.916 32.2815 18.0809 32.3502C18.2458 32.4188 18.4229 32.4541 18.6015 32.4541C18.7802 32.4541 18.9572 32.4188 19.1222 32.3502C19.2871 32.2815 19.4367 32.1809 19.5627 32.054L21.3782 30.2385C21.5674 30.0495 21.7916 29.8996 22.0386 29.7973C22.2853 29.695 22.5499 29.6424 22.8173 29.6424C23.0846 29.6424 23.3492 29.695 23.5961 29.7973C23.8429 29.8996 24.0671 30.0495 24.2563 30.2385L26.0718 32.054C26.1978 32.1809 26.3474 32.2815 26.5123 32.3502C26.6773 32.4188 26.8543 32.4541 27.033 32.4541C27.2117 32.4541 27.3887 32.4188 27.5536 32.3502C27.7186 32.2815 27.8681 32.1809 27.9942 32.054L29.7479 30.3003C29.9565 30.0914 30.122 29.8433 30.2351 29.5704C30.3479 29.2975 30.4058 29.005 30.4055 28.7096V9.21612C30.4058 8.92079 30.3479 8.62828 30.2351 8.35533C30.122 8.08243 29.9565 7.83438 29.7479 7.62545L27.9942 5.87166C27.8681 5.74489 27.7186 5.64427 27.5536 5.57562C27.3887 5.50693 27.2117 5.4716 27.033 5.4716C26.8543 5.4716 26.6773 5.50693 26.5123 5.57562C26.3474 5.64427 26.1978 5.74489 26.0718 5.87166L24.2563 7.68722C24.0671 7.87625 23.8429 8.02616 23.5961 8.12847C23.3492 8.23071 23.0846 8.28338 22.8173 8.28338C22.5499 8.28338 22.2853 8.23071 22.0386 8.12847C21.7916 8.02616 21.5674 7.87625 21.3782 7.68722L19.5627 5.87166C19.4367 5.74489 19.2871 5.64427 19.1222 5.57562C18.9572 5.50693 18.7802 5.4716 18.6015 5.4716C18.4229 5.4716 18.2458 5.50693 18.0809 5.57562C17.916 5.64427 17.7664 5.74489 17.6404 5.87166L15.8248 7.68722C15.6357 7.87625 15.4115 8.02616 15.1647 8.12847C14.9177 8.23071 14.6532 8.28338 14.3858 8.28338C14.1185 8.28338 13.8539 8.23071 13.6072 8.12847C13.4697 8.07147 13.339 7.99969 13.2177 7.91464C13.1211 7.84702 13.0306 7.77097 12.9468 7.68722L11.1313 5.87166C11.0053 5.74489 10.8557 5.64427 10.6908 5.57562C10.5258 5.50693 10.3488 5.4716 10.1701 5.4716C9.99142 5.4716 9.81442 5.50693 9.64944 5.57562C9.48453 5.64427 9.33495 5.74489 9.20893 5.87166L7.45515 7.62545C7.24656 7.83438 7.08106 8.08243 6.96799 8.35533ZM11.3906 16.056C11.8125 16.4776 12.3842 16.7145 12.9806 16.7145H24.2225C24.8189 16.7145 25.3906 16.4776 25.8124 16.056C26.234 15.6343 26.4709 15.0624 26.4709 14.4661C26.4709 13.8698 26.234 13.2979 25.8124 12.8763C25.3906 12.4546 24.8189 12.2177 24.2225 12.2177H12.9806C12.3842 12.2177 11.8125 12.4546 11.3906 12.8763C10.9691 13.2979 10.7322 13.8698 10.7322 14.4661C10.7322 15.0624 10.9691 15.6343 11.3906 16.056ZM11.3906 25.0495C11.8125 25.4711 12.3842 25.708 12.9806 25.708H24.2225C24.8189 25.708 25.3906 25.4711 25.8124 25.0495C26.234 24.6279 26.4709 24.0559 26.4709 23.4596C26.4709 22.8633 26.234 22.2914 25.8124 21.8698C25.3906 21.4482 24.8189 21.2112 24.2225 21.2112H12.9806C12.3842 21.2112 11.8125 21.4482 11.3906 21.8698C10.9691 22.2914 10.7322 22.8633 10.7322 23.4596C10.7322 24.0559 10.9691 24.6279 11.3906 25.0495Z" fill="currentColor"/>
</svg>
