<svg width="1em" height="1em" viewBox="0 0 36 36" fill="none" xmlns="http://www.w3.org/2000/svg">
<path d="M33.8725 7.72854L26.6722 0.52819C26.3347 0.190701 25.8774 0 25.3999 0H16.4007C13.4224 0 10.9991 2.42319 10.9991 5.39983V8.99915L7.39983 9.00083C4.4215 9.00083 2 11.4223 2 14.4007V30.6002C2 33.5785 4.4215 36 7.39983 36H20C22.9784 36 25.3999 33.5785 25.3999 30.6002V27.0009H28.9992C31.9775 27.0009 34.399 24.5794 34.399 21.601V9.00083C34.399 8.52327 34.21 8.06601 33.8725 7.72854ZM30.0539 9.00087H27.1987C26.2048 9.00087 25.3982 8.19258 25.3982 7.20035L25.3999 4.34518L30.0539 9.00087ZM21.799 30.6002C21.799 31.5924 20.9924 32.4007 19.9985 32.4007L7.40005 32.399C6.40613 32.399 5.59953 31.5907 5.59953 30.5985V14.399C5.59953 13.4068 6.40613 12.5985 7.40005 12.5985H10.9994V21.5976C10.9994 24.576 13.4209 26.9975 16.3992 26.9975H21.799V30.6002ZM28.9994 23.3999H16.3992C15.4053 23.3999 14.5987 22.5916 14.5987 21.5993L14.6004 5.39983C14.6004 4.4076 15.407 3.59931 16.4009 3.59931H21.8007V7.19863C21.8007 10.177 24.2222 12.5985 27.2005 12.5985H30.7999V21.5976C30.7999 22.5915 29.9933 23.3999 28.9994 23.3999Z" fill="currentColor"/>
</svg>
