<svg width="1em" height="1em" viewBox="0 0 36 36" fill="none" xmlns="http://www.w3.org/2000/svg">
<path d="M0 13.1936V28.871C0 30.719 0.7341 32.4912 2.0408 33.7979C3.34751 35.1046 5.11978 35.8387 6.96774 35.8387H29.0323C30.8802 35.8387 32.6525 35.1046 33.9592 33.7979C35.2659 32.4912 36 30.719 36 28.871V7.96777C36 6.11981 35.2659 4.34754 33.9592 3.04084C32.6525 1.73413 30.8802 1.00003 29.0323 1.00003H6.96774C5.11978 1.00003 3.34751 1.73413 2.0408 3.04084C0.7341 4.34754 0 6.11981 0 7.96777V13.1936ZM31.3548 28.871C31.3548 29.487 31.1101 30.0777 30.6746 30.5133C30.239 30.9489 29.6482 31.1936 29.0323 31.1936H6.96774C6.35176 31.1936 5.761 30.9489 5.32543 30.5133C4.88986 30.0777 4.64516 29.487 4.64516 28.871V16.9504L13.6626 21.462C15.0097 22.1342 16.4945 22.4841 18 22.4841C19.5055 22.4841 20.9903 22.1342 22.3374 21.462L31.3548 16.9504V28.871ZM6.96774 5.64519H29.0323C29.6482 5.64519 30.239 5.88989 30.6746 6.32546C31.1101 6.76103 31.3548 7.35179 31.3548 7.96777V11.7594L20.2587 17.3045C19.5554 17.6483 18.7828 17.8269 18 17.8269C17.2172 17.8269 16.4446 17.6483 15.7413 17.3045L4.64516 11.7594V7.96777C4.64516 7.35179 4.88986 6.76103 5.32543 6.32546C5.761 5.88989 6.35176 5.64519 6.96774 5.64519Z" fill="currentColor"/>
</svg>
