<svg width="1em" height="1em" viewBox="0 0 36 36" fill="none" xmlns="http://www.w3.org/2000/svg">
<path d="M18 36C27.9225 36 36 27.9281 36 18C36 8.07188 27.9225 0 18 0C8.0775 0 0 8.07188 0 18C0 27.9281 8.0775 36 18 36ZM18.5625 4.51688C25.56 4.80375 31.1963 10.4456 31.4831 17.4375H20.8125C19.5694 17.4375 18.5625 16.4306 18.5625 15.1875V4.51688ZM14.0625 5.09062V15.1931C14.0625 18.9169 17.0888 21.9431 20.8125 21.9431H30.915C29.2275 27.4725 24.075 31.5056 18 31.5056C10.5581 31.5056 4.5 25.4475 4.5 18.0056C4.5 11.9306 8.53312 6.78375 14.0625 5.09062Z" fill="currentColor"/>
</svg>
