<svg width="1em" height="1em" viewBox="0 0 36 36" fill="none" xmlns="http://www.w3.org/2000/svg">
<g clip-path="url(#clip0_179875_2526)">
<path d="M23.5267 6.76035C23.2239 7.03228 22.9796 7.36299 22.8088 7.73235C22.6379 8.10171 22.544 8.50198 22.5328 8.90879C22.5215 9.3156 22.5932 9.72044 22.7435 10.0987C22.8937 10.4769 23.1194 10.8206 23.4067 11.1088L27.2828 15.0073L3.03663 15.0073C2.24127 15.0073 1.47848 15.3233 0.91608 15.8857C0.353676 16.4481 0.0377197 17.2109 0.0377197 18.0062C0.0377197 18.8016 0.353676 19.5644 0.91608 20.1268C1.47848 20.6892 2.24127 21.0052 3.03663 21.0052H27.2828L23.4067 24.8812C23.1194 25.1695 22.8937 25.5131 22.7435 25.8913C22.5932 26.2696 22.5215 26.6744 22.5328 27.0812C22.544 27.488 22.6379 27.8883 22.8088 28.2577C22.9796 28.627 23.2239 28.9577 23.5267 29.2297C24.1312 29.7393 24.907 29.9997 25.6966 29.958C26.4862 29.9162 27.2303 29.5754 27.7776 29.0047L34.0978 22.6845C34.7128 22.0698 35.2007 21.3399 35.5335 20.5365C35.8664 19.7331 36.0377 18.8721 36.0377 18.0025C36.0377 17.1329 35.8664 16.2718 35.5335 15.4685C35.2007 14.6651 34.7128 13.9352 34.0978 13.3205L27.7776 7.00776C27.2332 6.4339 26.4907 6.08891 25.7011 6.04295C24.9114 5.997 24.1339 6.25351 23.5267 6.76035Z" fill="currentColor"/>
</g>
<defs>
<clipPath id="clip0_179875_2526">
<rect width="36" height="36" fill="white"/>
</clipPath>
</defs>
</svg>
