<svg width="1em" height="1em" viewBox="0 0 14 14" fill="none" xmlns="http://www.w3.org/2000/svg">
<path d="M3.37501 0.287768C3.2841 0.371646 3.21197 0.471253 3.16276 0.580894C3.11356 0.690534 3.08823 0.808058 3.08823 0.926745C3.08823 1.04543 3.11356 1.16296 3.16276 1.2726C3.21197 1.38224 3.2841 1.48184 3.37501 1.56572L8.72381 6.50594C8.86871 6.6448 8.94966 6.83014 8.94966 7.02299C8.94966 7.21584 8.86871 7.40118 8.72381 7.54004L3.37501 12.4803C3.19153 12.6497 3.08845 12.8796 3.08845 13.1192C3.08845 13.3589 3.19153 13.5887 3.37501 13.7582C3.5585 13.9277 3.80735 14.0229 4.06684 14.0229C4.32632 14.0229 4.57518 13.9277 4.75866 13.7582L10.1075 8.818C10.6225 8.34173 10.9118 7.69612 10.9118 7.02299C10.9118 6.34986 10.6225 5.70426 10.1075 5.22799L4.75866 0.287768C4.66785 0.203796 4.56 0.137181 4.44129 0.0917306C4.32258 0.0462804 4.19534 0.0228879 4.06684 0.0228879C3.93833 0.0228879 3.81109 0.0462804 3.69238 0.0917306C3.57367 0.137181 3.46583 0.203796 3.37501 0.287768Z" fill="currentColor"/>
</svg>
