<svg width="1em" height="1em" viewBox="0 0 36 36" fill="none" xmlns="http://www.w3.org/2000/svg">
<path fill-rule="evenodd" clip-rule="evenodd" d="M5.09706 35.297C4.64697 35.7472 4.03652 36 3.4 36C2.76348 36 2.15303 35.7472 1.70294 35.297C1.25286 34.847 1 34.2365 1 33.6V2.4C1 1.76349 1.25286 1.15303 1.70294 0.702942C2.15303 0.25285 2.76348 0 3.4 0C4.03652 0 4.64697 0.25285 5.09706 0.702942C5.54714 1.15303 5.8 1.76349 5.8 2.4V15.6H19.804L14.902 10.728C14.4516 10.2777 14.1987 9.6669 14.1987 9.03C14.1987 8.3931 14.4516 7.78236 14.902 7.332C15.3524 6.88164 15.9631 6.62868 16.6 6.62868C17.2369 6.62868 17.8476 6.88164 18.298 7.332L24.226 13.26C25.4901 14.5256 26.2001 16.2412 26.2001 18.03C26.2001 19.8187 25.4901 21.5344 24.226 22.8L18.298 28.698C17.8476 29.1484 17.2369 29.4013 16.6 29.4013C15.9631 29.4013 15.3524 29.1484 14.902 28.698C14.4516 28.2477 14.1987 27.6369 14.1987 27C14.1987 26.3631 14.4516 25.7523 14.902 25.302L19.804 20.4H5.8V33.6C5.8 34.2365 5.54714 34.847 5.09706 35.297ZM31.703 21.497C31.2528 21.047 31 20.4365 31 19.8V16.2C31 15.5635 31.2528 14.953 31.703 14.503C32.153 14.0528 32.7635 13.8 33.4 13.8C34.0365 13.8 34.647 14.0528 35.097 14.503C35.5472 14.953 35.8 15.5635 35.8 16.2V19.8C35.8 20.4365 35.5472 21.047 35.097 21.497C34.647 21.9472 34.0365 22.2 33.4 22.2C32.7635 22.2 32.153 21.9472 31.703 21.497ZM33.4 0C32.7635 0 32.153 0.25285 31.703 0.702942C31.2528 1.15303 31 1.76349 31 2.4V6C31 6.63654 31.2528 7.24698 31.703 7.69704C32.153 8.14716 32.7635 8.4 33.4 8.4C34.0365 8.4 34.647 8.14716 35.097 7.69704C35.5472 7.24698 35.8 6.63654 35.8 6V2.4C35.8 1.76349 35.5472 1.15303 35.097 0.702942C34.647 0.25285 34.0365 0 33.4 0ZM31.703 35.297C31.2528 34.847 31 34.2365 31 33.6V30C31 29.3635 31.2528 28.753 31.703 28.303C32.153 27.8528 32.7635 27.6 33.4 27.6C34.0365 27.6 34.647 27.8528 35.097 28.303C35.5472 28.753 35.8 29.3635 35.8 30V33.6C35.8 34.2365 35.5472 34.847 35.097 35.297C34.647 35.7472 34.0365 36 33.4 36C32.7635 36 32.153 35.7472 31.703 35.297Z" fill="currentColor"/>
</svg>
