<svg width="1em" height="1em" viewBox="0 0 36 36" fill="none" xmlns="http://www.w3.org/2000/svg">
<path fill-rule="evenodd" clip-rule="evenodd" d="M7.19548 13.7012C7.37753 13.3968 7.62377 13.1378 7.9161 12.9432C8.3824 12.6317 8.94034 12.4972 9.49337 12.5629C10.0463 12.6286 10.5594 12.8904 10.9436 13.3029L15.6809 18.1589V2.39803C15.6809 1.76205 15.9278 1.1521 16.367 0.702387C16.8063 0.25267 17.4021 3.05176e-05 18.0233 3.05176e-05C18.6445 3.05176e-05 19.2403 0.25267 19.6796 0.702387C20.1188 1.1521 20.3656 1.76205 20.3656 2.39803V18.1529L25.0503 13.3569C25.4412 12.9359 25.9635 12.6677 26.5268 12.5988C27.0902 12.5298 27.6595 12.6644 28.1363 12.9792C28.4186 13.1792 28.6545 13.4403 28.8273 13.7439C29.0002 14.0476 29.1057 14.3864 29.1364 14.7365C29.1672 15.0865 29.1224 15.4392 29.0052 15.7695C28.888 16.0999 28.7013 16.3998 28.4584 16.6482L22.667 22.5832C21.7644 23.5046 20.6205 24.1388 19.3736 24.409C18.1266 24.6792 16.8298 24.574 15.64 24.1059C14.7341 23.7456 13.9136 23.1918 13.2333 22.4813L7.53552 16.6482C7.28911 16.3956 7.1009 16.0898 6.98461 15.7533C6.86837 15.4167 6.82697 15.0579 6.86345 14.7028C6.89987 14.3478 7.01336 14.0056 7.19548 13.7012ZM32.5213 24.9061C32.9617 24.6488 33.4716 24.5448 33.9746 24.6095C34.3289 24.659 34.6674 24.791 34.9643 24.9952C35.261 25.1994 35.5082 25.4705 35.6869 25.7875C35.8655 26.1047 35.9708 26.4595 35.9947 26.8247C36.0187 27.19 35.9607 27.5561 35.8251 27.8948C35.0337 29.8159 33.7825 31.5023 32.1871 32.7983C30.5917 34.0943 28.7031 34.9583 26.6958 35.3106C23.8128 35.7676 20.8998 35.9981 17.9823 36C15.061 35.9987 12.1441 35.7682 9.2572 35.3106C7.26832 34.9704 5.39484 34.124 3.80893 32.8492C2.22295 31.5743 0.975295 29.9119 0.180626 28.0147C0.0453098 27.6827 -0.0153072 27.3239 0.00327821 26.9647C0.0217921 26.6056 0.119008 26.2553 0.287707 25.9398C0.456405 25.6243 0.692295 25.3517 0.977866 25.1422C1.26337 24.9327 1.59133 24.7916 1.93737 24.7294C2.45026 24.6452 2.97594 24.7378 3.43179 24.9929C3.88756 25.2479 4.24769 25.6508 4.45534 26.1382C4.94314 27.3034 5.71036 28.3237 6.6859 29.1045C7.66148 29.8852 8.8138 30.4012 10.036 30.6045C12.666 31.011 15.3225 31.2114 17.9823 31.204C20.6723 31.2073 23.3584 30.9969 26.0165 30.5746C27.2354 30.3562 28.3804 29.8254 29.3449 29.0319C30.3095 28.2384 31.0621 27.2079 31.5327 26.0363C31.7341 25.56 32.081 25.1634 32.5213 24.9061Z" fill="currentColor"/>
</svg>
