<svg width="1em" height="1em" viewBox="0 0 34 36" fill="none" xmlns="http://www.w3.org/2000/svg">
<path d="M9.00475 0C6.84861 0 4.78077 0.856525 3.25615 2.38115C1.73153 3.90577 0.875 5.97361 0.875 8.12975V29.6155C0.875 29.7955 0.875 29.9755 0.904034 30.1498C1.0207 31.6392 1.66282 33.0387 2.71581 34.0985C3.6751 35.0753 4.92427 35.7161 6.27726 35.9253C7.63024 36.1346 9.01464 35.9012 10.2242 35.2599C10.3617 35.1894 10.4954 35.1119 10.6249 35.0276L17.0126 30.8001C17.0419 30.7809 17.0762 30.7707 17.1113 30.7707C17.1464 30.7707 17.1807 30.7809 17.21 30.8001L23.5977 35.0276C23.7271 35.1119 23.8609 35.1894 23.9983 35.2599C25.2079 35.9012 26.5923 36.1346 27.9453 35.9253C29.2983 35.7161 30.5475 35.0753 31.5067 34.0985C32.5874 33.0477 33.2568 31.6451 33.394 30.144C33.4028 29.9679 33.4028 29.7916 33.394 29.6155V8.12975C33.394 5.97361 32.5375 3.90577 31.0129 2.38115C29.4882 0.856525 27.4204 0 25.2643 0H9.00475ZM28.7484 8.12975V29.6155C28.7484 30.0776 28.5649 30.5207 28.2382 30.8474C27.9115 31.1741 27.4684 31.3576 27.0063 31.3576C26.7229 31.357 26.4438 31.2873 26.1934 31.1544L19.8057 26.9269C19.0179 26.4081 18.0952 26.1317 17.1519 26.1317C16.2086 26.1317 15.286 26.4081 14.4981 26.9269L8.11048 31.1544C7.84967 31.2929 7.55793 31.3628 7.26266 31.3576C6.80063 31.3576 6.35752 31.1741 6.03082 30.8474C5.70411 30.5207 5.52057 30.0776 5.52057 29.6155V8.12975C5.52057 7.20569 5.88765 6.31947 6.54106 5.66606C7.19447 5.01265 8.08069 4.64557 9.00475 4.64557H25.2643C26.1883 4.64557 27.0745 5.01265 27.7279 5.66606C28.3813 6.31947 28.7484 7.20569 28.7484 8.12975Z" fill="currentColor"/>
</svg>
