<svg width="1em" height="1em" viewBox="0 0 37 36" fill="none" xmlns="http://www.w3.org/2000/svg">
<path fill-rule="evenodd" clip-rule="evenodd" d="M5.22009 2.38115C6.74472 0.856525 8.81253 0 10.9687 0H27.2283C29.3845 0 31.4521 0.856525 32.9767 2.38115C34.5013 3.90577 35.3579 5.97361 35.3579 8.12975V29.6154C35.3669 29.7915 35.3669 29.9679 35.3579 30.1438C35.2208 31.645 34.5515 33.0477 33.4707 34.0984C32.5113 35.0753 31.2621 35.7161 29.9093 35.9254C28.5562 36.1345 27.1717 35.9013 25.9623 35.2599C25.8248 35.1895 25.6911 35.1118 25.5616 35.0275L19.1739 30.8001C19.1446 30.781 19.1103 30.7707 19.0752 30.7707C19.0401 30.7707 19.0058 30.781 18.9765 30.8001L12.5888 35.0275C12.4593 35.1118 12.3256 35.1895 12.1882 35.2599C10.9786 35.9013 9.59417 36.1345 8.24119 35.9254C6.88821 35.7161 5.63903 35.0753 4.67973 34.0984C3.62676 33.0387 2.98463 31.6391 2.86797 30.1497C2.83894 29.9757 2.83894 29.7957 2.83894 29.6154V8.12975C2.83894 5.97361 3.69547 3.90577 5.22009 2.38115Z" fill="currentColor"/>
</svg>
