<svg width="1em" height="1em" viewBox="0 0 36 36" fill="none" xmlns="http://www.w3.org/2000/svg">
<path d="M25.6761 18.18C24.2494 16.9883 22.5098 16.2325 20.6652 16.0026L18.1858 15.6774L16.2174 15.3987C15.2873 15.2649 14.4127 14.8749 13.6916 14.2723C13.3227 13.9535 13.04 13.547 12.8695 13.0902C12.6991 12.6334 12.6465 12.141 12.7165 11.6585C12.7865 11.176 12.9769 10.7189 13.2701 10.3294C13.5633 9.93985 13.9499 9.63043 14.3942 9.42968C15.495 8.95709 16.6801 8.71217 17.8781 8.70968C20.0526 8.73193 22.1489 9.52395 23.7949 10.9452C24.2322 11.3794 24.8242 11.6222 25.4405 11.62C26.0568 11.6178 26.647 11.3709 27.0813 10.9335C27.5156 10.4962 27.7583 9.90425 27.7561 9.28792C27.754 8.67159 27.507 8.08137 27.0697 7.6471C25.1434 5.89812 22.7624 4.72872 20.2007 4.27355V2.32258C20.2007 1.70659 19.956 1.11584 19.5204 0.680269C19.0848 0.2447 18.4941 0 17.8781 0C17.2621 0 16.6713 0.2447 16.2358 0.680269C15.8002 1.11584 15.5555 1.70659 15.5555 2.32258V4.27355C14.5323 4.45353 13.5329 4.74964 12.5768 5.15613C11.3952 5.66686 10.3639 6.47125 9.58085 7.49287C8.79778 8.51449 8.28897 9.71939 8.10277 10.9931C7.91658 12.2667 8.05919 13.5669 8.51705 14.7699C8.97491 15.9729 9.73281 17.0389 10.7187 17.8665C12.1009 19.0167 13.7754 19.7605 15.5555 20.0148L17.5471 20.2994H17.5878L20.0845 20.6129C21.0493 20.74 21.9567 21.1433 22.6974 21.7742C23.0551 22.073 23.3307 22.4582 23.498 22.8931C23.6654 23.3281 23.7191 23.7986 23.654 24.2601C23.5889 24.7217 23.4072 25.159 23.126 25.5307C22.8448 25.9024 22.4735 26.1963 22.0471 26.3845C20.7348 26.9708 19.3154 27.2792 17.8781 27.2903C15.7036 27.2681 13.6073 26.476 11.9613 25.0548C11.524 24.6206 10.932 24.3778 10.3157 24.38C9.69935 24.3822 9.10913 24.6291 8.67486 25.0665C8.24058 25.5038 7.99784 26.0958 8.00001 26.7121C8.00219 27.3284 8.24912 27.9186 8.68647 28.3529C10.6127 30.1019 12.9938 31.2713 15.5555 31.7264V33.6774C15.5555 34.2934 15.8002 34.8842 16.2358 35.3197C16.6713 35.7553 17.2621 36 17.8781 36C18.4941 36 19.0848 35.7553 19.5204 35.3197C19.956 34.8842 20.2007 34.2934 20.2007 33.6774V31.7381C21.4787 31.518 22.7248 31.1416 23.911 30.6174C25.062 30.1099 26.0642 29.3169 26.8228 28.3135C27.5814 27.3101 28.0711 26.1295 28.2456 24.8838C28.4201 23.6381 28.2735 22.3684 27.8198 21.1952C27.366 20.022 26.6202 18.9842 25.6529 18.18H25.6761Z" fill="currentColor"/>
</svg>
