<svg width="1em" height="1em" viewBox="0 0 36 36" fill="none" xmlns="http://www.w3.org/2000/svg">
<path fill-rule="evenodd" clip-rule="evenodd" d="M25.282 0.341383C25.828 0.11554 26.4131 -0.000463163 27.004 1.38977e-06C29.3898 1.38977e-06 31.6779 0.9482 33.3649 2.63601C35.052 4.32381 35.9998 6.61295 35.9998 8.99989C36.0002 9.59102 35.8843 10.1764 35.6585 10.7227C35.4328 11.269 35.1017 11.7654 34.6841 12.1836L23.1358 23.7316C22.4594 24.4134 21.6543 24.9541 20.7673 25.3219C19.8803 25.6899 18.929 25.8777 17.9688 25.8747H15.197C13.8549 25.8747 12.5679 25.3413 11.6189 24.392C10.67 23.4425 10.1369 22.1549 10.1369 20.8122V18.0392C10.1341 17.0785 10.3221 16.127 10.6898 15.2396C11.0575 14.3522 11.5977 13.5467 12.279 12.8698L23.8217 1.31623C24.2397 0.898487 24.7359 0.567229 25.282 0.341383ZM17.9688 21.3747C18.7129 21.3746 19.4267 21.0793 19.9535 20.5535L31.5019 8.99989C31.5019 7.80645 31.028 6.66183 30.1844 5.81792C29.341 4.97405 28.1969 4.49995 27.004 4.49995L15.4556 16.0536C14.9301 16.5807 14.6349 17.2947 14.6348 18.0392V20.8122C14.6348 20.9614 14.694 21.1045 14.7994 21.21C14.9049 21.3155 15.0479 21.3747 15.197 21.3747H17.9688ZM16.9907 35.9941C14.7404 36.0088 12.3534 36.0245 10.1987 35.6621C7.80353 35.2715 5.59198 34.1366 3.8775 32.4183C2.16301 30.7 1.03255 28.4854 0.646319 26.0884C-0.215765 20.9136 -0.215765 15.6316 0.646319 10.4567C1.06527 8.04956 2.22597 5.83362 3.966 4.119C5.70605 2.40439 7.9383 1.27693 10.3505 0.894375C10.9409 0.798752 11.5312 0.720003 12.1272 0.646878C12.4422 0.612797 12.7608 0.645692 13.0622 0.743397C13.3637 0.841107 13.641 1.00143 13.8761 1.21385C14.1113 1.42629 14.2989 1.68602 14.4268 1.97606C14.5546 2.26609 14.6198 2.57988 14.6179 2.89685C14.6216 3.45135 14.4204 3.98767 14.0531 4.40291C13.6858 4.81815 13.1782 5.08307 12.6276 5.14682C12.0653 5.21995 11.5031 5.30432 10.9409 5.39432C9.48681 5.62232 8.14015 6.2988 7.08888 7.3294C6.03761 8.35994 5.33414 9.69322 5.07674 11.143C4.28589 15.8594 4.28589 20.6746 5.07674 25.3909C5.31429 26.8591 6.0082 28.2151 7.05986 29.2662C8.11153 30.3174 9.46753 31.0103 10.9352 31.2465C13.2735 31.6275 15.6391 31.8157 18.0082 31.809C20.4064 31.8103 22.8005 31.6109 25.1655 31.2127C26.6056 30.9497 27.9289 30.2465 28.9529 29.1998C29.9769 28.1531 30.6514 26.8146 30.8834 25.3684C30.979 24.806 31.0577 24.2435 31.1308 23.681C31.1932 23.1291 31.4574 22.6199 31.8727 22.2512C32.2878 21.8826 32.8246 21.6806 33.3797 21.6841C33.6971 21.6822 34.0112 21.7475 34.3016 21.8757C34.5919 22.0039 34.8518 22.1922 35.0643 22.4281C35.2767 22.664 35.4368 22.9422 35.5341 23.2444C35.6314 23.5466 35.6636 23.866 35.6287 24.1816C35.5556 24.7778 35.4713 25.3684 35.3757 25.9647C34.9919 28.3763 33.8643 30.6075 32.1505 32.3463C30.4367 34.0851 28.2225 35.2444 25.8177 35.6621C23.6731 36.0228 21.6884 36.009 19.5778 35.9943C19.1541 35.9913 18.7254 35.9883 18.2893 35.9883C17.8635 35.9883 17.4297 35.9912 16.9907 35.9941Z" fill="currentColor"/>
</svg>
