<svg width="1em" height="1em" viewBox="0 0 36 36" fill="none" xmlns="http://www.w3.org/2000/svg">
<path fill-rule="evenodd" clip-rule="evenodd" d="M31.5 19.1254C32.0968 19.1254 32.669 18.8884 33.0909 18.4664C33.5129 18.0445 33.7499 17.4722 33.7499 16.8755V7.31349C33.7499 5.52335 33.0388 3.80655 31.773 2.54074C30.5071 1.27494 28.7904 0.563812 27.0002 0.563812H6.75122C4.9611 0.563812 3.24429 1.27494 1.97848 2.54074C0.712672 3.80655 0.00154877 5.52335 0.00154877 7.31349V27.5625C0.00154877 29.3526 0.712672 31.0695 1.97848 32.3353C3.24429 33.601 4.9611 34.3122 6.75122 34.3122H17.4382C18.0349 34.3122 18.6072 34.0752 19.0291 33.6532C19.4511 33.2313 19.6881 32.659 19.6881 32.0623C19.6881 31.4656 19.4511 30.8933 19.0291 30.4714C18.6072 30.0494 18.0349 29.8124 17.4382 29.8124H6.75122C6.15449 29.8124 5.58225 29.5754 5.16031 29.1534C4.73837 28.7315 4.50133 28.1592 4.50133 27.5625V7.31349C4.50133 6.71676 4.73837 6.14449 5.16031 5.72257C5.58225 5.30065 6.15449 5.06359 6.75122 5.06359H27.0002C27.597 5.06359 28.1692 5.30065 28.5911 5.72257C29.0131 6.14449 29.2501 6.71676 29.2501 7.31349V16.8755C29.2501 17.4722 29.4872 18.0445 29.9091 18.4664C30.331 18.8884 30.9033 19.1254 31.5 19.1254ZM19.1256 9.56338H14.6258C14.0291 9.56338 13.4569 9.8004 13.0349 10.2224C12.613 10.6443 12.3759 11.2165 12.3759 11.8133C12.3759 12.41 12.613 12.9823 13.0349 13.4042C13.4569 13.8261 14.0291 14.0632 14.6258 14.0632H19.1256C19.7223 14.0632 20.2946 13.8261 20.7165 13.4042C21.1385 12.9823 21.3755 12.41 21.3755 11.8133C21.3755 11.2165 21.1385 10.6443 20.7165 10.2224C20.2946 9.8004 19.7223 9.56338 19.1256 9.56338ZM34.6115 23.2325C34.8846 23.3457 35.1328 23.5116 35.3417 23.7208C35.5509 23.9297 35.7168 24.1779 35.8301 24.451C35.9433 24.7242 36.0015 25.0169 36.0015 25.3126C36.0015 25.6082 35.9433 25.901 35.8301 26.1742C35.7168 26.4473 35.5509 26.6955 35.3417 26.9044L32.9962 29.2499L35.3417 31.5954C35.7639 32.0176 36.001 32.5902 36.001 33.1872C36.001 33.7842 35.7639 34.3568 35.3417 34.779C34.9195 35.2012 34.347 35.4384 33.7499 35.4384C33.1529 35.4384 32.5803 35.2012 32.1581 34.779L29.8126 32.4335L27.4671 34.779C27.0449 35.2012 26.4724 35.4384 25.8753 35.4384C25.2782 35.4384 24.7057 35.2012 24.2835 34.779C23.8613 34.3568 23.6242 33.7842 23.6242 33.1872C23.6242 32.5902 23.8613 32.0176 24.2835 31.5954L26.629 29.2499L24.2835 26.9044C23.8613 26.4822 23.6242 25.9096 23.6242 25.3126C23.6242 24.7155 23.8613 24.143 24.2835 23.7208C24.7057 23.2986 25.2782 23.0614 25.8753 23.0614C26.4724 23.0614 27.0449 23.2986 27.4671 23.7208L29.8126 26.0663L32.1581 23.7208C32.3671 23.5116 32.6152 23.3457 32.8883 23.2325C33.1615 23.1193 33.4542 23.0609 33.7499 23.0609C34.0456 23.0609 34.3384 23.1193 34.6115 23.2325Z" fill="currentColor"/>
</svg>
