<svg width="1em" height="1em" viewBox="0 0 37 37" fill="none" xmlns="http://www.w3.org/2000/svg">
<path fill-rule="evenodd" clip-rule="evenodd" d="M13.6867 5.43509C12.6989 6.42286 12.6989 8.02296 13.6867 9.01073C14.6745 9.9985 16.2746 9.9985 17.2623 9.01073L18.1562 8.11682C21.1151 5.15798 25.9243 5.15798 28.8832 8.11682C31.842 11.0757 31.842 15.8849 28.8832 18.8437L27.9893 19.7377C27.0015 20.7254 27.0015 22.3255 27.9893 23.3133C28.977 24.3011 30.5771 24.3011 31.5649 23.3133L32.4588 22.4194C37.3887 17.4895 37.3887 9.47111 32.4588 4.54118C27.5289 -0.388732 19.5105 -0.388732 14.5806 4.54118L13.6867 5.43509ZM23.0728 13.9272C22.085 12.9395 20.4849 12.9395 19.4971 13.9272L13.2397 20.1846C12.252 21.1724 12.252 22.7725 13.2397 23.7602C14.2275 24.748 15.8276 24.748 16.8154 23.7602L23.0728 17.5029C24.0605 16.5151 24.0605 14.915 23.0728 13.9272ZM21.7319 33.1463C16.802 38.0762 8.78362 38.0762 3.85369 33.1463C-1.07623 28.2164 -1.07623 20.198 3.85369 15.2681L4.7476 14.3742C5.73537 13.3864 7.33547 13.3864 8.32324 14.3742C9.31101 15.362 9.31101 16.9621 8.32324 17.9498L7.42933 18.8437C4.47049 21.8026 4.47049 26.6118 7.42933 29.5707C10.3882 32.5295 15.1974 32.5295 18.1562 29.5707L19.0502 28.6768C20.0379 27.689 21.638 27.689 22.6258 28.6768C23.6136 29.6645 23.6136 31.2646 22.6258 32.2524L21.7319 33.1463Z" fill="currentColor"/>
</svg>
