<svg width="1em" height="1em" viewBox="0 0 36 36" fill="none" xmlns="http://www.w3.org/2000/svg">
<path fill-rule="evenodd" clip-rule="evenodd" d="M31.5875 12.2122C32.8149 12.8622 33.8602 13.809 34.6283 14.9663C35.3622 16.0792 35.8174 17.3525 35.9554 18.6785C36.0934 20.0045 35.9101 21.3442 35.421 22.5844L31.6035 32.0971C31.1442 33.2439 30.3519 34.2269 29.3288 34.9193C28.3057 35.6118 27.0987 35.9819 25.8633 35.982H17.9922C17.6775 35.9836 17.366 35.919 17.0778 35.7925C16.7896 35.666 16.5311 35.4805 16.3192 35.2478C16.1072 35.0152 15.9464 34.7407 15.8473 34.442C15.7481 34.1433 15.7127 33.8271 15.7434 33.5139C15.8141 32.9456 16.0929 32.4237 16.5259 32.0489C16.9588 31.6741 17.5152 31.4729 18.0878 31.4843H25.8633C26.1982 31.4813 26.5246 31.3786 26.801 31.1894C27.0774 31.0001 27.2911 30.7329 27.415 30.4217L31.2269 20.9146C31.4729 20.2937 31.5505 19.6188 31.4517 18.9583C31.353 18.2978 31.0815 17.6751 30.6646 17.1533C30.2971 16.7037 29.8325 16.3432 29.3058 16.0988C28.779 15.8544 28.2037 15.7324 27.623 15.7422H22.3719C22.2142 15.7422 22.0587 15.7048 21.9183 15.633C21.7778 15.5612 21.6565 15.457 21.5642 15.329C21.472 15.2011 21.4114 15.0531 21.3876 14.8971C21.3639 14.7412 21.3775 14.5818 21.4274 14.4322L23.4682 8.30401C23.6123 7.8693 23.6512 7.40665 23.5817 6.95401C23.5123 6.50131 23.3364 6.07161 23.0686 5.70009C22.8008 5.32863 22.4488 5.02594 22.0413 4.81693C21.6338 4.60793 21.1825 4.49855 20.7246 4.49779H20.3198L11.9934 16.9903C11.7878 17.2983 11.5094 17.5509 11.1828 17.7254C10.8562 17.9001 10.4915 17.9913 10.1212 17.991H5.0612C4.46476 17.991 3.89276 17.7541 3.47101 17.3323C3.04926 16.9106 2.81233 16.3386 2.81233 15.7422C2.81233 15.1457 3.04926 14.5737 3.47101 14.152C3.89276 13.7302 4.46476 13.4933 5.0612 13.4933H8.91802L17.2445 1.00079C17.45 0.692721 17.7284 0.440183 18.0551 0.265601C18.3817 0.091019 18.7463 -0.000203461 19.1167 3.78175e-05H20.7134C22.4669 -0.00242429 24.1643 0.618002 25.503 1.75069C26.8416 2.88337 27.7344 4.45468 28.0222 6.18445C28.2156 7.4247 28.0997 8.69352 27.6849 9.87822L27.2295 11.2444H27.6006C28.9895 11.2294 30.36 11.5621 31.5875 12.2122ZM7.55487 33.4625C7.12072 33.6419 6.65543 33.7339 6.18564 33.7332C5.7163 33.7346 5.25122 33.6435 4.81709 33.465C4.38297 33.2865 3.9883 33.0243 3.65567 32.6931L0.659048 29.6964C0.237066 29.2744 0 28.7022 0 28.1054C0 27.5086 0.237066 26.9363 0.659048 26.5143C1.08103 26.0923 1.65335 25.8552 2.25013 25.8552C2.84689 25.8552 3.41922 26.0923 3.84121 26.5143L6.18564 28.8587L11.9034 23.141C12.1124 22.932 12.3604 22.7663 12.6334 22.6532C12.9064 22.5401 13.199 22.4819 13.4945 22.4819C13.79 22.4819 14.0826 22.5401 14.3556 22.6532C14.6286 22.7663 14.8766 22.932 15.0856 23.141C15.2945 23.3499 15.4603 23.5979 15.5733 23.8709C15.6864 24.144 15.7447 24.4365 15.7447 24.732C15.7447 25.0275 15.6864 25.3201 15.5733 25.5931C15.4603 25.8662 15.2945 26.1142 15.0856 26.3231L8.71563 32.6874C8.38347 33.0197 7.98901 33.283 7.55487 33.4625Z" fill="currentColor"/>
</svg>
