<svg width="1em" height="1em" viewBox="0 0 36 36" fill="none" xmlns="http://www.w3.org/2000/svg">
<path d="M5.16721e-06 28.9092C0.00159423 30.7893 0.774004 32.592 2.14765 33.9214C3.52129 35.2509 5.3839 35.9985 7.32653 36H7.49454C8.10147 36.0009 8.70615 35.9287 9.29467 35.7851C11.5988 35.2044 23.5877 31.9639 33.5064 23.4154C34.2912 22.7325 34.9188 21.8974 35.3484 20.9644C35.778 20.0314 36 19.0214 36 18C36 16.9786 35.778 15.9686 35.3484 15.0356C34.9188 14.1026 34.2912 13.2675 33.5064 12.5846C23.5877 4.05937 11.5988 0.778197 9.29467 0.21488C8.70615 0.0713115 8.10147 -0.000866118 7.49454 7.84213e-06H7.32653C6.13558 0.000187415 4.96264 0.281348 3.90927 0.81914C2.8559 1.35693 1.95388 2.13514 1.2813 3.08638C0.608734 4.03761 0.185897 5.13318 0.0494151 6.27822C-0.0870668 7.42326 0.0669206 8.58323 0.49804 9.65769L3.85228 17.9971L0.49804 26.3365C0.167836 27.1565 -0.00107702 28.0291 5.16721e-06 28.9092ZM4.80035 28.9092C4.8009 28.6051 4.85991 28.3038 4.97436 28.0206L8.06458 20.32H17.4012C18.0378 20.32 18.6483 20.0753 19.0984 19.6397C19.5485 19.204 19.8014 18.6132 19.8014 17.9971C19.8014 17.381 19.5485 16.7902 19.0984 16.3545C18.6483 15.9189 18.0378 15.6741 17.4012 15.6741H8.06458L4.97436 7.97355C4.82503 7.60307 4.77134 7.20293 4.81792 6.80783C4.8645 6.41272 5.00996 6.03458 5.24169 5.70618C5.47341 5.37779 5.78441 5.10905 6.14771 4.92328C6.511 4.73751 6.91564 4.64031 7.32653 4.64011H7.49454C7.69696 4.6418 7.89844 4.66715 8.09458 4.7156C10.0927 5.20342 21.1755 8.20004 30.2962 16.0516C30.5752 16.2986 30.7981 16.5992 30.9505 16.9341C31.103 17.2691 31.1817 17.6311 31.1817 17.9971C31.1817 18.3631 31.103 18.7251 30.9505 19.06C30.7981 19.395 30.5752 19.6955 30.2962 19.9426C21.1995 27.8 10.1107 30.7733 8.11858 31.2786C7.92245 31.3271 7.72097 31.3524 7.51854 31.3541H7.35053C7.01677 31.3572 6.68569 31.2962 6.37643 31.1747C6.06716 31.0532 5.78584 30.8736 5.54871 30.6462C5.31159 30.4189 5.12336 30.1484 4.99491 29.8502C4.86646 29.552 4.80033 29.2322 4.80035 28.9092Z" fill="currentColor"/>
</svg>
