<svg width="1em" height="1em" viewBox="0 0 36 36" fill="none" xmlns="http://www.w3.org/2000/svg">
<g clip-path="url(#clip0_179908_427)">
<path fill-rule="evenodd" clip-rule="evenodd" d="M14.4177 17.9245L5.69014 7.14581C5.26554 6.62143 5.06658 5.9498 5.13703 5.27868C5.20748 4.60756 5.54156 3.99192 6.06578 3.56719C6.59001 3.14247 7.26143 2.94345 7.93234 3.01392C8.60326 3.08439 9.21871 3.41858 9.6433 3.94296L17.6929 13.8844L25.7432 3.94296C26.1677 3.41858 26.7833 3.08439 27.4542 3.01392C28.1252 2.94345 28.7967 3.14247 29.321 3.56719C29.8452 3.99192 30.1793 4.60756 30.2498 5.27868C30.3202 5.9498 30.1213 6.62143 29.6967 7.14581L20.9681 17.9248L29.8176 28.8542C30.2422 29.3786 30.4412 30.0502 30.3707 30.7213C30.3002 31.3924 29.9662 32.0081 29.4419 32.4328C28.9177 32.8575 28.2462 33.0566 27.5754 32.9861C26.9045 32.9156 26.289 32.5814 25.8644 32.0571L17.6928 21.965L9.52057 32.0571C9.09594 32.5814 8.48044 32.9156 7.80947 32.9861C7.1385 33.0566 6.46702 32.8575 5.94275 32.4328C5.41848 32.0081 5.08437 31.3924 5.01392 30.7213C4.94346 30.0502 5.14244 29.3786 5.56707 28.8542L14.4177 17.9245Z" fill="currentColor"/>
</g>
<defs>
<clipPath id="clip0_179908_427">
<rect width="25.8333" height="30" fill="white" transform="translate(5 3)"/>
</clipPath>
</defs>
</svg>
