<svg width="1em" height="1em" viewBox="0 0 36 36" fill="none" xmlns="http://www.w3.org/2000/svg">
<path d="M31.3548 26.7903V29.1129C31.3548 29.7289 31.5995 30.3196 32.0351 30.7552C32.4707 31.1908 33.0614 31.4355 33.6774 31.4355C34.2934 31.4355 34.8842 31.1908 35.3197 30.7552C35.7553 30.3196 36 29.7289 36 29.1129V15.7581C36.0001 13.9688 35.6455 12.1973 34.9568 10.5458C34.2682 8.89441 33.259 7.39585 31.9877 6.13677C30.6873 4.85696 28.9349 4.14137 27.1103 4.14516H8.88968C7.06514 4.14137 5.31266 4.85696 4.01226 6.13677C2.74097 7.39585 1.73182 8.89441 1.04315 10.5458C0.354477 12.1973 -7.08359e-05 13.9688 1.06154e-08 15.7581V26.7903C1.06154e-08 28.0223 0.489399 29.2038 1.36054 30.0749C2.23167 30.9461 3.41319 31.4355 4.64516 31.4355H17.4194C18.6513 31.4355 19.8328 30.9461 20.704 30.0749C21.5751 29.2038 22.0645 28.0223 22.0645 26.7903V18.0806H31.3548V26.7903ZM17.4194 26.7903H4.64516V18.0806H17.4194V26.7903ZM4.96452 13.4355C5.37507 11.9233 6.17604 10.5456 7.2871 9.44064C7.71765 9.02564 8.29168 8.7927 8.88968 8.79032H27.1103C27.7103 8.7912 28.2867 9.02425 28.7187 9.44064C29.8298 10.5456 30.6307 11.9233 31.0413 13.4355H4.96452Z" fill="currentColor"/>
</svg>
