<svg width="1em" height="1em" viewBox="0 0 37 36" fill="none" xmlns="http://www.w3.org/2000/svg">
<path fill-rule="evenodd" clip-rule="evenodd" d="M21.8125 31.5H30.25C30.5483 31.5 30.8345 31.3815 31.0455 31.1705C31.2565 30.9595 31.375 30.6733 31.375 30.375V10.4962L25.3787 4.5H12.25C11.9516 4.5 11.6655 4.61853 11.4545 4.82951C11.2435 5.04048 11.125 5.32663 11.125 5.625V12.375C11.125 12.9718 10.888 13.544 10.466 13.966C10.044 14.388 9.47176 14.625 8.875 14.625C8.27824 14.625 7.70596 14.388 7.28402 13.966C6.86204 13.544 6.625 12.9718 6.625 12.375V5.625C6.625 4.13316 7.21765 2.70242 8.27251 1.64752C9.32742 0.592633 10.7581 1.38978e-06 12.25 1.38978e-06H25.3787C25.9699 -0.000463169 26.5553 0.115541 27.1016 0.341387C27.6479 0.567236 28.1443 0.898498 28.5625 1.31625L34.5587 7.3125C34.978 7.72959 35.3102 8.22583 35.5362 8.77236C35.7622 9.31888 35.8773 9.90484 35.875 10.4962V30.375C35.875 31.8669 35.2823 33.2976 34.2275 34.3525C33.1726 35.4073 31.7419 36 30.25 36H21.8125C21.2157 36 20.6435 35.763 20.2215 35.341C19.7995 34.919 19.5625 34.3468 19.5625 33.75C19.5625 33.1532 19.7995 32.581 20.2215 32.159C20.6435 31.737 21.2157 31.5 21.8125 31.5ZM2.6916 35.9296C2.40537 35.8563 2.13639 35.7273 1.90001 35.55C1.66363 35.3727 1.46448 35.1506 1.31394 34.8964C1.1634 34.6421 1.06441 34.3607 1.02262 34.0682C0.980836 33.7757 0.997072 33.4778 1.0704 33.1916C1.14374 32.9053 1.27272 32.6364 1.45001 32.4L5.50001 27L1.45001 21.6C1.09197 21.1226 0.938232 20.5225 1.02262 19.9318C1.10701 19.3411 1.42262 18.808 1.90001 18.45C2.3774 18.092 2.97747 17.9382 3.56821 18.0226C4.15895 18.107 4.69197 18.4226 5.05001 18.9L8.3125 23.2481L11.575 18.9C11.933 18.4226 12.4661 18.107 13.0568 18.0226C13.6475 17.9382 14.2476 18.092 14.725 18.45C15.2024 18.808 15.518 19.3411 15.6024 19.9318C15.6868 20.5225 15.533 21.1226 15.175 21.6L11.125 27L15.175 32.4C15.3523 32.6364 15.4813 32.9053 15.5546 33.1916C15.6279 33.4778 15.6442 33.7757 15.6024 34.0682C15.5606 34.3607 15.4616 34.6421 15.3111 34.8964C15.1605 35.1506 14.9614 35.3727 14.725 35.55C14.4886 35.7273 14.2196 35.8563 13.9334 35.9296C13.6472 36.0029 13.3493 36.0192 13.0568 35.9774C12.7643 35.9356 12.4829 35.8366 12.2286 35.6861C11.9744 35.5355 11.7523 35.3364 11.575 35.1L8.3125 30.7519L5.05001 35.1C4.87273 35.3364 4.65062 35.5355 4.39637 35.6861C4.14212 35.8366 3.86071 35.9356 3.56821 35.9774C3.2757 36.0192 2.97783 36.0029 2.6916 35.9296Z" fill="currentColor"/>
</svg>
