<svg width="1em" height="1em" viewBox="0 0 36 36" fill="none" xmlns="http://www.w3.org/2000/svg">
<path fill-rule="evenodd" clip-rule="evenodd" d="M32.4884 2.11219C33.8394 3.46322 34.599 5.29519 34.6005 7.20584V27.7329C34.6049 28.6237 34.4329 29.5065 34.0942 30.3304C33.7556 31.1542 33.2572 31.9029 32.6276 32.5331L30.8683 34.2868C29.7711 35.3837 28.283 36 26.7314 36C25.1799 36 23.6918 35.3837 22.5945 34.2868L22.5159 34.2081L22.4372 34.2868C21.3399 35.3837 19.8518 36 18.3003 36C16.7487 36 15.2606 35.3837 14.1634 34.2868L14.0847 34.2081L14.006 34.2868C12.9087 35.3837 11.4207 36 9.8691 36C8.31752 36 6.82948 35.3837 5.7322 34.2868L3.9729 32.505C3.34673 31.8781 2.85021 31.134 2.5117 30.3152C2.17318 29.4964 1.99931 28.619 2 27.7329V7.20584C2.00149 5.29519 2.76115 3.46322 4.11219 2.11219C5.46322 0.761151 7.29519 0.00148863 9.20584 0H27.3947C29.3053 0.00148863 31.1373 0.761151 32.4884 2.11219ZM29.9333 28.5937C30.0462 28.3208 30.1041 28.0283 30.1039 27.7329V7.20584C30.1039 6.48731 29.8185 5.79821 29.3104 5.29014C28.8023 4.78206 28.1132 4.49662 27.3947 4.49662H9.20584C8.48732 4.49662 7.79822 4.78206 7.29014 5.29014C6.78206 5.79821 6.49663 6.48731 6.49663 7.20584V27.7329C6.4964 28.0283 6.55435 28.3208 6.66719 28.5937C6.78003 28.8666 6.94554 29.1147 7.15426 29.3236L8.90794 31.0773C9.03385 31.2041 9.18359 31.3047 9.34855 31.3734C9.51351 31.442 9.69042 31.4774 9.8691 31.4774C10.0478 31.4774 10.2247 31.442 10.3896 31.3734C10.5546 31.3047 10.7043 31.2041 10.8302 31.0773L12.6458 29.2618C12.8347 29.0728 13.059 28.9229 13.3059 28.8206C13.5528 28.7183 13.8174 28.6657 14.0847 28.6657C14.3519 28.6657 14.6165 28.7183 14.8634 28.8206C15.1103 28.9229 15.3347 29.0728 15.5236 29.2618L17.3391 31.0773C17.465 31.2041 17.6148 31.3047 17.7797 31.3734C17.9447 31.442 18.1216 31.4774 18.3003 31.4774C18.4789 31.4774 18.6559 31.442 18.8208 31.3734C18.9858 31.3047 19.1355 31.2041 19.2614 31.0773L21.0769 29.2618C21.2659 29.0728 21.4902 28.9229 21.7371 28.8206C21.984 28.7183 22.2486 28.6657 22.5159 28.6657C22.7831 28.6657 23.0477 28.7183 23.2946 28.8206C23.5415 28.9229 23.7658 29.0728 23.9548 29.2618L25.7703 31.0773C25.8962 31.2041 26.0459 31.3047 26.2109 31.3734C26.3759 31.442 26.5528 31.4774 26.7314 31.4774C26.9101 31.4774 27.087 31.442 27.252 31.3734C27.4169 31.3047 27.5667 31.2041 27.6926 31.0773L29.4463 29.3236C29.655 29.1147 29.8205 28.8666 29.9333 28.5937ZM23.921 10.1174H12.6795C12.0832 10.1174 11.5113 10.3543 11.0897 10.7759C10.668 11.1976 10.4312 11.7694 10.4312 12.3657C10.4312 12.962 10.668 13.5339 11.0897 13.9555C11.5113 14.3772 12.0832 14.614 12.6795 14.614H23.921C24.5173 14.614 25.0892 14.3772 25.5108 13.9555C25.9325 13.5339 26.1694 12.962 26.1694 12.3657C26.1694 11.7694 25.9325 11.1976 25.5108 10.7759C25.0892 10.3543 24.5173 10.1174 23.921 10.1174ZM23.921 19.1107H12.6795C12.0832 19.1107 11.5113 19.3475 11.0897 19.7692C10.668 20.1908 10.4312 20.7627 10.4312 21.359C10.4312 21.9553 10.668 22.5271 11.0897 22.9488C11.5113 23.3704 12.0832 23.6073 12.6795 23.6073H23.921C24.5173 23.6073 25.0892 23.3704 25.5108 22.9488C25.9325 22.5271 26.1694 21.9553 26.1694 21.359C26.1694 20.7627 25.9325 20.1908 25.5108 19.7692C25.0892 19.3475 24.5173 19.1107 23.921 19.1107Z" fill="currentColor"/>
</svg>
