<svg width="1em" height="1em" viewBox="0 0 36 36" fill="none" xmlns="http://www.w3.org/2000/svg">
<path fill-rule="evenodd" clip-rule="evenodd" d="M35.9888 20.925C35.9888 19.0013 35.9888 17.6175 35.8987 16.4925C35.8031 15.3056 35.6118 14.5069 35.2574 13.8094C34.6048 12.5325 33.5865 11.5087 32.3094 10.8619C31.6118 10.5075 30.8129 10.3162 29.6259 10.215C28.5007 10.125 27.1111 10.125 25.1927 10.125H24.7426V4.62937C24.7426 2.07562 22.6667 0 20.1125 0C19.7637 0 19.4149 0.039375 19.0774 0.118124L8.37694 2.57625C6.85795 2.925 5.7609 3.17812 4.87201 3.45375C3.93812 3.74062 3.30802 4.03312 2.77356 4.42125C1.78903 5.13562 1.01828 6.10875 0.540084 7.22813C0.281294 7.84125 0.140646 8.51625 0.0675101 9.48938C0.00562492 10.3781 0 11.3906 0 13.1006V28.8C0 30.2062 4.19161e-09 31.0387 0.0618837 31.7531C0.123769 32.5406 0.253164 33.075 0.489451 33.5363C0.922645 34.3913 1.60338 35.0719 2.45851 35.5106C2.91983 35.7469 3.45429 35.8706 4.24191 35.9381C4.9564 35.9944 5.78903 36 7.1955 36H28.7989C30.2053 36 31.038 36 31.7525 35.9381C32.5401 35.8763 33.0745 35.7469 33.5415 35.5106C34.391 35.0775 35.0717 34.3969 35.5106 33.5419C35.7468 33.0806 35.8706 32.5462 35.9381 31.7587C35.9944 31.0444 36 30.2119 36 28.8056V20.9306L35.9888 20.925ZM20.2363 31.5H7.18425C5.92968 31.5 5.13643 31.5 4.59634 31.455H4.53446V31.3931C4.48945 30.8531 4.48945 30.06 4.48945 28.8056V13.1062C4.48945 11.5425 4.48945 10.5525 4.54571 9.82125C4.58906 9.23062 4.65331 9.04191 4.66802 8.99871L4.66948 8.99438C4.827 8.62313 5.0858 8.29688 5.41772 8.06063L5.42169 8.05821C5.45937 8.0352 5.63207 7.92979 6.19409 7.75688C6.90532 7.53806 7.95167 7.29799 9.27111 6.99525L9.38397 6.96938L20.1125 4.51125C20.1857 4.51125 20.2419 4.5675 20.2419 4.64062V31.5112L20.2363 31.5ZM31.488 28.8C31.488 30.0544 31.488 30.8475 31.443 31.3875V31.4494H31.3812C30.8411 31.4944 30.048 31.4944 28.7936 31.4944H24.7426V14.6194H25.1927C27.0098 14.6194 28.3207 14.6194 29.2602 14.6981C30.0534 14.7656 30.256 14.8612 30.2672 14.8669C30.6892 15.0806 31.038 15.4294 31.2518 15.8512C31.2518 15.8518 31.2525 15.8537 31.254 15.8574C31.2691 15.8965 31.3589 16.1286 31.4205 16.8581C31.4993 17.7975 31.4993 19.1081 31.4993 20.925V28.8H31.488ZM13.4852 12.375H11.2349C9.99156 12.375 8.98453 13.3819 8.98453 14.625C8.98453 15.8681 9.99156 16.875 11.2349 16.875H13.4852C14.7286 16.875 15.7356 15.8681 15.7356 14.625C15.7356 13.3819 14.7286 12.375 13.4852 12.375ZM11.2349 21.375H13.4852C14.7286 21.375 15.7356 22.3819 15.7356 23.625C15.7356 24.8681 14.7286 25.875 13.4852 25.875H11.2349C9.99156 25.875 8.98453 24.8681 8.98453 23.625C8.98453 22.3819 9.99156 21.375 11.2349 21.375Z" fill="currentColor"/>
</svg>
