<svg width="1em" height="1em" viewBox="0 0 36 36" fill="none" xmlns="http://www.w3.org/2000/svg">
<path fill-rule="evenodd" clip-rule="evenodd" d="M8.74481 6.0625C8.66528 6.0625 8.58619 6.06671 8.50784 6.07501H2.25C1.00736 6.07501 0 7.08237 0 8.32501C0 9.56765 1.00736 10.575 2.25 10.575H16.9838C17.5214 12.2271 18.6296 13.634 20.1102 14.5434C21.5946 15.4552 23.3557 15.8071 25.0764 15.5357C26.7971 15.2644 28.3645 14.3877 29.4963 13.0635C30.125 12.3279 30.5964 11.4811 30.8912 10.575H33.25C34.4926 10.575 35.5 9.56765 35.5 8.32501C35.5 7.08237 34.4926 6.07501 33.25 6.07501H30.8993C30.605 5.15949 30.1308 4.30384 29.4963 3.56149C28.3645 2.23725 26.7971 1.36056 25.0764 1.08925C23.3557 0.817939 21.5946 1.16983 20.1102 2.08158C18.6259 2.99332 17.5158 4.40502 16.9798 6.0625H8.74481ZM26.2708 9.87504C26.5798 9.41253 26.7448 8.86876 26.7448 8.3125C26.7448 7.56658 26.4484 6.85121 25.921 6.32377C25.3936 5.79632 24.6782 5.50001 23.9323 5.50001C23.376 5.50001 22.8322 5.66496 22.3697 5.974C21.9072 6.28304 21.5467 6.72229 21.3339 7.2362C21.121 7.75012 21.0653 8.31562 21.1738 8.86119C21.2823 9.40676 21.5502 9.9079 21.9435 10.3012C22.3369 10.6946 22.838 10.9624 23.3836 11.071C23.9292 11.1795 24.4946 11.1238 25.0086 10.9109C25.5225 10.698 25.9617 10.3376 26.2708 9.87504ZM27.2552 29.1875C27.3347 29.1875 27.4138 29.1833 27.4922 29.175H33.75C34.9926 29.175 36 28.1676 36 26.925C36 25.6823 34.9926 24.675 33.75 24.675H19.0162C18.4786 23.0229 17.3704 21.616 15.8898 20.7066C14.4054 19.7948 12.6443 19.4429 10.9236 19.7143C9.20285 19.9856 7.63549 20.8623 6.50369 22.1865C5.875 22.9221 5.40365 23.7689 5.10883 24.675H2.75C1.50736 24.675 0.5 25.6823 0.5 26.925C0.5 28.1676 1.50736 29.175 2.75 29.175H5.10073C5.39499 30.0905 5.86922 30.9462 6.50369 31.6885C7.63549 33.0127 9.20285 33.8894 10.9236 34.1607C12.6443 34.4321 14.4054 34.0802 15.8898 33.1684C17.3741 32.2567 18.4842 30.845 19.0202 29.1875H27.2552ZM9.7292 25.375C9.42019 25.8375 9.25524 26.3812 9.25524 26.9375C9.25524 27.6834 9.5516 28.3988 10.079 28.9262C10.6064 29.4537 11.3218 29.75 12.0677 29.75C12.624 29.75 13.1678 29.585 13.6303 29.276C14.0928 28.967 14.4533 28.5277 14.6661 28.0138C14.879 27.4999 14.9347 26.9344 14.8262 26.3888C14.7177 25.8432 14.4498 25.3421 14.0565 24.9488C13.6631 24.5554 13.162 24.2876 12.6164 24.179C12.0708 24.0705 11.5054 24.1262 10.9914 24.3391C10.4775 24.552 10.0383 24.9124 9.7292 25.375Z" fill="currentColor"/>
</svg>
