<svg width="1em" height="1em" viewBox="0 0 14 14" fill="none" xmlns="http://www.w3.org/2000/svg">
<path fill-rule="evenodd" clip-rule="evenodd" d="M11.8122 3.50015H11.3747V2.18767C11.3747 1.60751 11.1442 1.05112 10.7339 0.640894C10.3236 0.230664 9.76709 0.000199134 9.18686 0.000199134H2.70003C2.03745 -0.00788037 1.39544 0.230152 0.898308 0.668205C0.40118 1.10626 0.0843058 1.71317 0.00904338 2.37141V2.59016V2.6186V6.12511C0.00904338 6.35717 0.101243 6.57973 0.26536 6.74382C0.429477 6.90791 0.652066 7.0001 0.884162 7.0001C1.11626 7.0001 1.33885 6.90791 1.50297 6.74382C1.66708 6.57973 1.75928 6.35717 1.75928 6.12511V5.097C2.04009 5.19767 2.33609 5.24946 2.6344 5.25012H11.8122C11.9283 5.25012 12.0396 5.29622 12.1216 5.37826C12.2037 5.46031 12.2498 5.57159 12.2498 5.68762V11.8125C12.2498 11.9286 12.2037 12.0398 12.1216 12.1219C12.0396 12.2039 11.9283 12.25 11.8122 12.25H8.34893C8.12613 12.2456 7.9096 12.3239 7.74112 12.4697C7.57264 12.6155 7.46416 12.8186 7.43662 13.0397C7.42467 13.1616 7.43845 13.2846 7.47705 13.4008C7.51565 13.517 7.57821 13.6238 7.6607 13.7143C7.74318 13.8048 7.84375 13.877 7.95589 13.9262C8.06804 13.9755 8.18927 14.0006 8.31174 14H11.8122C12.0995 14 12.384 13.9434 12.6494 13.8335C12.9149 13.7236 13.1561 13.5624 13.3592 13.3593C13.5624 13.1562 13.7235 12.915 13.8335 12.6496C13.9434 12.3842 14 12.0998 14 11.8125V5.68762C14 5.40035 13.9434 5.1159 13.8335 4.85051C13.7235 4.58511 13.5624 4.34397 13.3592 4.14084C13.1561 3.93772 12.9149 3.77659 12.6494 3.66666C12.384 3.55673 12.0995 3.50015 11.8122 3.50015ZM9.62441 3.50015H2.66284C2.44 3.50517 2.22321 3.42746 2.05432 3.28202C1.88543 3.13659 1.77642 2.93375 1.74834 2.71266C1.73607 2.59062 1.7496 2.46736 1.78806 2.35089C1.82651 2.23442 1.88902 2.12733 1.97154 2.03657C2.05406 1.94581 2.15474 1.87342 2.26705 1.82408C2.37936 1.77474 2.50079 1.74956 2.62346 1.75017H9.18686C9.3029 1.75017 9.4142 1.79627 9.49626 1.87831C9.57831 1.96036 9.62441 2.07164 9.62441 2.18767V3.50015ZM4.51809 7.94946C4.18988 7.62153 3.74488 7.43731 3.28089 7.43731C2.81689 7.43731 2.37189 7.62153 2.04369 7.94946L0.512228 9.48069C0.184242 9.80884 0 10.2538 0 10.7177C0 11.1816 0.184242 11.6266 0.512228 11.9547L2.04369 13.4859C2.37189 13.8139 2.81689 13.9981 3.28089 13.9981C3.74488 13.9981 4.18988 13.8139 4.51809 13.4859L6.04954 11.9547C6.37753 11.6266 6.56177 11.1816 6.56177 10.7177C6.56177 10.2538 6.37753 9.80884 6.04954 9.48069L4.51809 7.94946ZM3.27979 12.25L1.74833 10.7188L3.27979 9.18757L4.81125 10.7188L3.27979 12.25ZM10.9371 8.75007C10.9371 9.23332 10.5453 9.62506 10.062 9.62506C9.57864 9.62506 9.18684 9.23332 9.18684 8.75007C9.18684 8.26683 9.57864 7.87509 10.062 7.87509C10.5453 7.87509 10.9371 8.26683 10.9371 8.75007Z" fill="currentColor"/>
</svg>
