<svg width="1em" height="1em" viewBox="0 0 36 33" fill="none" xmlns="http://www.w3.org/2000/svg">
<path fill-rule="evenodd" clip-rule="evenodd" d="M22.0645 3.05176e-05H13.9355C13.0115 3.05176e-05 12.1254 0.36708 11.472 1.02043C10.8187 1.67378 10.4516 2.55992 10.4516 3.4839V16.2581H3.48387C2.55989 16.2581 1.67375 16.6251 1.0204 17.2785C0.367049 17.9318 0 18.818 0 19.742V29.0323C0 29.9563 0.367049 30.8424 1.0204 31.4958C1.67375 32.1491 2.55989 32.5162 3.48387 32.5162H32.5161C33.4401 32.5162 34.3262 32.1491 34.9796 31.4958C35.6329 30.8424 36 29.9563 36 29.0323V12.7742C36 11.8502 35.6329 10.9641 34.9796 10.3108C34.3262 9.6574 33.4401 9.29035 32.5161 9.29035H25.5484V3.4839C25.5484 2.55992 25.1813 1.67378 24.528 1.02043C23.8746 0.36708 22.9885 3.05176e-05 22.0645 3.05176e-05ZM10.4516 27.871H4.64516V20.9033H10.4516V27.871ZM20.9032 9.29035V27.871H15.0968V4.64519H20.9032V9.29035ZM31.3548 13.9355V27.871H25.5484V13.9355H31.3548Z" fill="currentColor"/>
</svg>
