<svg width="1em" height="1em" viewBox="0 0 36 36" fill="none" xmlns="http://www.w3.org/2000/svg">
<path d="M29.25 0H6.75C4.95979 0 3.2429 0.711159 1.97703 1.97703C0.711159 3.2429 0 4.95979 0 6.75V29.25C0 31.0402 0.711159 32.7571 1.97703 34.023C3.2429 35.2888 4.95979 36 6.75 36H29.25C31.0402 36 32.7571 35.2888 34.023 34.023C35.2888 32.7571 36 31.0402 36 29.25V6.75C36 4.95979 35.2888 3.2429 34.023 1.97703C32.7571 0.711159 31.0402 0 29.25 0ZM15.75 31.5H6.75C6.15326 31.5 5.58097 31.2629 5.15901 30.841C4.73705 30.419 4.5 29.8467 4.5 29.25V6.75C4.5 6.15326 4.73705 5.58097 5.15901 5.15901C5.58097 4.73705 6.15326 4.5 6.75 4.5H15.75V31.5ZM31.5 29.25C31.5 29.8467 31.2629 30.419 30.841 30.841C30.419 31.2629 29.8467 31.5 29.25 31.5H20.25V20.25H31.5V29.25ZM31.5 15.75H20.25V4.5H29.25C29.8467 4.5 30.419 4.73705 30.841 5.15901C31.2629 5.58097 31.5 6.15326 31.5 6.75V15.75Z" fill="currentColor"/>
</svg>
