<svg width="1em" height="1em" viewBox="0 0 37 36" fill="none" xmlns="http://www.w3.org/2000/svg">
<path fill-rule="evenodd" clip-rule="evenodd" d="M12.9311 0.416293C13.3786 0.695381 13.7369 1.0968 13.9635 1.57306C14.1896 2.04225 14.2784 2.56584 14.2197 3.08336C14.161 3.60088 13.9571 4.09126 13.6316 4.49787L8.24322 11.2474H12.5629C13.1597 11.2474 13.7319 11.4845 14.1538 11.9064C14.5758 12.3283 14.8128 12.9006 14.8128 13.4973C14.8128 14.094 14.5758 14.6663 14.1538 15.0882C13.7319 15.5101 13.1597 15.7471 12.5629 15.7471H4.68845C4.1656 15.7494 3.65271 15.6042 3.20871 15.3281C2.76472 15.0519 2.40765 14.6562 2.17854 14.1862C1.94942 13.7162 1.85756 13.1911 1.91351 12.6713C1.96947 12.1514 2.17096 11.6579 2.49483 11.2474L7.88324 4.49787H3.56352C2.96682 4.49787 2.39456 4.26083 1.97263 3.8389C1.5507 3.41697 1.31366 2.84471 1.31366 2.24801C1.31366 1.65131 1.5507 1.07906 1.97263 0.657117C2.39456 0.235193 2.96682 -0.00184762 3.56352 -0.00184762H11.438C11.9654 -0.00789829 12.4835 0.137198 12.9311 0.416293ZM11.4718 20.2469C12.4679 20.8435 13.6067 21.1602 14.7678 21.1637C15.6339 21.1659 16.492 20.9974 17.293 20.6678C18.0941 20.3382 18.8223 19.854 19.436 19.2429C20.0498 18.6317 20.5371 17.9055 20.8702 17.106C21.2031 16.3064 21.3753 15.449 21.3768 14.5828C21.3673 13.4177 21.0427 12.2769 20.4374 11.2812C19.9665 10.4757 19.7576 9.54367 19.8397 8.61419C19.9218 7.68467 20.2908 6.80373 20.8956 6.09323C21.5005 5.3827 22.3113 4.8778 23.2157 4.64842C24.1202 4.41902 25.0736 4.47648 25.944 4.81284C28.4375 5.79445 30.6476 7.38099 32.3752 9.42949C34.1029 11.478 35.2938 13.9241 35.8406 16.5474C36.3875 19.1708 36.2732 21.889 35.5079 24.4572C34.7427 27.0253 33.3505 29.3628 31.4569 31.259C29.5633 33.1551 27.2277 34.5504 24.6606 35.3191C22.0935 36.0878 19.3754 36.2058 16.7513 35.6624C14.1272 35.1191 11.6795 33.9315 9.62868 32.2066C7.57788 30.4817 5.98839 28.2737 5.00342 25.7815C4.65774 24.9097 4.59311 23.9516 4.81856 23.0413C5.04401 22.1309 5.54829 21.3137 6.26089 20.704C6.97351 20.0943 7.85878 19.7224 8.79309 19.6405C9.72734 19.5585 10.6639 19.7705 11.4718 20.2469ZM24.2903 8.99757C25.3025 10.6836 25.8427 12.6108 25.854 14.5772C25.851 17.5165 24.682 20.3346 22.6036 22.413C20.5252 24.4914 17.7071 25.6604 14.7678 25.6634C12.8013 25.6521 10.8741 25.112 9.18816 24.0997C9.89417 25.902 11.0379 27.5001 12.5163 28.7496C13.9945 29.9991 15.7608 30.8608 17.6554 31.2568C19.5502 31.6527 21.5137 31.5706 23.3686 31.0177C25.2236 30.4647 26.9116 29.4585 28.2803 28.0898C29.649 26.721 30.6553 25.033 31.2082 23.178C31.7611 21.3231 31.8433 19.3596 31.4474 17.4649C31.0514 15.5702 30.1897 13.8039 28.9402 12.3257C27.6907 10.8473 26.0926 9.70358 24.2903 8.99757Z" fill="currentColor"/>
</svg>
