<svg width="1em" height="1em" viewBox="0 0 36 36" fill="none" xmlns="http://www.w3.org/2000/svg">
<path fill-rule="evenodd" clip-rule="evenodd" d="M6.75 33.75H14.625C15.2218 33.75 15.794 33.513 16.216 33.091C16.638 32.669 16.875 32.0968 16.875 31.5C16.875 30.9032 16.638 30.331 16.216 29.909C15.794 29.487 15.2218 29.25 14.625 29.25H6.75C6.15324 29.25 5.58097 29.013 5.15901 28.591C4.73705 28.169 4.5 27.5968 4.5 27V6.75C4.5 6.15324 4.73705 5.58095 5.15901 5.15901C5.58097 4.73707 6.15324 4.5 6.75 4.5H27C27.5968 4.5 28.169 4.73707 28.591 5.15901C29.013 5.58095 29.25 6.15324 29.25 6.75V14.625C29.25 15.2218 29.487 15.794 29.909 16.216C30.331 16.638 30.9032 16.875 31.5 16.875C32.0968 16.875 32.669 16.638 33.091 16.216C33.513 15.794 33.75 15.2218 33.75 14.625V6.75C33.75 4.95978 33.0388 3.24289 31.773 1.97702C30.5071 0.711157 28.7902 0 27 0H6.75C4.95979 0 3.2429 0.711157 1.97703 1.97702C0.711158 3.24289 0 4.95978 0 6.75V27C0 28.7902 0.711158 30.5071 1.97703 31.773C3.2429 33.0388 4.95979 33.75 6.75 33.75ZM19.125 9H14.625C14.0282 9 13.456 9.23704 13.034 9.65903C12.612 10.081 12.375 10.6532 12.375 11.25C12.375 11.8468 12.612 12.419 13.034 12.841C13.456 13.263 14.0282 13.5 14.625 13.5H19.125C19.7218 13.5 20.294 13.263 20.716 12.841C21.138 12.419 21.375 11.8468 21.375 11.25C21.375 10.6532 21.138 10.081 20.716 9.65903C20.294 9.23704 19.7218 9 19.125 9ZM29.716 35.341C29.294 35.763 28.7218 36 28.125 36C27.5282 36 26.956 35.763 26.534 35.341C26.112 34.919 25.875 34.3468 25.875 33.75V30.375H22.5C21.9032 30.375 21.331 30.138 20.909 29.716C20.487 29.294 20.25 28.7218 20.25 28.125C20.25 27.5282 20.487 26.956 20.909 26.534C21.331 26.112 21.9032 25.875 22.5 25.875H25.875V22.5C25.875 21.9032 26.112 21.331 26.534 20.909C26.956 20.487 27.5282 20.25 28.125 20.25C28.7218 20.25 29.294 20.487 29.716 20.909C30.138 21.331 30.375 21.9032 30.375 22.5V25.875H33.75C34.3468 25.875 34.919 26.112 35.341 26.534C35.763 26.956 36 27.5282 36 28.125C36 28.7218 35.763 29.294 35.341 29.716C34.919 30.138 34.3468 30.375 33.75 30.375H30.375V33.75C30.375 34.3468 30.138 34.919 29.716 35.341Z" fill="currentColor"/>
</svg>
