<svg width="1em" height="1em" viewBox="0 0 36 36" fill="none" xmlns="http://www.w3.org/2000/svg">
<path fill-rule="evenodd" clip-rule="evenodd" d="M8.23483 33.6937C8.96501 34.4265 9.833 35.0075 10.7887 35.4033C11.7445 35.7991 12.7691 36.0019 13.8036 36H22.1961C23.2305 36.0019 24.2552 35.7991 25.2109 35.4033C26.1666 35.0075 27.0346 34.4265 27.7648 33.6937L33.6936 27.765C34.4263 27.0348 35.0073 26.1668 35.4031 25.2111C35.7989 24.2553 36.0017 23.2307 35.9998 22.1963V13.8038C36.0017 12.7693 35.7989 11.7447 35.4031 10.7889C35.0073 9.83319 34.4263 8.96519 33.6936 8.23501L27.7648 2.30626C27.0346 1.57349 26.1666 0.992489 25.2109 0.596657C24.2552 0.200882 23.2305 -0.0018959 22.1961 1.52588e-05H13.8036C12.7691 -0.0018959 11.7445 0.200882 10.7887 0.596657C9.833 0.992489 8.96501 1.57349 8.23483 2.30626L2.30608 8.23501C1.57331 8.96519 0.992306 9.83319 0.596474 10.7889C0.200699 11.7447 -0.00207901 12.7693 -0.000167847 13.8038V22.1963C-0.00207901 23.2307 0.200699 24.2553 0.596474 25.2111C0.992306 26.1668 1.57331 27.0348 2.30608 27.765L8.23483 33.6937ZM4.49983 13.8038C4.50062 12.9089 4.85668 12.0511 5.48983 11.4188L11.4186 5.49001C12.0509 4.85686 12.9088 4.5008 13.8036 4.50001L22.1961 4.50001C23.0908 4.5008 23.9487 4.85686 24.5811 5.49001L30.5098 11.4188C31.1429 12.0511 31.499 12.9089 31.4998 13.8038L31.4998 22.1963C31.499 23.091 31.1429 23.9489 30.5098 24.5813L24.5811 30.51C23.9487 31.1431 23.0908 31.4992 22.1961 31.5L13.8036 31.5C12.9088 31.4992 12.0509 31.1431 11.4186 30.51L5.48983 24.5813C4.85668 23.9489 4.50062 23.091 4.49983 22.1963L4.49983 13.8038ZM17.9998 27C18.5966 27 19.1689 26.7629 19.5908 26.341C20.0128 25.919 20.2498 25.3467 20.2498 24.75V19.125C20.2498 18.5283 20.0128 17.956 19.5908 17.534C19.1689 17.112 18.5966 16.875 17.9998 16.875C17.4031 16.875 16.8308 17.112 16.4088 17.534C15.9869 17.956 15.7498 18.5283 15.7498 19.125L15.7498 24.75C15.7498 25.3467 15.9869 25.919 16.4088 26.341C16.8308 26.7629 17.4031 27 17.9998 27ZM15.7498 11.25C15.7498 10.0073 16.7572 9.00001 17.9998 9.00001C19.2424 9.00001 20.2498 10.0073 20.2498 11.25C20.2498 12.4926 19.2424 13.5 17.9998 13.5C16.7572 13.5 15.7498 12.4926 15.7498 11.25Z" fill="currentColor"/>
</svg>
