<svg width="1em" height="1em" viewBox="0 0 36 36" fill="none" xmlns="http://www.w3.org/2000/svg">
<path fill-rule="evenodd" clip-rule="evenodd" d="M22.59 1.41766L32.4449 8.13388C33.5414 8.88133 34.4386 9.88555 35.0582 11.0591C35.6779 12.2326 36.0011 13.5399 35.9999 14.867V29.25C35.9999 31.0402 35.2887 32.7571 34.0228 34.023C32.757 35.2888 31.0401 36 29.2499 36H6.75002C4.9598 36 3.24292 35.2888 1.97705 34.023C0.711194 32.7571 3.66759e-05 31.0402 3.66759e-05 29.25V14.8838C-0.00395535 13.5539 0.317998 12.2433 0.937734 11.0666C1.55747 9.88988 2.4561 8.88296 3.55502 8.13388L13.41 1.41766C14.7625 0.494079 16.3621 0 18 0C19.6377 0 21.2374 0.494079 22.59 1.41766ZM30.8409 30.841C31.2628 30.4191 31.4999 29.8468 31.4999 29.25V14.867C31.4999 14.2728 31.355 13.6876 31.0775 13.1622C30.8002 12.6368 30.3987 12.1871 29.908 11.852L20.0531 5.13577C19.4485 4.72172 18.7327 4.50016 18 4.50016C17.2672 4.50016 16.5515 4.72172 15.9469 5.13577L6.0919 11.852C5.60123 12.1871 5.19977 12.6368 4.92236 13.1622C4.64495 13.6876 4.49997 14.2728 4.50001 14.867V29.25C4.50001 29.8468 4.73707 30.4191 5.15902 30.841C5.58098 31.263 6.15327 31.5 6.75002 31.5H29.2499C29.8466 31.5 30.419 31.263 30.8409 30.841ZM12.375 22.5H23.6249C24.2216 22.5 24.7939 22.7371 25.2159 23.159C25.6378 23.581 25.8749 24.1533 25.8749 24.75C25.8749 25.3468 25.6378 25.919 25.2159 26.341C24.7939 26.763 24.2216 27 23.6249 27H12.375C11.7782 27 11.206 26.763 10.784 26.341C10.362 25.919 10.125 25.3468 10.125 24.75C10.125 24.1533 10.362 23.581 10.784 23.159C11.206 22.7371 11.7782 22.5 12.375 22.5Z" fill="currentColor"/>
</svg>
