<svg width="1em" height="1em" viewBox="0 0 37 36" fill="none" xmlns="http://www.w3.org/2000/svg">
<path fill-rule="evenodd" clip-rule="evenodd" d="M12.7745 0.961876C14.642 0.326251 16.5938 0.00562513 18.5625 0.00562513V0C28.4907 0 36.5625 8.0775 36.5625 18C36.5625 27.9225 28.4907 36 18.5625 36C16.5882 36 14.642 35.6794 12.7745 35.0438C11.5988 34.6388 10.9688 33.3619 11.3681 32.1862C11.7731 31.0106 13.05 30.3806 14.2256 30.78C15.6262 31.2581 17.0831 31.5 18.5625 31.5C26.0044 31.5 32.0625 25.4419 32.0625 18C32.0625 10.5581 26.0044 4.5 18.5625 4.5C17.0887 4.5 15.6262 4.74188 14.2256 5.22C13.0444 5.61938 11.7675 4.98938 11.3681 3.81375C10.9688 2.63813 11.5988 1.36125 12.7745 0.961876ZM12.735 9.46694C13.5562 8.23506 15.2326 8.11694 16.2169 9.10131V9.09569L20.6493 13.5282C22.3649 15.2494 22.9951 17.8538 22.0837 20.2726C21.7575 21.1444 21.2175 21.9094 20.5593 22.5676L16.2169 26.9101C15.2438 27.8832 13.6012 27.7819 12.7744 26.6007C12.1332 25.6894 12.3356 24.4238 13.1231 23.6363L16.5037 20.2557H2.25C1.00688 20.2557 0 19.2488 0 18.0057C0 16.7626 1.00688 15.7557 2.25 15.7557H16.5037L13.0725 12.3244C12.3131 11.5651 12.1388 10.3613 12.735 9.46694Z" fill="currentColor"/>
</svg>
