<svg width="1em" height="1em" viewBox="0 0 36 36" fill="none" xmlns="http://www.w3.org/2000/svg">
<path d="M28.6078 19.7068L24.3506 13.1045C25.2128 11.9315 25.733 10.5425 25.8533 9.09176C25.9736 7.64098 25.6893 6.18526 25.0321 4.88633C24.3748 3.5874 23.3703 2.49613 22.1301 1.73376C20.89 0.971398 19.4627 0.567795 18.007 0.567795C16.5512 0.567795 15.124 0.971398 13.8838 1.73376C12.6436 2.49613 11.6391 3.5874 10.9818 4.88633C10.3246 6.18526 10.0403 7.64098 10.1606 9.09176C10.2809 10.5425 10.8011 11.9315 11.6633 13.1045L7.40614 19.7068C5.99454 19.7919 4.63193 20.2557 3.46149 21.0494C2.29104 21.8431 1.35597 22.9374 0.75452 24.2172C0.153071 25.4971 -0.092551 26.9154 0.0434605 28.323C0.179472 29.7306 0.692097 31.0756 1.52747 32.2167C2.36285 33.3577 3.49013 34.2527 4.79089 34.8076C6.09164 35.3625 7.51783 35.5568 8.91962 35.3702C10.3214 35.1835 11.647 34.6227 12.7572 33.7467C13.8674 32.8707 14.7212 31.7119 15.2288 30.392H20.7851C21.2927 31.7119 22.1465 32.8707 23.2567 33.7467C24.3669 34.6227 25.6925 35.1835 27.0943 35.3702C28.4961 35.5568 29.9223 35.3625 31.223 34.8076C32.5238 34.2527 33.6511 33.3577 34.4864 32.2167C35.3218 31.0756 35.8344 29.7306 35.9705 28.323C36.1065 26.9154 35.8608 25.4971 35.2594 24.2172C34.6579 22.9374 33.7229 21.8431 32.5524 21.0494C31.382 20.2557 30.0194 19.7919 28.6078 19.7068ZM20.4421 25.8929H15.5719C15.3435 24.8622 14.9101 23.888 14.2976 23.0281C13.6851 22.1683 12.9059 21.4404 12.0064 20.8878L15.2626 15.8264C17.0299 16.5012 18.984 16.5012 20.7514 15.8264L24.0075 20.8878C23.108 21.4404 22.3288 22.1683 21.7163 23.0281C21.1038 23.888 20.6704 24.8622 20.4421 25.8929ZM18.007 5.08496C18.6743 5.08496 19.3267 5.28286 19.8816 5.65363C20.4365 6.02439 20.869 6.55138 21.1244 7.16795C21.3798 7.78452 21.4466 8.46297 21.3164 9.11751C21.1862 9.77206 20.8648 10.3733 20.3929 10.8452C19.921 11.3171 19.3198 11.6385 18.6652 11.7687C18.0107 11.8989 17.3322 11.832 16.7157 11.5766C16.0991 11.3212 15.5721 10.8888 15.2014 10.3339C14.8306 9.77897 14.6327 9.12659 14.6327 8.45922C14.6327 7.56431 14.9882 6.70606 15.621 6.07326C16.2538 5.44046 17.112 5.08496 18.007 5.08496ZM7.88416 30.9543C7.21679 30.9543 6.56441 30.7564 6.00952 30.3857C5.45462 30.0149 5.02213 29.4879 4.76674 28.8713C4.51135 28.2548 4.44453 27.5763 4.57473 26.9218C4.70493 26.2672 5.02629 25.666 5.49819 25.1941C5.97009 24.7222 6.57133 24.4008 7.22587 24.2706C7.88042 24.1404 8.55887 24.2073 9.17543 24.4626C9.792 24.718 10.319 25.1505 10.6898 25.7054C11.0605 26.2603 11.2584 26.9127 11.2584 27.5801C11.2584 28.475 10.9029 29.3332 10.2701 29.966C9.63733 30.5988 8.77907 30.9543 7.88416 30.9543ZM28.1298 30.9543C27.4624 30.9543 26.81 30.7564 26.2551 30.3857C25.7002 30.0149 25.2677 29.4879 25.0123 28.8713C24.7569 28.2548 24.6901 27.5763 24.8203 26.9218C24.9505 26.2672 25.2719 25.666 25.7438 25.1941C26.2157 24.7222 26.8169 24.4008 27.4715 24.2706C28.126 24.1404 28.8045 24.2073 29.421 24.4626C30.0376 24.718 30.5646 25.1505 30.9354 25.7054C31.3061 26.2603 31.504 26.9127 31.504 27.5801C31.504 28.475 31.1485 29.3332 30.5157 29.966C29.8829 30.5988 29.0247 30.9543 28.1298 30.9543Z" fill="currentColor"/>
</svg>
