<svg width="1em" height="1em" viewBox="0 0 36 37" fill="none" xmlns="http://www.w3.org/2000/svg">
<path d="M27.3214 35.3777C27.5552 35.162 27.7406 34.9059 27.8672 34.624C27.9937 34.342 28.0588 34.0398 28.0588 33.7346C28.0588 33.4295 27.9937 33.1272 27.8672 32.8453C27.7406 32.5634 27.5552 32.3073 27.3214 32.0916L13.5673 19.3881C13.1947 19.0311 12.9866 18.5545 12.9866 18.0586C12.9866 17.5627 13.1947 17.0861 13.5673 16.729L27.3214 4.02561C27.7932 3.58983 28.0583 2.9988 28.0583 2.38252C28.0583 1.76625 27.7932 1.17521 27.3214 0.73944C26.8496 0.303668 26.2097 0.0588531 25.5424 0.0588531C24.8752 0.0588531 24.2352 0.303668 23.7634 0.73944L10.0094 13.4429C8.68505 14.6676 7.94119 16.3277 7.94119 18.0586C7.94119 19.7895 8.68505 21.4496 10.0094 22.6743L23.7634 35.3777C23.997 35.5937 24.2743 35.765 24.5795 35.8818C24.8848 35.9987 25.212 36.0589 25.5424 36.0589C25.8728 36.0589 26.2 35.9987 26.5053 35.8818C26.8105 35.765 27.0879 35.5937 27.3214 35.3777Z" fill="currentColor"/>
</svg>
