<svg width="1em" height="1em" viewBox="0 0 36 36" fill="none" xmlns="http://www.w3.org/2000/svg">
<path fill-rule="evenodd" clip-rule="evenodd" d="M8 18C8 15.7909 6.20914 14 4 14C1.79086 14 0 15.7909 0 18C0 20.2091 1.79086 22 4 22C6.20914 22 8 20.2091 8 18ZM36 18C36 15.7909 34.2091 14 32 14C29.7909 14 28 15.7909 28 18C28 20.2091 29.7909 22 32 22C34.2091 22 36 20.2091 36 18ZM18 14C20.2091 14 22 15.7909 22 18C22 20.2091 20.2091 22 18 22C15.7909 22 14 20.2091 14 18C14 15.7909 15.7909 14 18 14Z" fill="currentColor"/>
</svg>
