<svg width="1em" height="1em" viewBox="0 0 36 36" fill="none" xmlns="http://www.w3.org/2000/svg">
<path fill-rule="evenodd" clip-rule="evenodd" d="M19.5522 35.219C19.0522 35.719 18.3739 36 17.6666 36C16.9595 36 16.2811 35.719 15.781 35.219C15.281 34.7189 15 34.0406 15 33.3333V20.3333H2.66663C1.95947 20.3333 1.28113 20.0524 0.781006 19.5523C0.281006 19.0522 0 18.3739 0 17.6667C0 16.9594 0.281006 16.2811 0.781006 15.781C1.28113 15.281 1.95947 15 2.66663 15H15V2.6667C15 1.95945 15.281 1.28117 15.781 0.781078C16.2811 0.280981 16.9595 3.05176e-05 17.6666 3.05176e-05C18.3739 3.05176e-05 19.0522 0.280981 19.5522 0.781078C20.0524 1.28117 20.3334 1.95945 20.3334 2.6667V15H33.3334C34.0405 15 34.7189 15.281 35.219 15.781C35.719 16.2811 36 16.9594 36 17.6667C36 18.3739 35.719 19.0522 35.219 19.5523C34.7189 20.0524 34.0405 20.3333 33.3334 20.3333H20.3334V33.3333C20.3334 34.0406 20.0524 34.7189 19.5522 35.219Z" fill="currentColor"/>
</svg>
