<svg width="1em" height="1em" viewBox="0 0 37 36" fill="none" xmlns="http://www.w3.org/2000/svg">
<path fill-rule="evenodd" clip-rule="evenodd" d="M29.9465 4.50008C33.4666 7.13157 35.8167 11.0364 36.494 15.3788C36.5486 15.7 36.5328 16.0292 36.4477 16.3437C36.3625 16.6582 36.2101 16.9504 36.001 17.2001C35.7918 17.4499 35.531 17.6514 35.2363 17.7904C34.9417 17.9295 34.6204 18.0029 34.2946 18.0057C33.7487 18.011 33.2194 17.8177 32.8054 17.4617C32.3914 17.1057 32.1211 16.6113 32.0446 16.0707C31.7762 14.3587 31.15 12.7226 30.207 11.2689C29.264 9.81503 28.0252 8.57629 26.5715 7.63321V10.1251C26.573 10.4399 26.5084 10.7516 26.3819 11.0399C26.2553 11.3283 26.0697 11.5868 25.837 11.799C25.6042 12.011 25.3295 12.1718 25.0307 12.2711C24.7319 12.3703 24.4155 12.4058 24.1022 12.3751C23.5336 12.3043 23.0114 12.0253 22.6364 11.5921C22.2614 11.159 22.0602 10.6022 22.0715 10.0294V4.50008C22.0715 3.30659 22.5457 2.16202 23.3895 1.3181C24.2334 0.47418 25.3781 8.69243e-05 26.5715 8.69243e-05H32.1965C32.5114 -0.0014237 32.8231 0.0631898 33.1114 0.189704C33.3998 0.316252 33.6583 0.501887 33.8704 0.734657C34.0825 0.967397 34.2433 1.24209 34.3426 1.54092C34.4418 1.83974 34.4772 2.15608 34.4465 2.46943C34.3759 3.03605 34.0986 3.55663 33.6678 3.93137C33.237 4.3061 32.6831 4.50863 32.1121 4.50008H29.9465ZM7.44655 31.5C3.92651 28.8686 1.57636 24.9637 0.899065 20.6213C0.844484 20.3001 0.860304 19.9709 0.94543 19.6565C1.03056 19.342 1.18296 19.0497 1.3921 18.7999C1.60124 18.5502 1.86214 18.3488 2.15675 18.2097C2.45136 18.0706 2.77266 17.9972 3.09844 17.9944C3.6444 17.9891 4.1737 18.1824 4.58766 18.5384C5.00163 18.8944 5.27202 19.3888 5.34843 19.9294C5.61691 21.6413 6.24305 23.2775 7.18606 24.7313C8.12909 26.185 9.36783 27.4238 10.8215 28.3669V25.8751C10.82 25.5602 10.8847 25.2485 11.0112 24.9601C11.1377 24.6718 11.3234 24.4132 11.5561 24.2012C11.7889 23.9891 12.0635 23.8282 12.3624 23.729C12.6612 23.6297 12.9776 23.5943 13.2909 23.6251C13.8595 23.6958 14.3817 23.9748 14.7566 24.4079C15.1316 24.8411 15.3329 25.3978 15.3215 25.9707V31.5C15.3215 32.6935 14.8474 33.8381 14.0036 34.682C13.1596 35.526 12.015 36 10.8215 36H5.19656C4.88168 36.0016 4.57 35.9369 4.28166 35.8104C3.99333 35.6839 3.73476 35.4982 3.52269 35.2655C3.31062 35.0327 3.14975 34.758 3.05051 34.4592C2.95127 34.1604 2.91585 33.844 2.94656 33.5307C3.01737 32.9621 3.29628 32.4399 3.72945 32.065C4.16262 31.6899 4.71935 31.4887 5.29218 31.5H7.44655ZM35.5715 28.125C35.5715 26.5675 35.1096 25.045 34.2444 23.7499C33.379 22.4549 32.1491 21.4455 30.7102 20.8495C29.2712 20.2534 27.6878 20.0975 26.1602 20.4014C24.6326 20.7052 23.2294 21.4553 22.1281 22.5566C21.0267 23.658 20.2767 25.0611 19.9728 26.5887C19.669 28.1163 19.825 29.6997 20.421 31.1386C21.017 32.5776 22.0264 33.8075 23.3214 34.6728C24.6164 35.5382 26.139 36 27.6965 36C29.7851 36 31.7881 35.1703 33.265 33.6935C34.7418 32.2167 35.5715 30.2136 35.5715 28.125ZM24.3215 28.125C24.3215 27.4575 24.5195 26.805 24.8903 26.25C25.2612 25.695 25.7882 25.2624 26.405 25.0069C27.0217 24.7515 27.7003 24.6847 28.3549 24.8149C29.0096 24.9451 29.611 25.2666 30.083 25.7386C30.555 26.2106 30.8764 26.8119 31.0067 27.4666C31.1369 28.1213 31.0701 28.7999 30.8146 29.4166C30.5591 30.0333 30.1266 30.5604 29.5716 30.9312C29.0165 31.3021 28.364 31.5 27.6965 31.5C26.8014 31.5 25.943 31.1444 25.3101 30.5116C24.6771 29.8786 24.3215 29.0202 24.3215 28.125ZM14.1965 14.6251H6.32156C5.42645 14.6251 4.56801 14.2695 3.93507 13.6365C3.30214 13.0036 2.94656 12.1452 2.94656 11.2501V3.37508C2.94656 2.47997 3.30214 1.62153 3.93507 0.988614C4.56801 0.355666 5.42645 8.69243e-05 6.32156 8.69243e-05H14.1965C15.0916 8.69243e-05 15.9501 0.355666 16.583 0.988614C17.216 1.62153 17.5715 2.47997 17.5715 3.37508V11.2501C17.5715 12.1452 17.216 13.0036 16.583 13.6365C15.9501 14.2695 15.0916 14.6251 14.1965 14.6251ZM13.0715 4.50008H7.44655V10.1251H13.0715V4.50008Z" fill="currentColor"/>
</svg>
