<svg width="1em" height="1em" viewBox="0 0 36 36" fill="none" xmlns="http://www.w3.org/2000/svg">
<path fill-rule="evenodd" clip-rule="evenodd" d="M1.38897 13.3202C1.11605 13.207 0.868116 13.0412 0.659332 12.8322C0.450312 12.6234 0.284498 12.3755 0.171365 12.1025C0.0582313 11.8296 0 11.5371 0 11.2416C0 10.9462 0.0582313 10.6537 0.171365 10.3808C0.284498 10.1079 0.450312 9.85992 0.659332 9.65113L3.56497 6.74549L0.659332 3.83987C0.237501 3.41804 0.000518831 2.84591 0.000518831 2.24935C0.000518831 1.6528 0.237501 1.08067 0.659332 0.65884C1.08116 0.237012 1.65328 3.05176e-05 2.24984 3.05176e-05C2.8464 3.05176e-05 3.41852 0.237012 3.84036 0.65884L6.74597 3.56448L9.6516 0.65884C10.0735 0.237012 10.6456 3.05176e-05 11.2421 3.05176e-05C11.8387 3.05176e-05 12.4108 0.237012 12.8326 0.65884C13.2545 1.08067 13.4915 1.6528 13.4915 2.24935C13.4915 2.84591 13.2545 3.41804 12.8326 3.83987L9.92699 6.74549L12.8326 9.65113C13.2545 10.073 13.4915 10.6451 13.4915 11.2416C13.4915 11.8382 13.2545 12.4104 12.8326 12.8322C12.4108 13.254 11.8387 13.4909 11.2421 13.4909C10.6456 13.4909 10.0735 13.254 9.6516 12.8322L6.74597 9.92652L3.84036 12.8322C3.63157 13.0412 3.38363 13.207 3.11072 13.3202C2.83781 13.4333 2.54528 13.4915 2.24984 13.4915C1.95441 13.4915 1.66188 13.4333 1.38897 13.3202ZM8.91541 22.482H5.05995C4.46373 22.482 3.89192 22.2452 3.47032 21.8236C3.04873 21.402 2.81187 20.8302 2.81187 20.2339C2.81187 19.6377 3.04873 19.0659 3.47032 18.6443C3.89192 18.2228 4.46373 17.9859 5.05995 17.9859H10.1181C10.4883 17.9856 10.8529 18.0769 11.1793 18.2514C11.5058 18.4259 11.7842 18.6783 11.9897 18.9863L20.3188 31.4743H20.7234C21.1807 31.4727 21.6311 31.3627 22.0378 31.1534C22.4443 30.944 22.7955 30.6414 23.0626 30.2701C23.3297 29.8989 23.505 29.4697 23.5741 29.0176C23.6432 28.5656 23.6043 28.1035 23.4605 27.6694L21.4203 21.5434C21.3704 21.3939 21.3568 21.2346 21.3806 21.0787C21.4044 20.9228 21.4648 20.7748 21.5571 20.6469C21.6493 20.519 21.7706 20.4149 21.911 20.3431C22.0514 20.2713 22.2068 20.2339 22.3645 20.2339H27.6082C28.1877 20.2432 28.7618 20.1211 29.2874 19.8768C29.813 19.6325 30.2765 19.2723 30.6431 18.8233C31.0597 18.3017 31.3312 17.6792 31.4299 17.019C31.5286 16.3586 31.451 15.6841 31.2051 15.0634L27.4227 5.55965C27.2977 5.24593 27.0815 4.97696 26.8019 4.78757C26.5223 4.59818 26.1923 4.49711 25.8547 4.49743H19.768C19.1956 4.50877 18.6394 4.30769 18.2066 3.93301C17.7738 3.55833 17.4951 3.03661 17.4244 2.46855C17.3937 2.15543 17.429 1.83937 17.5282 1.54079C17.6274 1.24222 17.7881 0.967782 18 0.735229C18.2119 0.502677 18.4702 0.31719 18.7583 0.190762C19.0464 0.0643344 19.3578 -0.000217107 19.6724 0.00128257H25.8547C27.0877 0.00367734 28.2918 0.374734 29.3124 1.06677C30.3329 1.7588 31.1231 2.7402 31.5816 3.88483L35.409 13.3942C35.9148 14.6593 36.1003 16.0298 35.9487 17.3837C35.7971 18.7377 35.3132 20.0333 34.5401 21.1552C33.767 22.277 32.7285 23.1904 31.5172 23.8142C30.3059 24.4378 28.9592 24.7525 27.5969 24.7301H27.226L27.6925 26.0958C28.1052 27.2806 28.2191 28.5489 28.024 29.7883C27.7363 31.5174 26.8438 33.0881 25.5056 34.2204C24.1675 35.3527 22.4707 35.9729 20.7178 35.9705H19.1104C18.7402 35.9707 18.3756 35.8795 18.0492 35.705C17.7227 35.5305 17.4444 35.278 17.2389 34.9701L8.91541 22.482Z" fill="currentColor"/>
</svg>
