<svg width="1em" height="1em" viewBox="0 0 36 36" fill="none" xmlns="http://www.w3.org/2000/svg">
<path fill-rule="evenodd" clip-rule="evenodd" d="M36 7.20001C36 5.29047 35.2415 3.45911 33.8912 2.10883C32.5409 0.758545 30.7095 0 28.8 0H7.20001C5.29047 0 3.45911 0.758545 2.10883 2.10883C0.758545 3.45911 0 5.29047 0 7.20001V28.8C0 30.7095 0.758545 32.5409 2.10883 33.8912C3.45911 35.2415 5.29047 36 7.20001 36H12C12.6365 36 13.2469 35.7471 13.6971 35.2971C14.1472 34.847 14.4 34.2365 14.4 33.6C14.4 32.9635 14.1472 32.353 13.6971 31.903C13.2469 31.4529 12.6365 31.2 12 31.2H7.20001C6.56348 31.2 5.953 30.9471 5.50293 30.4971C5.05286 30.047 4.79999 29.4365 4.79999 28.8V7.20001C4.79999 6.56348 5.05286 5.953 5.50293 5.50293C5.953 5.05286 6.56348 4.79999 7.20001 4.79999H28.8C29.4365 4.79999 30.047 5.05286 30.4971 5.50293C30.9471 5.953 31.2 6.56348 31.2 7.20001V15.6C31.2 16.2365 31.4529 16.847 31.903 17.2971C32.353 17.7471 32.9635 18 33.6 18C34.2365 18 34.847 17.7471 35.2971 17.2971C35.7471 16.847 36 16.2365 36 15.6V7.20001ZM34.356 25.704C32.796 23.73 30.216 21.6 27 21.6C23.784 21.6 21.204 23.73 19.644 25.704C19.5835 25.7813 19.521 25.8603 19.4573 25.9408C18.7941 26.7786 18 27.7818 18 28.8C18 29.8182 18.7941 30.8214 19.4573 31.6592C19.521 31.7397 19.5835 31.8187 19.644 31.896C21.204 33.87 23.784 36 27 36C30.216 36 32.796 33.87 34.356 31.896C34.3923 31.8497 34.4293 31.8027 34.4668 31.7552L34.5427 31.6592C35.2059 30.8214 36 29.8182 36 28.8C36 27.7818 35.2059 26.7786 34.5427 25.9408C34.479 25.8603 34.4165 25.7813 34.356 25.704ZM27 31.2C26.5253 31.2 26.0613 31.0592 25.6666 30.7955C25.272 30.5318 24.9644 30.157 24.7827 29.7184C24.601 29.2798 24.5535 28.7973 24.6461 28.3317C24.7387 27.8662 24.9673 27.4385 25.3029 27.1029C25.6386 26.7673 26.0662 26.5387 26.5318 26.4461C26.9973 26.3535 27.4799 26.401 27.9185 26.5826C28.357 26.7643 28.7318 27.0719 28.9955 27.4666C29.2592 27.8613 29.4 28.3253 29.4 28.8C29.4 29.4365 29.1472 30.0469 28.6971 30.497C28.2469 30.9471 27.6365 31.2 27 31.2ZM22.097 10.3029C22.5472 10.753 22.8 11.3635 22.8 12C22.8 12.6365 22.5472 13.2469 22.097 13.697C21.647 14.1471 21.0366 14.4 20.4 14.4H15.6C14.9635 14.4 14.353 14.1471 13.903 13.697C13.4529 13.2469 13.2 12.6365 13.2 12C13.2 11.3635 13.4529 10.753 13.903 10.3029C14.353 9.85284 14.9635 9.59998 15.6 9.59998H20.4C21.0366 9.59998 21.647 9.85284 22.097 10.3029Z" fill="currentColor"/>
</svg>
