<svg width="1em" height="1em" viewBox="0 0 36 36" fill="none" xmlns="http://www.w3.org/2000/svg">
<path fill-rule="evenodd" clip-rule="evenodd" d="M33.8912 2.10883C35.2415 3.45909 36 5.29044 36 7.2V15.6C36 16.2365 35.7472 16.847 35.297 17.297C34.847 17.7472 34.2365 18 33.6 18C32.9635 18 32.353 17.7472 31.903 17.297C31.4528 16.847 31.2 16.2365 31.2 15.6V7.2C31.2 6.56346 30.9472 5.95303 30.497 5.50294C30.047 5.05286 29.4365 4.8 28.8 4.8H7.2C6.56352 4.8 5.95298 5.05286 5.50298 5.50294C5.05283 5.95303 4.8 6.56346 4.8 7.2V28.8C4.8 29.4365 5.05283 30.047 5.50298 30.497C5.95298 30.9472 6.56352 31.2 7.2 31.2H12C12.6365 31.2 13.247 31.4528 13.697 31.903C14.1472 32.353 14.4 32.9635 14.4 33.6C14.4 34.2365 14.1472 34.847 13.697 35.297C13.247 35.7472 12.6365 36 12 36H7.2C5.29043 36 3.45908 35.2414 2.10879 33.8912C0.75864 32.5409 0 30.7096 0 28.8V7.2C0 5.29044 0.75864 3.45909 2.10879 2.10883C3.45908 0.758568 5.29043 0 7.2 0H28.8C30.7096 0 32.5409 0.758568 33.8912 2.10883ZM27 21.6C30.2161 21.6 32.7959 23.73 34.356 25.704C34.4165 25.7814 34.4791 25.8605 34.5429 25.9411C35.2061 26.7788 36 27.7819 36 28.8C36 29.8181 35.2061 30.8212 34.5429 31.6589C34.4791 31.7395 34.4165 31.8186 34.356 31.896C32.7959 33.87 30.2161 36 27 36C23.7839 36 21.2041 33.87 19.644 31.896L19.6006 31.8407L19.4571 31.6589C18.7939 30.8212 18 29.8181 18 28.8C18 27.7819 18.7939 26.7788 19.4571 25.9411L19.5142 25.8691L19.644 25.704C21.2041 23.73 23.7839 21.6 27 21.6ZM25.6667 30.7955C26.0613 31.0592 26.5254 31.2 27 31.2C27.6365 31.2 28.247 30.9472 28.697 30.497C29.1472 30.047 29.4 29.4365 29.4 28.8C29.4 28.3253 29.2592 27.8613 28.9955 27.4666C28.7319 27.0719 28.357 26.7643 27.9185 26.5827C27.4799 26.401 26.9974 26.3535 26.5318 26.4461C26.0662 26.5387 25.6386 26.7673 25.303 27.103C24.9673 27.4386 24.7387 27.8662 24.6461 28.3318C24.5536 28.7974 24.601 29.2799 24.7826 29.7184C24.9643 30.157 25.2719 30.5318 25.6667 30.7955ZM22.8 12C22.8 11.3635 22.5472 10.753 22.097 10.303C21.647 9.85284 21.0365 9.6 20.4 9.6C20.4 8.96346 20.1472 8.35302 19.697 7.90296C19.247 7.45284 18.6365 7.2 18 7.2C17.3635 7.2 16.753 7.45284 16.303 7.90296C15.8528 8.35302 15.6 8.96346 15.6 9.6C14.9635 9.6 14.353 9.85284 13.903 10.303C13.4528 10.753 13.2 11.3635 13.2 12C13.2 12.6365 13.4528 13.247 13.903 13.697C14.353 14.1472 14.9635 14.4 15.6 14.4C15.6 15.0365 15.8528 15.647 16.303 16.097C16.753 16.5472 17.3635 16.8 18 16.8C18.6365 16.8 19.247 16.5472 19.697 16.097C20.1472 15.647 20.4 15.0365 20.4 14.4C21.0365 14.4 21.647 14.1472 22.097 13.697C22.5472 13.247 22.8 12.6365 22.8 12Z" fill="currentColor"/>
</svg>
