<svg width="1em" height="1em" viewBox="0 0 36 36" fill="none" xmlns="http://www.w3.org/2000/svg">
<path d="M2.32258 27.8732H6.91548L6.3871 33.4633C6.35754 33.7685 6.38874 34.0765 6.47887 34.3695C6.56901 34.6626 6.71631 34.9349 6.91227 35.1707C7.10823 35.4065 7.34896 35.6012 7.62059 35.7436C7.89221 35.8859 8.18935 35.9731 8.49484 36H8.70968C9.29019 36.0025 9.85058 35.7876 10.2805 35.3975C10.7104 35.0075 10.9786 34.4707 11.0323 33.8928L11.6129 27.8732H22.6452L22.0645 33.4633C22.035 33.7685 22.0662 34.0765 22.1563 34.3695C22.2464 34.6626 22.3937 34.9349 22.5897 35.1707C22.7856 35.4065 23.0264 35.6012 23.298 35.7436C23.5696 35.8859 23.8668 35.9731 24.1723 36H24.3871C24.9676 36.0025 25.528 35.7876 25.9579 35.3975C26.3878 35.0075 26.656 34.4707 26.7097 33.8928L27.2903 27.8732H32.5161C33.1321 27.8732 33.7229 27.6286 34.1584 27.1931C34.594 26.7577 34.8387 26.1671 34.8387 25.5513C34.8387 24.9355 34.594 24.3449 34.1584 23.9094C33.7229 23.474 33.1321 23.2293 32.5161 23.2293H27.6852L28.6548 12.7806H33.6774C34.2934 12.7806 34.8842 12.536 35.3197 12.1005C35.7553 11.6651 36 11.0745 36 10.4587C36 9.84286 35.7553 9.25227 35.3197 8.81682C34.8842 8.38137 34.2934 8.13674 33.6774 8.13674H29.0845L29.6129 2.54667C29.6699 1.93085 29.4798 1.31763 29.0845 0.841902C28.6893 0.366175 28.1211 0.0669126 27.5052 0.00994958C26.8892 -0.0470135 26.2758 0.142988 25.7999 0.538157C25.3241 0.933327 25.0247 1.50129 24.9677 2.11711L24.4219 8.13674H13.3897L13.9355 2.54667C13.9925 1.93085 13.8024 1.31763 13.4071 0.841902C13.0119 0.366175 12.4437 0.0669126 11.8277 0.00994958C11.2118 -0.0470135 10.5984 0.142988 10.1225 0.538157C9.64664 0.933327 9.3473 1.50129 9.29032 2.11711L8.74452 8.13674H3.48387C2.86788 8.13674 2.27713 8.38137 1.84156 8.81682C1.40599 9.25227 1.16129 9.84286 1.16129 10.4587C1.16129 11.0745 1.40599 11.6651 1.84156 12.1005C2.27713 12.536 2.86788 12.7806 3.48387 12.7806H8.31484L7.34516 23.2293H2.32258C1.70659 23.2293 1.11584 23.474 0.680269 23.9094C0.2447 24.3449 0 24.9355 0 25.5513C0 26.1671 0.2447 26.7577 0.680269 27.1931C1.11584 27.6286 1.70659 27.8732 2.32258 27.8732ZM12.9774 12.7806H24.0097L23.0226 23.2293H11.9903L12.9774 12.7806Z" fill="currentColor"/>
</svg>
