<svg width="1em" height="1em" viewBox="0 0 36 36" fill="none" xmlns="http://www.w3.org/2000/svg">
<path fill-rule="evenodd" clip-rule="evenodd" d="M7.75 36C4.02625 36 1 32.9738 1 29.25V9.00562C1 8.98875 1.00281 8.97188 1.00563 8.955C1.00844 8.93812 1.01125 8.92125 1.01125 8.90438L1.01004 8.88992C1.00485 8.82799 1 8.77016 1 8.7075C1 5.8275 3.05875 3.375 5.89375 2.87438L21.6719 0.09C22.0037 0.0281245 22.3469 0 22.69 0C25.93 0 28.5625 2.63812 28.5625 5.8725V10.1531C32.0219 10.44 34.75 13.3425 34.75 16.875V29.25C34.75 32.9738 31.7237 36 28 36H7.75ZM28 31.5C29.2431 31.5 30.25 30.4931 30.25 29.25V16.875C30.25 15.6319 29.2431 14.625 28 14.625H6.92312C6.42812 14.625 5.95563 14.5575 5.5 14.445V29.25C5.5 30.4931 6.50688 31.5 7.75 31.5H28ZM22.4538 4.5225L6.67562 7.30687V7.30125C5.995 7.425 5.5 8.01 5.5 8.70187C5.5 9.48938 6.14125 10.125 6.92312 10.125H24.0625V5.8725C24.0625 5.11312 23.4438 4.5 22.69 4.5C22.6112 4.5 22.5325 4.51125 22.4538 4.5225ZM25.75 23.0625C25.75 24.3051 24.7426 25.3125 23.5 25.3125C22.2574 25.3125 21.25 24.3051 21.25 23.0625C21.25 21.8199 22.2574 20.8125 23.5 20.8125C24.7426 20.8125 25.75 21.8199 25.75 23.0625Z" fill="currentColor"/>
</svg>
