<svg width="1em" height="1em" viewBox="0 0 37 36" fill="none" xmlns="http://www.w3.org/2000/svg">
<path fill-rule="evenodd" clip-rule="evenodd" d="M34.5842 8.53528C34.8041 9.06702 34.9161 9.63715 34.9138 10.2125V29.5541C34.9138 30.2728 34.7723 30.9845 34.4972 31.6485C34.2223 32.3125 33.819 32.9158 33.3108 33.4241C32.8027 33.9322 32.1994 34.3354 31.5353 34.6104C30.8712 34.8855 30.1595 35.027 29.4409 35.027H27.2517C26.6711 35.027 26.1142 34.7963 25.7037 34.3858C25.2931 33.9752 25.0625 33.4184 25.0625 32.8378C25.0625 32.2573 25.2931 31.7004 25.7037 31.2898C26.1142 30.8793 26.6711 30.6486 27.2517 30.6486H29.4409C29.7311 30.6486 30.0096 30.5334 30.2149 30.3281C30.4202 30.1228 30.5355 29.8444 30.5355 29.5541V10.2125L24.7013 4.37838H11.9273C11.6371 4.37838 11.3587 4.49371 11.1533 4.69897C10.9481 4.90427 10.8328 5.18267 10.8328 5.47297V8.75676C10.8328 9.33737 10.6021 9.89416 10.1915 10.3048C9.78103 10.7153 9.22411 10.9459 8.64356 10.9459C8.06301 10.9459 7.5061 10.7153 7.09562 10.3048C6.68503 9.89416 6.45437 9.33737 6.45437 8.75676V5.47297C6.45437 4.02144 7.031 2.62938 8.05743 1.60299C9.08373 0.576605 10.4758 1.31311e-06 11.9273 1.31311e-06H24.7013C25.2764 -0.000444078 25.846 0.112418 26.3775 0.332174C26.909 0.551901 27.3921 0.874216 27.799 1.28069L33.6331 7.11486C34.0411 7.52071 34.3644 8.00351 34.5842 8.53528ZM12.8568 22.7446C13.3087 23.5877 13.8057 24.2903 14.2575 24.8055C14.8899 25.5078 15.5222 26.1634 16.0642 26.7253C19.6336 26.0227 22.0742 26.3043 22.797 27.569C22.9326 27.85 23.3393 28.7868 22.3453 29.8172C21.7127 30.5198 20.8994 30.8945 19.9957 30.8477C18.7306 30.8477 17.2396 30.0983 15.5678 28.6931C14.6641 28.8805 13.6249 29.1616 12.4953 29.4894C11.5466 29.7704 10.6428 30.0983 9.87474 30.3793C8.51933 32.9087 6.75712 35.4848 5.08542 35.9063C4.90465 35.9531 4.72388 36 4.54323 36C4.0913 36 3.68476 35.8595 3.32321 35.5316C2.69064 35.0163 2.46473 34.3138 2.60037 33.5644C2.96179 31.5971 5.9439 29.9577 8.65485 28.8805C9.01627 28.1779 9.37769 27.4285 9.64885 26.679C10.191 25.3207 10.6428 24.0561 10.9591 22.9319C9.73923 20.4963 8.69998 17.4986 9.37781 15.8593C9.69397 15.0162 10.4169 14.5946 11.3207 14.5946C12.0888 14.5946 12.7665 14.9225 13.1732 15.5782C13.9864 16.796 13.8508 19.2317 12.8568 22.7446ZM4.36246 33.8922C4.49798 34.1264 4.54323 34.1732 4.67875 34.1264C5.31132 33.9859 6.21493 33.0023 7.1638 31.5971C5.31132 32.5339 4.45284 33.4239 4.36246 33.8922ZM10.9685 16.5885L10.9591 16.6086C10.6881 17.2175 11.0495 18.6696 11.6368 20.2622C11.9984 18.3417 11.9984 17.1238 11.6821 16.6555C11.6368 16.5618 11.5466 16.4682 11.2754 16.4682C11.0246 16.4682 11.0059 16.5083 10.9685 16.5885ZM11.8319 27.7709C11.9042 27.7502 11.9749 27.7298 12.0435 27.7095L12.0467 27.7087C12.7235 27.5216 13.3999 27.3346 13.9864 27.1943C13.6703 26.8198 13.3091 26.4453 12.9479 26.0708C12.722 25.7898 12.4051 25.4144 12.1339 24.9929C11.9524 25.5948 11.7126 26.2271 11.4614 26.8896C11.3999 27.0518 11.3376 27.2158 11.2754 27.3816C11.2167 27.5033 11.1581 27.6447 11.0994 27.7931C11.0677 27.8731 11.036 27.9553 11.0044 28.0374C11.2874 27.9273 11.5704 27.846 11.8319 27.7709ZM20.0861 28.9742C20.5831 28.9742 20.9446 28.9274 21.1705 28.5058C21.3963 28.0842 20.2669 27.9906 18.0528 28.2248C18.821 28.6931 19.5439 28.9742 20.0861 28.9742Z" fill="currentColor"/>
</svg>
