<svg width="1em" height="1em" viewBox="0 0 14 15" fill="none" xmlns="http://www.w3.org/2000/svg">
<path d="M7 14.5C8.38447 14.5 9.73784 14.0895 10.889 13.3203C12.0401 12.5511 12.9373 11.4579 13.4672 10.1788C13.997 8.8997 14.1356 7.49224 13.8655 6.13437C13.5954 4.7765 12.9287 3.52922 11.9497 2.55026C10.9708 1.57129 9.7235 0.904603 8.36563 0.634506C7.00776 0.36441 5.6003 0.503033 4.32122 1.03285C3.04213 1.56266 1.94888 2.45987 1.17971 3.61101C0.410543 4.76215 0 6.11553 0 7.5C0 9.35652 0.737498 11.137 2.05025 12.4497C3.36301 13.7625 5.14348 14.5 7 14.5ZM12.25 7.5C12.2491 8.46285 11.9835 9.40691 11.4821 10.2289C10.9807 11.0509 10.2629 11.7192 9.40728 12.1607C8.55162 12.6022 7.59102 12.7999 6.63056 12.7321C5.6701 12.6644 4.74677 12.3338 3.96156 11.7766L11.2766 4.46156C11.9109 5.34761 12.2514 6.4103 12.25 7.5ZM7 2.25C8.0897 2.24864 9.15239 2.5891 10.0384 3.22344L2.72344 10.5384C2.16619 9.75323 1.83561 8.8299 1.76785 7.86944C1.7001 6.90898 1.89778 5.94838 2.33927 5.09272C2.78076 4.23706 3.44907 3.51929 4.27108 3.01792C5.09309 2.51655 6.03715 2.25089 7 2.25Z" fill="currentColor"/>
</svg>
