<svg width="1em" height="1em" viewBox="0 0 36 36" fill="none" xmlns="http://www.w3.org/2000/svg">
<path d="M20.6958 36C22.6361 36 24.4968 35.2293 25.8688 33.8573C27.2407 32.4854 28.0115 30.6246 28.0115 28.6844V23.4228L30.3074 22.6912C31.603 22.2833 32.7343 21.4718 33.5361 20.3754C34.3379 19.279 34.7682 17.955 34.7643 16.5968V13.1753C34.7674 11.8172 34.3367 10.4936 33.535 9.39741C32.7333 8.30118 31.6025 7.48957 30.3074 7.08083L8.92334 0.282942C8.01141 -0.00520605 7.04443 -0.07449 6.10074 0.0807041C5.15705 0.235898 4.26319 0.611205 3.49157 1.17622C2.71995 1.74123 2.09227 2.48006 1.6594 3.33286C1.22652 4.18565 1.00061 5.12842 0.999969 6.08478V23.6929C1.00005 24.6506 1.22602 25.5947 1.65952 26.4486C2.09303 27.3026 2.72184 28.0422 3.49489 28.6075C4.26794 29.1727 5.16343 29.5477 6.1086 29.7018C7.05378 29.856 8.02199 29.785 8.93459 29.4947L13.3802 28.0766V28.6844C13.3802 30.6246 14.151 32.4854 15.5229 33.8573C16.8949 35.2293 18.7556 36 20.6958 36ZM23.5095 28.6844C23.5095 29.4306 23.2131 30.1463 22.6854 30.674C22.1578 31.2016 21.4421 31.4981 20.6958 31.4981C19.9496 31.4981 19.2339 31.2016 18.7063 30.674C18.1786 30.1463 17.8821 29.4306 17.8821 28.6844V26.6585L23.5095 24.8578V28.6844ZM7.56714 25.2067C7.41041 25.2552 7.24726 25.2799 7.08318 25.2798C6.87505 25.2798 6.66896 25.2387 6.47674 25.1589C6.28452 25.0791 6.10995 24.9621 5.96304 24.8147C5.81613 24.6672 5.69977 24.4923 5.62063 24.2998C5.5415 24.1073 5.50114 23.901 5.50188 23.6929V6.08478C5.49965 5.87571 5.5389 5.66826 5.61737 5.47446C5.69584 5.28065 5.81196 5.10434 5.95902 4.95571C6.10608 4.80708 6.28116 4.68909 6.47412 4.60857C6.66708 4.52805 6.87409 4.48659 7.08318 4.4866C7.24726 4.48652 7.41041 4.51118 7.56714 4.55976L28.9512 11.3633C29.3341 11.4866 29.6677 11.7288 29.9035 12.0546C30.1393 12.3805 30.265 12.7731 30.2624 13.1753V16.5968C30.2631 16.9994 30.1351 17.3918 29.8973 17.7167C29.6594 18.0416 29.324 18.2821 28.94 18.4031L7.56714 25.2067Z" fill="currentColor"/>
</svg>
