<svg width="1em" height="1em" viewBox="0 0 36 36" fill="none" xmlns="http://www.w3.org/2000/svg">
<path d="M36 12.3919C36 10.8337 35.5444 9.32062 34.6781 8.02125L31.6688 3.50437C30.2063 1.31062 27.7538 0 25.1156 0H10.8844C8.24625 0 5.79375 1.31062 4.33125 3.50437L1.32188 8.02125C0.455625 9.32062 0 10.8281 0 12.3919V28.125C0 32.4675 3.5325 36 7.875 36H28.125C32.4675 36 36 32.4675 36 28.125V12.3919ZM20.25 4.5H25.1156C26.2463 4.5 27.2981 5.0625 27.9225 6.00187L30.6675 10.125H20.2444V4.5H20.25ZM8.0775 6.00187C8.7075 5.0625 9.75375 4.5 10.8844 4.5H15.75V10.125H5.32687L8.0775 6.00187ZM31.5 28.125C31.5 29.9869 29.9869 31.5 28.125 31.5H7.875C6.01312 31.5 4.5 29.9869 4.5 28.125V14.625H15.75V19.6875C15.75 20.9306 16.7569 21.9375 18 21.9375C19.2431 21.9375 20.25 20.9306 20.25 19.6875V14.625H31.5V28.125Z" fill="currentColor"/>
</svg>
