<svg width="1em" height="1em" viewBox="0 0 36 36" fill="none" xmlns="http://www.w3.org/2000/svg">
<path fill-rule="evenodd" clip-rule="evenodd" d="M17.4374 8.49513e-05H27.6581C29.87 0.00157519 31.9909 0.880929 33.555 2.44501C35.1191 4.0091 35.9984 6.13005 35.9999 8.34198V18.5626C36.0037 19.5108 35.8185 20.4503 35.4554 21.3262C35.0923 22.2022 34.5584 22.997 33.8849 23.6645L23.6643 33.8851C22.9946 34.5556 22.1993 35.0875 21.3238 35.4504C20.4484 35.8132 19.5101 36 18.5624 36C17.6148 36 16.6764 35.8132 15.801 35.4504C14.9256 35.0875 14.1302 34.5556 13.4605 33.8851L2.11488 22.5395C1.44443 21.8698 0.912556 21.0745 0.549669 20.199C0.186783 19.3236 0 18.3853 0 17.4376C0 16.49 0.186783 15.5516 0.549669 14.6762C0.912556 13.8008 1.44443 13.0054 2.11488 12.3357L12.3355 2.11509C13.003 1.4416 13.7979 0.907733 14.6738 0.544611C15.5497 0.181489 16.4892 -0.0036165 17.4374 8.49513e-05ZM30.7068 20.4807C31.2146 19.9715 31.4998 19.2818 31.4999 18.5626V8.34198C31.4999 7.32306 31.0952 6.34583 30.3747 5.62538C29.6542 4.90486 28.677 4.50009 27.6581 4.50009H17.4374C16.7183 4.50019 16.0285 4.7854 15.5193 5.29321L5.29301 15.5195C4.78533 16.0288 4.50025 16.7185 4.50025 17.4376C4.50025 18.1567 4.78533 18.8465 5.29301 19.3557L16.6443 30.707C17.1535 31.2147 17.8433 31.4998 18.5624 31.4998C19.2815 31.4998 19.9713 31.2147 20.4805 30.707L30.7068 20.4807ZM26.4374 11.8125C26.4374 13.0552 25.43 14.0626 24.1874 14.0626C22.9447 14.0626 21.9374 13.0552 21.9374 11.8125C21.9374 10.5699 22.9447 9.56255 24.1874 9.56255C25.43 9.56255 26.4374 10.5699 26.4374 11.8125Z" fill="currentColor"/>
</svg>
