<svg width="1em" height="1em" viewBox="0 0 36 36" fill="none" xmlns="http://www.w3.org/2000/svg">
<path fill-rule="evenodd" clip-rule="evenodd" d="M12.8419 20.2484H6.75002C4.95981 20.2484 3.24292 19.5377 1.97705 18.2728C0.711184 17.0078 2.55526e-05 15.2921 2.55526e-05 13.5032V7.32009C-0.00147503 7.00544 0.0631317 6.69398 0.189667 6.40585C0.316203 6.11771 0.501849 5.85933 0.7346 5.64741C0.967352 5.43548 1.24203 5.27474 1.54086 5.17556C1.83969 5.07639 2.15602 5.041 2.4694 5.07169C3.03795 5.14245 3.56012 5.42116 3.93512 5.85402C4.31012 6.28689 4.51137 6.84322 4.50002 7.41565V12.5701L14.4338 2.64903C15.6915 1.38629 17.2963 0.525307 19.0444 0.175295C20.7926 -0.174718 22.6054 0.00201249 24.2529 0.683066C25.9004 1.36412 27.3083 2.51881 28.2981 4.00066C29.288 5.48251 29.815 7.22476 29.8125 9.0064C29.8125 9.60271 29.5754 10.1746 29.1535 10.5962C28.7315 11.0179 28.1592 11.2548 27.5625 11.2548C26.9658 11.2548 26.3935 11.0179 25.9715 10.5962C25.5496 10.1746 25.3125 9.60271 25.3125 9.0064C25.3166 8.11301 25.0543 7.23866 24.559 6.49486C24.0638 5.75106 23.3581 5.17153 22.5319 4.83019C21.7057 4.48885 20.7965 4.40117 19.9202 4.57833C19.0439 4.75549 18.2403 5.18947 17.6119 5.8249L7.68377 15.7516H12.9375C13.2524 15.7501 13.5641 15.8146 13.8524 15.9411C14.1407 16.0675 14.3993 16.2531 14.6114 16.4856C14.8235 16.7182 14.9843 16.9927 15.0836 17.2913C15.1828 17.5899 15.2182 17.9061 15.1875 18.2192C15.1167 18.7874 14.8378 19.3092 14.4046 19.6839C13.9714 20.0586 13.4147 20.2597 12.8419 20.2484ZM21.5954 16.3161C22.0286 15.9414 22.5853 15.7403 23.1581 15.7516H29.25C31.0402 15.7516 32.7571 16.4623 34.023 17.7272C35.2888 18.9922 36 20.7079 36 22.4968V28.68C36.0015 28.9946 35.9369 29.3061 35.8103 29.5942C35.6838 29.8823 35.4982 30.1407 35.2654 30.3526C35.0326 30.5646 34.758 30.7253 34.4591 30.8245C34.1603 30.9237 33.844 30.959 33.5306 30.9284C32.9621 30.8576 32.4399 30.5789 32.0649 30.146C31.6899 29.7132 31.4886 29.1568 31.5 28.5844V23.4299L21.5662 33.351C20.3085 34.6138 18.7037 35.4747 16.9556 35.8247C15.2074 36.1748 13.3946 35.998 11.7471 35.317C10.0996 34.6359 8.69169 33.4812 7.70187 31.9994C6.71206 30.5175 6.18498 28.7753 6.18751 26.9936C6.18751 26.3973 6.42456 25.8254 6.84652 25.4038C7.26848 24.9821 7.84077 24.7452 8.43751 24.7452C9.03424 24.7452 9.60654 24.9821 10.0285 25.4038C10.4505 25.8254 10.6875 26.3973 10.6875 26.9936C10.6834 27.887 10.9457 28.7614 11.441 29.5052C11.9362 30.249 12.6419 30.8285 13.4681 31.1699C14.2943 31.5112 15.2035 31.5989 16.0798 31.4217C16.9561 31.2446 17.7597 30.8106 18.3881 30.1751L28.3162 20.2484H23.0625C22.7476 20.2499 22.4359 20.1854 22.1476 20.0589C21.8593 19.9325 21.6007 19.747 21.3886 19.5144C21.1765 19.2818 21.0157 19.0073 20.9164 18.7087C20.8172 18.4101 20.7818 18.094 20.8125 17.7808C20.8833 17.2127 21.1622 16.6909 21.5954 16.3161Z" fill="currentColor"/>
</svg>
