<svg width="1em" height="1em" viewBox="0 0 36 36" fill="none" xmlns="http://www.w3.org/2000/svg">
<path fill-rule="evenodd" clip-rule="evenodd" d="M14.5 36H20.125C25.0806 36 28.3544 36 30.9869 33.3619C33.625 30.7238 33.625 27.45 33.625 22.5V13.8544C33.625 11.7337 33.625 10.1981 32.9387 8.54437C32.2525 6.89062 31.1725 5.805 29.6706 4.30875L29.3162 3.95438C27.8144 2.4525 26.7344 1.3725 25.0806 0.68625C23.4269 0 21.8912 0 19.7706 0H14.5C9.54437 0 6.27063 0 3.63812 2.63812C1.00563 5.27625 1 8.55 1 13.5V22.5C1 27.4556 1 30.7294 3.63812 33.3619C6.27625 36 9.55 36 14.5 36ZM5.5 13.5C5.5 9.25875 5.5 7.13812 6.81625 5.81625C8.12693 4.49997 10.2352 4.49998 14.4462 4.5H14.5H19.7706C21.61 4.5 22.5269 4.5 23.3594 4.84312C24.1863 5.18625 24.8387 5.83875 26.1381 7.13812L26.4925 7.4925C27.7918 8.79182 28.4444 9.44438 28.7875 10.2712C29.1306 11.0981 29.1306 12.0206 29.1306 13.86V22.5056C29.1306 26.7469 29.1306 28.8675 27.8144 30.1894C26.4981 31.5056 24.3775 31.5056 20.1306 31.5056H14.5056C10.2644 31.5056 8.14375 31.5056 6.82188 30.1894C5.50563 28.8731 5.50563 26.7525 5.50563 22.5056V13.5056L5.5 13.5ZM12.25 24.75H22.375C23.6181 24.75 24.625 23.7431 24.625 22.5C24.625 21.2569 23.6181 20.25 22.375 20.25H12.25C11.0069 20.25 10 21.2569 10 22.5C10 23.7431 11.0069 24.75 12.25 24.75ZM22.375 15.75H12.25C11.0069 15.75 10 14.7431 10 13.5C10 12.2569 11.0069 11.25 12.25 11.25H22.375C23.6181 11.25 24.625 12.2569 24.625 13.5C24.625 14.7431 23.6181 15.75 22.375 15.75Z" fill="currentColor"/>
</svg>
