<svg width="1em" height="1em" viewBox="0 0 35 36" fill="none" xmlns="http://www.w3.org/2000/svg">
<path fill-rule="evenodd" clip-rule="evenodd" d="M30.6232 4.00579C32.4369 5.82514 33.5089 6.90036 34.1888 8.53875C34.875 10.1981 34.875 11.7337 34.875 13.8544V22.5C34.875 27.4556 34.875 30.7238 32.2369 33.3619C29.5988 36 26.3307 36 21.375 36C20.1319 36 18.8438 34.9931 18.8438 33.75C18.8438 32.5069 19.5694 31.5 20.8125 31.5H21.375C25.875 31.5 27.7931 31.455 29.0587 30.1838C30.3243 28.9125 30.3694 27 30.3694 22.5V13.8544C30.3694 11.9531 30.3638 11.0588 30.0318 10.2656C29.7001 9.4725 29.0925 8.8425 27.7426 7.4925C26.0382 5.78813 25.3856 5.18627 24.6094 4.84312C23.8332 4.5 22.9388 4.5 21.0207 4.5H15.75C11.25 4.5 9.34318 4.54501 8.07193 5.81625C6.80068 7.0875 6.75 9 6.75 13.5C6.75 14.7431 5.7375 16.0312 4.50002 16.0312C3.26254 16.0312 2.25002 15.3056 2.25002 14.0625C2.25002 8.54437 2.25565 5.27626 4.88811 2.63812C7.52068 4.76837e-07 10.7944 4.85632e-07 15.75 4.85632e-07H21.0207H21.0716C23.1657 -3.38466e-05 24.6846 -6.81877e-05 26.3363 0.686267C27.9917 1.37411 29.0631 2.44559 30.546 3.92833L30.5719 3.95439L30.6232 4.00579ZM15.8744 25.2007C15.5616 24.8879 15.3879 24.4708 15.3879 24.0265V23.9545C15.3879 23.443 15.2935 22.9763 15.1073 22.5617C14.5735 21.3775 13.3969 20.6129 12.1058 20.6129H11.9718C11.5299 20.6129 11.1128 20.4391 10.8 20.1262C10.4401 19.7663 10.0403 19.5006 9.61583 19.3393C8.40184 18.88 7.02894 19.173 6.11786 20.0841L6.07562 20.1262C5.76287 20.4391 5.34583 20.6129 4.9039 20.6129H4.82933C4.31792 20.6129 3.8488 20.7072 3.43668 20.8934C2.25249 21.4271 1.48784 22.604 1.48784 23.8948V24.0289C1.48784 24.4708 1.31645 24.8879 1.00128 25.2007C0.638736 25.5607 0.375612 25.9604 0.21425 26.3849C-0.245116 27.5989 0.0479442 28.9718 0.961459 29.8853L1.00128 29.9251C1.31398 30.2379 1.48784 30.655 1.48784 31.0993V31.1713C1.48784 31.6828 1.58218 32.1495 1.7684 32.5641C2.30206 33.7483 3.47884 34.5129 4.76973 34.5129H4.9039C5.34583 34.5129 5.76287 34.6867 6.07562 34.9995C6.43568 35.3595 6.83527 35.6252 7.25979 35.7865C7.64212 35.9305 8.03942 36 8.43407 36C9.29306 36 10.1346 35.6673 10.7603 35.0417L10.8025 34.9995C11.1153 34.6867 11.5324 34.5129 11.9743 34.5129H12.0487C12.5601 34.5129 13.0269 34.4186 13.4415 34.2324C14.6257 33.6986 15.3903 32.5219 15.3903 31.231V31.0969C15.3903 30.655 15.5616 30.2379 15.8769 29.9251C16.2394 29.5651 16.5026 29.1654 16.6639 28.7409C17.1232 27.5269 16.8302 26.154 15.9192 25.2429L15.8769 25.2007H15.8744ZM14.802 28.0383C14.7424 28.1972 14.6281 28.361 14.4693 28.5224C13.7817 29.2101 13.4018 30.1262 13.4018 31.0993V31.2334C13.4018 31.7423 13.0964 32.2091 12.6247 32.4226C12.4683 32.4921 12.2747 32.5293 12.0463 32.5293H11.9718C10.9986 32.5293 10.0851 32.9092 9.39482 33.5968L9.35269 33.639C8.99274 33.999 8.44656 34.1133 7.96236 33.9296C7.80097 33.8675 7.63965 33.7557 7.47827 33.5968C6.79067 32.9092 5.87452 32.5293 4.90143 32.5293H4.76726C4.25832 32.5293 3.79167 32.2239 3.57812 31.7498C3.50864 31.5934 3.47142 31.3998 3.47142 31.1713V31.0993C3.47142 30.1262 3.09157 29.2101 2.40135 28.5199L2.36167 28.4802C2.00172 28.1202 1.88747 27.5741 2.07121 27.0875C2.13082 26.9286 2.24494 26.7648 2.40383 26.6034C3.09157 25.9157 3.47142 24.9996 3.47142 24.0265V23.8924C3.47142 23.3835 3.7767 22.9167 4.2509 22.7032C4.40732 22.6337 4.60095 22.5965 4.82686 22.5965H4.90143C5.87452 22.5965 6.78819 22.2166 7.47827 21.529L7.52057 21.4868C7.88051 21.1268 8.42664 21.0126 8.91073 21.1963C8.9793 21.2226 9.04781 21.2579 9.11633 21.3019C9.20919 21.3617 9.30201 21.4375 9.39482 21.529C10.0826 22.2166 10.9986 22.5965 11.9718 22.5965H12.1058C12.6148 22.5965 13.0816 22.9019 13.295 23.376C13.3189 23.4297 13.339 23.4878 13.355 23.5501C13.3661 23.5932 13.3753 23.6382 13.3824 23.6851C13.3952 23.7687 13.4018 23.8585 13.4018 23.9545V24.0265C13.4018 24.9996 13.7817 25.9157 14.4693 26.6034L14.5114 26.6456C14.8715 27.0056 14.9856 27.5517 14.802 28.0383ZM10.2142 25.4961L7.83585 27.8769C7.75884 27.9539 7.62232 27.9539 7.54543 27.8769L6.65415 26.9857C6.26687 26.5984 5.63625 26.5984 5.24901 26.9857C4.86174 27.3729 4.86174 28.0011 5.24901 28.3908L6.14025 29.2821C6.55487 29.6967 7.10348 29.9251 7.68937 29.9251C8.27522 29.9251 8.82641 29.6967 9.23856 29.2821L11.6193 26.9013C12.0066 26.514 12.0066 25.8859 11.6193 25.4961C11.232 25.1088 10.6014 25.1088 10.2142 25.4961ZM21.375 21.375H22.5H23.625C24.8681 21.375 25.875 22.398 25.875 23.661C25.875 24.924 24.8681 25.947 23.625 25.947H22.5H21.375C20.1319 25.947 19.125 24.924 19.125 23.661C19.125 22.398 20.1319 21.375 21.375 21.375ZM23.625 16.947H13.5C12.2569 16.947 11.25 15.924 11.25 14.661C11.25 13.398 12.2569 12.375 13.5 12.375H23.625C24.8681 12.375 25.875 13.398 25.875 14.661C25.875 15.924 24.8681 16.947 23.625 16.947Z" fill="currentColor"/>
</svg>
