<svg width="1em" height="1em" viewBox="0 0 36 36" fill="none" xmlns="http://www.w3.org/2000/svg">
<path fill-rule="evenodd" clip-rule="evenodd" d="M11.2621 2.25385C11.2621 3.49618 10.255 4.5033 9.01269 4.5033C7.77037 4.5033 6.76324 3.49618 6.76324 2.25385C6.76324 1.01151 7.77037 0.00439453 9.01269 0.00439453C10.255 0.00439453 11.2621 1.01151 11.2621 2.25385ZM20.2599 2.25385C20.2599 3.49618 19.2528 4.5033 18.0105 4.5033C16.7682 4.5033 15.761 3.49618 15.761 2.25385C15.761 1.01151 16.7682 0.00439453 18.0105 0.00439453C19.2528 0.00439453 20.2599 1.01151 20.2599 2.25385ZM27.0083 4.5033C28.2506 4.5033 29.2577 3.49618 29.2577 2.25385C29.2577 1.01151 28.2506 0.00439453 27.0083 0.00439453C25.766 0.00439453 24.7588 1.01151 24.7588 2.25385C24.7588 3.49618 25.766 4.5033 27.0083 4.5033ZM3.8502 35.3377C3.42936 35.758 2.85916 35.9946 2.26433 35.9956C1.82243 35.9916 1.39152 35.8574 1.02537 35.61C0.659227 35.3626 0.374075 35.0128 0.205512 34.6043C0.0369498 34.1958 -0.00755107 33.7467 0.0775637 33.313C0.162672 32.8794 0.373631 32.4804 0.684094 32.1659L5.07615 27.7739C5.56827 27.2807 6.23523 27.0018 6.93195 26.9978H19.4895C20.0889 26.9976 20.6823 26.8776 21.2347 26.6449C21.787 26.4121 22.2874 26.0713 22.7062 25.6425L31.0573 17.1002C31.4153 16.6229 31.5689 16.023 31.4846 15.4324C31.4002 14.8418 31.0847 14.3089 30.6074 13.951C30.1301 13.593 29.5302 13.4394 28.9396 13.5237C28.349 13.6081 27.8161 13.9236 27.4582 14.4009L20.4455 21.2223C19.6058 22.0405 18.4799 22.4985 17.3075 22.4989H12.3869C12.0721 22.5004 11.7604 22.4358 11.4722 22.3093C11.1839 22.1828 10.9254 21.9972 10.7134 21.7645C10.5014 21.5318 10.3405 21.2572 10.2413 20.9584C10.1421 20.6597 10.1067 20.3434 10.1374 20.0301C10.2082 19.4617 10.487 18.9397 10.9201 18.5648C11.3532 18.1899 11.9098 17.9886 12.4825 18H15.761C16.0965 17.9999 16.4277 17.9248 16.7304 17.7802C17.033 17.6356 17.2996 17.4251 17.5104 17.1641C17.7212 16.9032 17.871 16.5984 17.9487 16.2721C18.0265 15.9457 18.0303 15.6061 17.9599 15.2782C17.8381 14.7654 17.5448 14.3096 17.1285 13.9864C16.7122 13.6632 16.198 13.492 15.6711 13.5011H9.28825C8.78381 13.501 8.28432 13.6003 7.81828 13.7933C7.3522 13.9863 6.92874 14.2692 6.57203 14.6258L3.85582 17.342C3.64676 17.5508 3.39861 17.7165 3.12554 17.8293C2.85246 17.9422 2.55982 18.0002 2.26433 18C1.92532 18.0011 1.59044 17.9255 1.28475 17.7789C0.979054 17.6323 0.710441 17.4186 0.498987 17.1536C0.287533 16.8886 0.138715 16.5793 0.0636508 16.2486C-0.0114179 15.918 -0.0107874 15.5748 0.0654954 15.2444C0.169263 14.8155 0.393679 14.4252 0.712213 14.1197L3.58026 11.2516C4.29369 10.5383 5.14065 9.97256 6.07277 9.58661C7.00483 9.20066 8.00381 9.00209 9.01269 9.0022H15.761C17.1302 9.00557 18.466 9.42538 19.591 10.2058C20.7159 10.9863 21.5769 12.0905 22.0595 13.3718L24.1346 11.3529C24.7705 10.6172 25.557 10.0267 26.4409 9.62114C27.3247 9.21556 28.2853 9.00451 29.2577 9.0022C30.1569 9.00197 31.047 9.18142 31.8758 9.53003C32.7046 9.87859 33.4554 10.3893 34.0841 11.0321C34.7127 11.6749 35.2066 12.4369 35.5366 13.2732C35.8667 14.1096 36.0263 15.0035 36.0061 15.9024C35.9623 17.3654 35.4564 18.7769 34.5608 19.9345L34.4821 20.0414L34.2796 20.2495L25.9286 28.7974C25.0874 29.6511 24.085 30.3293 22.9797 30.7927C21.8744 31.2561 20.688 31.4954 19.4895 31.4967H7.71363L3.8502 35.3377Z" fill="currentColor"/>
</svg>
