<svg width="1em" height="1em" viewBox="0 0 37 36" fill="none" xmlns="http://www.w3.org/2000/svg">
<g clip-path="url(#clip0_181659_150234)">
<path fill-rule="evenodd" clip-rule="evenodd" d="M33.5 6.75V17.0212C34.4654 17.2705 35.3206 17.8333 35.9315 18.6213C36.5424 19.4094 36.8743 20.378 36.875 21.375V29.25C36.875 31.0402 36.1638 32.7571 34.898 34.023C33.6321 35.2888 31.9152 36 30.125 36H7.625C5.83479 36 4.1179 35.2888 2.85203 34.023C1.58616 32.7571 0.875 31.0402 0.875 29.25V21.375C0.875747 20.378 1.2076 19.4094 1.81847 18.6213C2.42932 17.8333 3.2846 17.2705 4.25 17.0212V6.75C4.25 4.95978 4.96116 3.24289 6.22703 1.97702C7.49293 0.711157 9.20979 0 11 0H26.75C28.5402 0 30.2571 0.711157 31.523 1.97702C32.7888 3.24289 33.5 4.95978 33.5 6.75ZM9.40903 5.15901C8.98704 5.58095 8.75 6.15324 8.75 6.75V16.875H11.4275C12.0548 16.8748 12.6697 17.0494 13.2033 17.3793C13.7368 17.7092 14.1679 18.1812 14.4481 18.7425L15.7644 21.375H21.9856L23.3019 18.7425C23.5821 18.1812 24.0132 17.7092 24.5467 17.3793C25.0803 17.0494 25.6952 16.8748 26.3225 16.875H29V6.75C29 6.15324 28.763 5.58095 28.341 5.15901C27.919 4.73707 27.3468 4.5 26.75 4.5H11C10.4032 4.5 9.83096 4.73707 9.40903 5.15901ZM31.716 30.841C32.138 30.419 32.375 29.8468 32.375 29.25V21.375H27.0144L25.6981 24.0075C25.4179 24.5688 24.9868 25.0408 24.4533 25.3707C23.9197 25.7006 23.3048 25.8752 22.6775 25.875H15.0725C14.4452 25.8752 13.8303 25.7006 13.2967 25.3707C12.7632 25.0408 12.3321 24.5688 12.0519 24.0075L10.7356 21.375H5.375V29.25C5.375 29.8468 5.61205 30.419 6.03401 30.841C6.45597 31.263 7.02824 31.5 7.625 31.5H30.125C30.7218 31.5 31.294 31.263 31.716 30.841ZM22.25 13.5H15.5C14.9032 13.5 14.331 13.263 13.909 12.841C13.487 12.419 13.25 11.8468 13.25 11.25C13.25 10.6532 13.487 10.081 13.909 9.65903C14.331 9.23704 14.9032 9 15.5 9H22.25C22.8468 9 23.419 9.23704 23.841 9.65903C24.263 10.081 24.5 10.6532 24.5 11.25C24.5 11.8468 24.263 12.419 23.841 12.841C23.419 13.263 22.8468 13.5 22.25 13.5Z" fill="currentColor"/>
</g>
<defs>
<clipPath id="clip0_181659_150234">
<rect width="36" height="36" fill="white" transform="translate(0.875)"/>
</clipPath>
</defs>
</svg>
