<svg width="1em" height="1em" viewBox="0 0 36 36" fill="none" xmlns="http://www.w3.org/2000/svg">
<path fill-rule="evenodd" clip-rule="evenodd" d="M5.75783 34.5409C4.29321 33.5805 3.14412 32.2097 2.45418 30.5999C0.804849 26.6055 -0.0289977 22.3215 0.00169935 18C-0.0327153 13.6793 0.797306 9.39537 2.44293 5.40014C3.13361 3.78854 4.28445 2.41655 5.7513 1.45599C7.21812 0.495442 8.93576 -0.0109712 10.6891 0.000180281H11.8141C13.0076 0.000180281 14.1522 0.474282 14.996 1.31819C15.8399 2.1621 16.3141 3.30668 16.3141 4.50014V10.1251C16.3141 11.3185 15.8399 12.4632 14.996 13.3071C14.1522 14.1509 13.0076 14.6251 11.8141 14.6251H4.68729C4.43906 16.8682 4.43906 19.1319 4.68729 21.375H11.8141C13.0076 21.375 14.1522 21.8491 14.996 22.693C15.8399 23.5369 16.3141 24.6815 16.3141 25.875V31.4999C16.3141 32.6934 15.8399 33.838 14.996 34.6819C14.1522 35.5258 13.0076 35.9999 11.8141 35.9999H10.6891C8.93767 36.0088 7.22246 35.5013 5.75783 34.5409ZM11.8141 31.4999V25.875H5.55916C5.83765 26.8855 6.17959 27.8774 6.5829 28.8449C6.93029 29.6423 7.50517 30.3195 8.23557 30.7917C8.96597 31.264 9.81938 31.5103 10.6891 31.4999H11.8141ZM8.24209 5.21143C7.51394 5.68352 6.94081 6.35953 6.59415 7.15512C6.18701 8.12233 5.8413 9.11429 5.55916 10.1251H11.8141V4.50014H10.6891C9.8213 4.49194 8.9703 4.73931 8.24209 5.21143ZM30.7871 4.45514C30.3771 4.03789 29.8207 3.79673 29.2358 3.78278C28.651 3.76884 28.0838 3.98321 27.6544 4.38045C27.2249 4.77768 26.9671 5.32656 26.9355 5.91071C26.9039 6.49481 27.1011 7.06827 27.4852 7.50949C30.0709 10.3919 31.5009 14.1278 31.5009 18C31.5009 21.8722 30.0709 25.6081 27.4852 28.4906C27.1011 28.9318 26.9039 29.5053 26.9355 30.0893C26.9671 30.6735 27.2249 31.2224 27.6544 31.6196C28.0838 32.0169 28.651 32.2312 29.2358 32.2173C29.8207 32.2033 30.3771 31.9622 30.7871 31.5449C34.1417 27.8322 35.9989 23.0066 35.9989 18.0028C35.9989 12.9991 34.1417 8.17341 30.7871 4.46077V4.45514ZM20.5778 25.2393C20.7667 25.5237 21.0179 25.7614 21.3123 25.9343C21.6066 26.1073 21.9365 26.2109 22.2769 26.2375C22.6173 26.264 22.9593 26.2128 23.2769 26.0876C23.5946 25.9624 23.8795 25.7666 24.1103 25.515C25.9732 23.4542 27.0046 20.7752 27.0046 17.9972C27.0046 15.2193 25.9732 12.5402 24.1103 10.4795C23.924 10.223 23.6856 10.0087 23.4107 9.85077C23.1359 9.69282 22.8307 9.59478 22.5154 9.56294C22.1999 9.53116 21.8814 9.56637 21.5805 9.66633C21.2797 9.76622 21.0033 9.92862 20.7696 10.1428C20.5359 10.357 20.3501 10.6181 20.2243 10.9091C20.0986 11.2001 20.0358 11.5144 20.0399 11.8314C20.0441 12.1483 20.1152 12.4609 20.2487 12.7485C20.3821 13.036 20.5747 13.2922 20.814 13.5001C21.9209 14.7376 22.5329 16.3397 22.5329 18C22.5329 19.6603 21.9209 21.2624 20.814 22.5C20.4774 22.8662 20.2716 23.3337 20.2288 23.8294C20.1861 24.325 20.3088 24.8209 20.5778 25.2393Z" fill="currentColor"/>
</svg>
