<svg width="1em" height="1em" viewBox="0 0 36 36" fill="none" xmlns="http://www.w3.org/2000/svg">
<path fill-rule="evenodd" clip-rule="evenodd" d="M30.375 36H16.875C16.2782 36 15.706 35.763 15.284 35.341C14.862 34.919 14.625 34.3468 14.625 33.75C14.625 33.1532 14.862 32.581 15.284 32.159C15.706 31.737 16.2782 31.5 16.875 31.5H30.375C30.6733 31.5 30.9595 31.3815 31.1705 31.1705C31.3815 30.9595 31.5 30.6733 31.5 30.375V10.4963L25.5037 4.5H11.25C10.9516 4.5 10.6655 4.61853 10.4545 4.82951C10.2435 5.04048 10.125 5.32663 10.125 5.625V12.375C10.125 12.9718 9.88796 13.544 9.46597 13.966C9.04404 14.388 8.47176 14.625 7.875 14.625C7.27824 14.625 6.70596 14.388 6.28403 13.966C5.86204 13.544 5.625 12.9718 5.625 12.375V5.625C5.625 4.13316 6.21765 2.70242 7.27251 1.64752C8.32742 0.592633 9.75814 1.38978e-06 11.25 1.38978e-06H25.5037C26.0949 -0.000463169 26.6803 0.115541 27.2266 0.341387C27.7729 0.567236 28.2693 0.898498 28.6875 1.31625L34.6838 7.3125C35.1015 7.73072 35.4328 8.22713 35.6586 8.77343C35.8845 9.31973 36.0005 9.90512 36 10.4963V30.375C36 31.1137 35.8545 31.8451 35.5718 32.5276C35.2891 33.2101 34.8748 33.8302 34.3525 34.3525C33.8302 34.8748 33.2101 35.2892 32.5276 35.5718C31.8451 35.8545 31.1137 36 30.375 36ZM10.125 23.625V33.75C10.125 34.3468 9.88796 34.919 9.46597 35.341C9.04404 35.763 8.47176 36 7.875 36C7.27824 36 6.70596 35.763 6.28403 35.341C5.86204 34.919 5.625 34.3468 5.625 33.75V23.625H2.25C1.65326 23.625 1.08097 23.388 0.659008 22.966C0.237054 22.544 0 21.9718 0 21.375C0 20.7782 0.237054 20.206 0.659008 19.784C1.08097 19.362 1.65326 19.125 2.25 19.125H13.5C14.0968 19.125 14.669 19.362 15.091 19.784C15.513 20.206 15.75 20.7782 15.75 21.375C15.75 21.9718 15.513 22.544 15.091 22.966C14.669 23.388 14.0968 23.625 13.5 23.625H10.125Z" fill="currentColor"/>
</svg>
