<svg width="1em" height="1em" viewBox="0 0 36 36" fill="none" xmlns="http://www.w3.org/2000/svg">
<path d="M31.8262 17.4796C33.4912 16.7876 34.7906 15.4937 35.4825 13.8284C35.9944 12.5851 35.9944 11.3136 35.9944 8.99578C35.9944 6.67792 35.9944 5.40084 35.4825 4.16315C34.7906 2.49789 33.4969 1.19831 31.8319 0.511955C30.5887 -1.00599e-07 29.3175 0 27 0H20.25C17.9325 0 16.6556 -1.00599e-07 15.4181 0.511955C13.7531 1.20394 12.4537 2.49789 11.7675 4.16315C11.2556 5.40647 11.2556 6.67792 11.2556 8.99578H9.45562C6.67125 8.99578 5.13562 8.99578 3.69 9.73277C2.41312 10.3854 1.38937 11.4037 0.736875 12.6807C-2.68221e-07 14.1266 0 15.6568 0 18.4473V22.0478C0 24.8326 -2.68221e-07 26.3685 0.736875 27.8143C1.38937 29.0914 2.4075 30.1153 3.68437 30.7623C5.13 31.4993 6.66 31.4993 9.45 31.4993H17.55C17.8538 31.4993 18.1294 31.4993 18.3937 31.4993C19.3219 34.1153 21.8194 36 24.75 36H29.25C32.9738 36 36 32.9733 36 29.2489C36 25.5246 32.9738 22.4979 29.25 22.4979H27C27 22.3516 27 22.2053 27 22.0478V18.4473C27 18.2897 27 18.1435 27 17.9972C29.3175 17.9972 30.5944 17.9972 31.8319 17.4852L31.8262 17.4796ZM22.4944 22.0422C22.4944 22.3516 22.4944 22.6329 22.4944 22.8917C20.5931 23.5724 19.08 25.0914 18.3937 26.993C18.135 26.993 17.8538 26.993 17.5444 26.993H9.44437C7.4925 26.993 6.20438 26.993 5.72062 26.7454C5.29313 26.526 4.95563 26.1885 4.73625 25.7609C4.48875 25.2771 4.48875 23.9887 4.48875 22.0366V18.436C4.48875 16.4838 4.48875 15.1955 4.73625 14.7117C4.95563 14.2841 5.29313 13.9466 5.72062 13.7271C6.19875 13.4796 7.4925 13.4796 9.44437 13.4796H11.6437C11.6831 13.5921 11.7112 13.7046 11.7562 13.8115C12.4481 15.4768 13.7419 16.7764 15.4069 17.4627C16.65 17.9747 17.9213 17.9747 20.2388 17.9747H22.4888C22.4888 18.121 22.4888 18.2672 22.4888 18.4248V22.0253L22.4944 22.0422ZM29.2444 26.993C30.4875 26.993 31.4944 28 31.4944 29.2433C31.4944 30.4866 30.4875 31.4937 29.2444 31.4937H24.7444C23.5181 31.4937 22.5169 30.5091 22.4944 29.2827C22.4944 29.2602 22.4944 29.2377 22.4944 29.2208C22.5056 28.0056 23.5069 27.0098 24.6938 26.993C24.6938 26.993 24.7556 26.993 24.7894 26.993H29.2387H29.2444ZM20.2444 13.4909C18.6187 13.4909 17.5444 13.4909 17.1338 13.3221C16.5881 13.097 16.1438 12.6526 15.9188 12.1069C15.8456 11.9381 15.8006 11.6174 15.7781 11.128C15.75 10.5992 15.75 9.94093 15.75 8.99578C15.75 7.3699 15.75 6.29536 15.9188 5.88467C16.1438 5.33896 16.5881 4.89451 17.1394 4.66385C17.55 4.49508 18.6244 4.49508 20.25 4.49508H27C28.6256 4.49508 29.6944 4.49508 30.1106 4.66385C30.6562 4.88889 31.1006 5.33333 31.3256 5.87904C31.4944 6.28973 31.4944 7.36428 31.4944 8.99015C31.4944 10.616 31.4944 11.6906 31.3256 12.1013C31.1006 12.647 30.6562 13.0914 30.105 13.3221C29.6887 13.4909 28.62 13.4909 26.9944 13.4909H20.2444Z" fill="currentColor"/>
</svg>
