<svg width="1em" height="1em" viewBox="0 0 36 36" fill="none" xmlns="http://www.w3.org/2000/svg">
<path fill-rule="evenodd" clip-rule="evenodd" d="M20.25 7.875C20.25 3.5325 23.7825 0 28.125 0C32.4675 0 36 3.5325 36 7.875C36 12.2175 32.4675 15.75 28.125 15.75C23.7825 15.75 20.25 12.2175 20.25 7.875ZM24.75 7.875C24.75 9.73687 26.2631 11.25 28.125 11.25C29.9869 11.25 31.5 9.73687 31.5 7.875C31.5 6.01312 29.9869 4.5 28.125 4.5C26.2631 4.5 24.75 6.01312 24.75 7.875ZM5.31562 15.75C2.385 15.75 0 13.365 0 10.4344V5.32126C0 2.39063 2.385 0.00563051 5.31562 0.00563051H10.4288C13.3594 0.00563051 15.7444 2.39063 15.7444 5.32126V10.4344C15.7444 13.365 13.3594 15.75 10.4288 15.75H5.31562ZM5.31562 4.50563C4.87687 4.50563 4.5 4.87688 4.5 5.32126V10.4344C4.5 10.8731 4.87125 11.25 5.31562 11.25H10.4288C10.8675 11.25 11.2444 10.8787 11.2444 10.4344V5.32126C11.2444 4.88251 10.8731 4.50563 10.4288 4.50563H5.31562ZM31.4494 22.4831C30.645 21.105 29.1544 20.25 27.5625 20.25C25.9706 20.25 24.48 21.105 23.6756 22.4831L19.7381 29.2331C18.9281 30.6225 18.9225 32.3494 19.7213 33.7388C20.52 35.1338 22.0163 36 23.625 36H31.5C33.1087 36 34.5994 35.1338 35.4037 33.7388C36.2025 32.3438 36.1969 30.6169 35.3869 29.2275L31.4494 22.4775V22.4831ZM23.625 31.5L27.5625 24.75L31.5 31.5H23.625ZM10.7775 27.8438L13.9669 31.0331C14.8444 31.9162 14.8444 33.3394 13.9669 34.2169C13.5281 34.6556 12.9544 34.875 12.375 34.875C11.7956 34.875 11.2219 34.6556 10.7831 34.2169L7.59375 31.0275L4.40438 34.2169C3.96563 34.6556 3.39188 34.875 2.8125 34.875C2.23312 34.875 1.65937 34.6556 1.22063 34.2169C0.343126 33.3338 0.343126 31.9106 1.22063 31.0331L4.41 27.8438L1.22063 24.6544C0.343126 23.7713 0.343126 22.3481 1.22063 21.4706C2.10375 20.5931 3.52688 20.5931 4.40438 21.4706L7.59375 24.66L10.7831 21.4706C11.6663 20.5931 13.0894 20.5931 13.9669 21.4706C14.8444 22.3537 14.8444 23.7769 13.9669 24.6544L10.7775 27.8438Z" fill="currentColor" />
</svg>
