<svg width="1em" height="1em" viewBox="0 0 34 36" fill="none" xmlns="http://www.w3.org/2000/svg">
<path fill-rule="evenodd" clip-rule="evenodd" d="M21.8817 16.4764C20.4023 17.4648 18.6629 17.9925 16.8836 17.9925C14.4977 17.9925 12.2094 17.0447 10.5223 15.3576C8.83523 13.6705 7.88736 11.3822 7.88736 8.99626C7.88736 7.21691 8.41499 5.4777 9.40351 3.99818C10.392 2.5188 11.7971 1.36572 13.4409 0.684846C15.0848 0.00383906 16.8936 -0.174203 18.6387 0.172821C20.3838 0.519982 21.9868 1.37683 23.245 2.63493C24.5031 3.89303 25.3599 5.49609 25.707 7.24126C26.0542 8.98625 25.876 10.7951 25.1951 12.439C24.5142 14.0829 23.3612 15.4879 21.8817 16.4764ZM19.3827 5.25615C18.643 4.76196 17.7733 4.49813 16.8836 4.49813C15.6907 4.49813 14.5466 4.97199 13.703 5.81569C12.8594 6.6592 12.3855 7.80325 12.3855 8.99626C12.3855 9.88594 12.6493 10.7555 13.1436 11.4953C13.6378 12.235 14.3404 12.8116 15.1623 13.152C15.9842 13.4925 16.8886 13.5815 17.7612 13.4079C18.6337 13.2344 19.4352 12.806 20.0643 12.1768C20.6934 11.5479 21.1218 10.7463 21.2953 9.87385C21.4689 9.00121 21.3798 8.09686 21.0394 7.27488C20.6989 6.45302 20.1224 5.75047 19.3827 5.25615ZM2.89974 35.9119C2.61335 35.9945 2.31341 36.0193 2.01735 35.9851C1.83296 35.966 1.65211 35.9241 1.47877 35.8611C1.37327 35.8227 1.27056 35.7763 1.17152 35.7222C0.909809 35.5793 0.679122 35.3858 0.492843 35.1529C0.306565 34.9201 0.168469 34.6525 0.0865519 34.3659C0.00463503 34.0791 -0.0194562 33.7791 0.0156511 33.483C0.384364 30.1475 1.97215 27.0658 4.47418 24.8293C6.97621 22.593 10.2161 21.3597 13.5719 21.3661H20.1954C23.5512 21.3597 26.7911 22.593 29.2931 24.8293C31.7952 27.0658 33.3829 30.1475 33.7516 33.483C33.7868 33.7791 33.7627 34.0791 33.6808 34.3659C33.5988 34.6525 33.4608 34.9201 33.2745 35.1529C33.0882 35.3858 32.8575 35.5793 32.5958 35.7222C32.3341 35.865 32.0466 35.9543 31.75 35.9851C31.6676 35.9906 31.585 35.9906 31.5026 35.9851C30.9457 35.9884 30.4074 35.7848 29.992 35.414C29.5765 35.0432 29.3134 34.5315 29.2535 33.9777C29.0048 31.7485 27.9436 29.6889 26.2728 28.1924C24.602 26.6958 22.4385 25.867 20.1954 25.8643H13.5719C11.3288 25.867 9.16534 26.6958 7.4945 28.1924C5.82367 29.6889 4.76255 31.7485 4.51378 33.9777C4.48375 34.2744 4.39504 34.562 4.25283 34.8239C4.11065 35.0859 3.91778 35.317 3.68552 35.5037C3.45322 35.6905 3.18612 35.8292 2.89974 35.9119Z" fill="currentColor"/>
</svg>
