<svg width="1em" height="1em" viewBox="0 0 36 36" fill="none" xmlns="http://www.w3.org/2000/svg">
<path fill-rule="evenodd" clip-rule="evenodd" d="M25.9341 8.72727C25.9341 3.91636 22.0177 0 17.2068 0C12.3959 0 8.47954 3.91636 8.47954 8.72727C8.47954 13.5382 12.3959 17.4545 17.2068 17.4545C22.0177 17.4545 25.9341 13.5382 25.9341 8.72727ZM12.8432 8.72727C12.8432 6.32182 14.8013 4.36364 17.2068 4.36364C19.6123 4.36364 21.5704 6.32182 21.5704 8.72727C21.5704 11.1327 19.6123 13.0909 17.2068 13.0909C14.8013 13.0909 12.8432 11.1327 12.8432 8.72727ZM13.9941 20.7273C7.24681 20.7273 1.60129 25.7836 0.854085 32.4873C0.723181 33.6873 1.58491 34.7618 2.77955 34.8982C2.82576 34.9043 2.87197 34.907 2.91818 34.9082C2.95374 34.9091 2.9893 34.9091 3.02499 34.9091C4.12135 34.9091 5.06498 34.0854 5.19042 32.9673C5.68674 28.4782 9.47221 25.0909 13.9941 25.0909H15.025C16.2304 25.0909 17.2068 24.1145 17.2068 22.9091C17.2068 21.7036 16.2304 20.7273 15.025 20.7273H13.9941ZM23.8734 22.0142C25.1292 21.1751 26.6056 20.7273 28.1159 20.7273C30.1412 20.7273 32.0835 21.5318 33.5156 22.9639C34.9477 24.396 35.7523 26.3384 35.7523 28.3636C35.7523 29.874 35.3044 31.3504 34.4653 32.6062C33.6262 33.862 32.4336 34.8407 31.0382 35.4187C29.6428 35.9967 28.1074 36.1479 26.6262 35.8533C25.1448 35.5586 23.7841 34.8313 22.7161 33.7634C21.6482 32.6954 20.9209 31.3347 20.6263 29.8534C20.3316 28.3721 20.4829 26.8367 21.0608 25.4413C21.6388 24.046 22.6176 22.8533 23.8734 22.0142ZM26.2977 31.0848C26.8359 31.4444 27.4686 31.6364 28.1159 31.6364C28.9839 31.6364 29.8163 31.2916 30.4301 30.6778C31.0438 30.064 31.3886 29.2316 31.3886 28.3636C31.3886 27.7163 31.1966 27.0836 30.837 26.5454C30.4775 26.0072 29.9663 25.5878 29.3683 25.34C28.7703 25.0923 28.1123 25.0275 27.4774 25.1538C26.8425 25.2801 26.2594 25.5917 25.8017 26.0495C25.344 26.5072 25.0323 27.0903 24.906 27.7252C24.7798 28.36 24.8445 29.018 25.0923 29.6161C25.34 30.2141 25.7595 30.7252 26.2977 31.0848Z" fill="currentColor"/>
</svg>
