<svg width="1em" height="1em" viewBox="0 0 37 36" fill="none" xmlns="http://www.w3.org/2000/svg">
<path fill-rule="evenodd" clip-rule="evenodd" d="M25.8455 8.72727C25.8455 3.91636 21.9291 0 17.1182 0C12.3073 0 8.39091 3.91636 8.39091 8.72727C8.39091 13.5382 12.3073 17.4545 17.1182 17.4545C21.9291 17.4545 25.8455 13.5382 25.8455 8.72727ZM12.7545 8.72727C12.7545 6.32182 14.7128 4.36364 17.1182 4.36364C19.5236 4.36364 21.4818 6.32182 21.4818 8.72727C21.4818 11.1327 19.5236 13.0909 17.1182 13.0909C14.7128 13.0909 12.7545 11.1327 12.7545 8.72727ZM13.4653 20.7273C6.94382 20.7273 1.48726 25.7836 0.764958 32.4873C0.638449 33.6873 1.47141 34.7618 2.62598 34.8982C2.70508 34.9091 2.78418 34.9091 2.86328 34.9091C3.92289 34.9091 4.83496 34.0855 4.95627 32.9673C5.43595 28.4782 9.09471 25.0909 13.4653 25.0909H14.4617C15.6269 25.0909 16.5705 24.1145 16.5705 22.9091C16.5705 21.7036 15.6269 20.7273 14.4617 20.7273H13.4653ZM25.2978 20.7273H30.7523C32.3437 20.7273 33.8698 21.3594 34.9949 22.4846C36.1202 23.6098 36.7523 25.136 36.7523 26.7273V30C36.7523 31.5913 36.1202 33.1174 34.9949 34.2427C33.8698 35.3679 32.3437 36 30.7523 36H25.2978C23.7064 36 22.1803 35.3679 21.0552 34.2427C19.9299 33.1174 19.2978 31.5913 19.2978 30V26.7273C19.2978 25.136 19.9299 23.6098 21.0552 22.4846C22.1803 21.3594 23.7064 20.7273 25.2978 20.7273ZM31.9094 31.1571C32.2162 30.8502 32.3887 30.434 32.3887 30V26.7273C32.3887 26.2933 32.2162 25.8771 31.9094 25.5702C31.6025 25.2633 31.1863 25.0909 30.7523 25.0909H25.2978C24.8637 25.0909 24.4476 25.2633 24.1407 25.5702C23.8339 25.8771 23.6614 26.2933 23.6614 26.7273V30C23.6614 30.434 23.8339 30.8502 24.1407 31.1571C24.4476 31.4639 24.8637 31.6364 25.2978 31.6364H30.7523C31.1863 31.6364 31.6025 31.4639 31.9094 31.1571Z" fill="currentColor"/>
</svg>
