<svg width="1em" height="1em" viewBox="0 0 36 36" fill="none" xmlns="http://www.w3.org/2000/svg">
<path fill-rule="evenodd" clip-rule="evenodd" d="M9.8717 9C9.8717 4.03875 13.9105 0 18.8717 0C23.833 0 27.8717 4.03875 27.8717 9C27.8717 13.9613 23.833 18 18.8717 18C13.9105 18 9.8717 13.9613 9.8717 9ZM14.3717 9C14.3717 11.4806 16.3911 13.5 18.8717 13.5C21.3523 13.5 23.3717 11.4806 23.3717 9C23.3717 6.51937 21.3523 4.5 18.8717 4.5C16.3911 4.5 14.3717 6.51937 14.3717 9ZM4.2523 36C4.16793 36 4.08355 36 3.99918 35.9888C2.7673 35.8481 1.87855 34.74 2.01355 33.5025C2.78418 26.5894 8.60608 21.375 15.5642 21.375H23.3155C24.5586 21.375 25.5655 22.3819 25.5655 23.625C25.5655 24.8681 24.5586 25.875 23.3155 25.875H15.5642C10.9011 25.875 6.9973 29.3681 6.48543 33.9975C6.35605 35.1506 5.38293 36 4.2523 36ZM34.6217 19.6875C34.6217 18.4444 33.6148 17.4375 32.3717 17.4375C31.1286 17.4375 30.1217 18.4444 30.1217 19.6875V25.875C30.1217 27.1181 31.1286 28.125 32.3717 28.125C33.6148 28.125 34.6217 27.1181 34.6217 25.875V19.6875ZM34.6217 33.75C34.6217 34.9926 33.6143 36 32.3717 36C31.1291 36 30.1217 34.9926 30.1217 33.75C30.1217 32.5074 31.1291 31.5 32.3717 31.5C33.6143 31.5 34.6217 32.5074 34.6217 33.75Z" fill="currentColor"/>
</svg>
