<svg width="1em" height="1em" viewBox="0 0 36 36" fill="none" xmlns="http://www.w3.org/2000/svg">
<path fill-rule="evenodd" clip-rule="evenodd" d="M29.2522 31.4896H13.1138C12.7355 32.566 12.0905 33.5289 11.239 34.2883C10.3874 35.0476 9.35728 35.5787 8.2448 35.8318C7.13226 36.085 5.97378 36.0519 4.87753 35.7356C3.78129 35.4194 2.78314 34.8304 1.97638 34.0237C1.16961 33.2168 0.580584 32.2187 0.264361 31.1225C-0.0518656 30.0262 -0.0849661 28.8677 0.168155 27.7552C0.421281 26.6427 0.952353 25.6126 1.71174 24.761C2.47112 23.9095 3.43402 23.2644 4.51042 22.8862V6.74777C4.51042 6.15121 4.27344 5.5791 3.85163 5.1573C3.42981 4.7355 2.8577 4.49851 2.26116 4.49851C1.66462 4.49851 1.09251 4.26152 0.670695 3.83972C0.248881 3.41792 0.0119048 2.84579 0.0119048 2.24926C0.0119048 1.65273 0.248881 1.08059 0.670695 0.65879C1.09251 0.236986 1.66462 0 2.26116 0C4.05078 0 5.76708 0.710922 7.03256 1.97637C8.29799 3.24182 9.00893 4.95814 9.00893 6.74777V22.8862C9.95547 23.2218 10.8152 23.7645 11.5254 24.4746C12.2355 25.1848 12.7782 26.0445 13.1138 26.9911H29.2522C31.0419 26.9911 32.7581 27.702 34.0236 28.9674C35.2891 30.2329 36 31.9492 36 33.7388C36 34.3354 35.763 34.9075 35.3412 35.3293C34.9194 35.7511 34.3473 35.9881 33.7507 35.9881C33.1542 35.9881 32.5821 35.7511 32.1603 35.3293C31.7384 34.9075 31.5015 34.3354 31.5015 33.7388C31.5015 33.1423 31.2645 32.5702 30.8427 32.1484C30.4209 31.7265 29.8488 31.4896 29.2522 31.4896ZM4.88948 27.9907C4.64233 28.3606 4.51042 28.7955 4.51042 29.2403C4.51042 29.8369 4.74739 30.409 5.16922 30.8308C5.59102 31.2526 6.16311 31.4896 6.75967 31.4896C7.20452 31.4896 7.63941 31.3577 8.0093 31.1105C8.37919 30.8634 8.66749 30.5121 8.8377 30.1011C9.00797 29.6901 9.05251 29.2378 8.96569 28.8015C8.87892 28.3652 8.66468 27.9644 8.35012 27.6499C8.03556 27.3353 7.6348 27.1211 7.1985 27.0343C6.76215 26.9475 6.30993 26.992 5.89894 27.1623C5.48794 27.3325 5.13661 27.6208 4.88948 27.9907ZM19.1306 7.59124C19.1306 8.98876 17.9977 10.1217 16.6002 10.1217C15.2026 10.1217 14.0698 8.98876 14.0698 7.59124C14.0698 6.19372 15.2026 5.06083 16.6002 5.06083C17.9977 5.06083 19.1306 6.19372 19.1306 7.59124ZM29.5334 20.8056C30.9309 20.8056 32.0638 19.6727 32.0638 18.2752C32.0638 16.8777 30.9309 15.7448 29.5334 15.7448C28.1359 15.7448 27.003 16.8777 27.003 18.2752C27.003 19.6727 28.1359 20.8056 29.5334 20.8056ZM18.2087 21.3566C17.6151 21.4104 17.0244 21.2264 16.5664 20.845C16.1081 20.4638 15.8198 19.9162 15.765 19.3226C15.7102 18.7289 15.8933 18.1378 16.274 17.6792L26.3957 5.30824C26.7775 4.84965 27.3258 4.56152 27.92 4.50719C28.5142 4.4529 29.1057 4.63686 29.5643 5.01865C30.0229 5.40043 30.3111 5.94878 30.3653 6.54303C30.4197 7.13723 30.2357 7.72867 29.8539 8.18729L19.7323 20.5582C19.3502 21.0157 18.8022 21.3029 18.2087 21.3566Z" fill="currentColor"/>
</svg>
