<svg width="1em" height="1em" viewBox="0 0 36 36" fill="none" xmlns="http://www.w3.org/2000/svg">
<path fill-rule="evenodd" clip-rule="evenodd" d="M10.4288 0C13.3594 0 15.7444 2.38499 15.7444 5.31563V10.4288C15.7444 13.3594 13.3594 15.7444 10.4288 15.7444H5.31562C2.385 15.7444 0 13.3594 0 10.4288V5.31563C0 2.38499 2.385 0 5.31562 0H10.4288ZM10.4288 11.2444C10.8675 11.2444 11.2444 10.8731 11.2444 10.4288V5.31563C11.2444 4.87686 10.8731 4.5 10.4288 4.5H5.31562C4.87687 4.5 4.5 4.87123 4.5 5.31563V10.4288C4.5 10.8675 4.87125 11.2444 5.31562 11.2444H10.4288ZM30.6788 0C33.6094 0 35.9944 2.38499 35.9944 5.31563V10.4288C35.9944 13.3594 33.6094 15.7444 30.6788 15.7444H25.5656C22.635 15.7444 20.25 13.3594 20.25 10.4288V5.31563C20.25 2.38499 22.635 0 25.5656 0H30.6788ZM30.6788 11.2444C31.1175 11.2444 31.4944 10.8731 31.4944 10.4288V5.31563C31.4944 4.87686 31.1231 4.5 30.6788 4.5H25.5656C25.1269 4.5 24.75 4.87123 24.75 5.31563V10.4288C24.75 10.8675 25.1213 11.2444 25.5656 11.2444H30.6788ZM30.6788 20.25H25.5656C22.635 20.25 20.25 22.635 20.25 25.5656V30.6788C20.25 33.6094 22.635 35.9944 25.5656 35.9944H30.6788C33.6094 35.9944 35.9944 33.6094 35.9944 30.6788V25.5656C35.9944 22.635 33.6094 20.25 30.6788 20.25ZM31.4944 30.6844C31.4944 31.1287 31.1175 31.5 30.6788 31.5H25.5656C25.1213 31.5 24.75 31.1231 24.75 30.6844V25.5712C24.75 25.1269 25.1269 24.7556 25.5656 24.7556H30.6788C31.1231 24.7556 31.4944 25.1325 31.4944 25.5712V30.6844ZM5.31562 20.25H10.4288C13.3594 20.25 15.7444 22.635 15.7444 25.5656V30.6788C15.7444 33.6094 13.3594 35.9944 10.4288 35.9944H5.31562C2.385 35.9944 0 33.6094 0 30.6788V25.5656C0 22.635 2.385 20.25 5.31562 20.25ZM10.4288 31.5C10.8675 31.5 11.2444 31.1287 11.2444 30.6844V25.5712C11.2444 25.1325 10.8731 24.7556 10.4288 24.7556H5.31562C4.87687 24.7556 4.5 25.1269 4.5 25.5712V30.6844C4.5 31.1231 4.87125 31.5 5.31562 31.5H10.4288Z" fill="currentColor"/>
</svg>
