<svg width="1em" height="1em" viewBox="0 0 36 36" fill="none" xmlns="http://www.w3.org/2000/svg">
<path fill-rule="evenodd" clip-rule="evenodd" d="M28.1613 3.05176e-05H7.83871C5.75976 3.05176e-05 3.76595 0.812785 2.29591 2.25949C0.825863 3.7062 0 5.66836 0 7.71432C0 9.76026 0.825863 11.7224 2.29591 13.1691C3.76595 14.6159 5.75976 15.4286 7.83871 15.4286H28.1613C30.2402 15.4286 32.2341 14.6159 33.7041 13.1691C35.1741 11.7224 36 9.76026 36 7.71432C36 5.66836 35.1741 3.7062 33.7041 2.25949C32.2341 0.812785 30.2402 3.05176e-05 28.1613 3.05176e-05ZM28.1613 10.8572H7.83871C6.99172 10.8572 6.17946 10.526 5.58053 9.93666C4.98162 9.34723 4.64516 8.54786 4.64516 7.71432C4.64516 6.88077 4.98162 6.0814 5.58053 5.49198C6.17946 4.90258 6.99172 4.57146 7.83871 4.57146H28.1613C29.0083 4.57146 29.8205 4.90258 30.4195 5.49198C31.0184 6.0814 31.3548 6.88077 31.3548 7.71432C31.3548 8.54786 31.0184 9.34723 30.4195 9.93666C29.8205 10.526 29.0083 10.8572 28.1613 10.8572ZM31.3548 21.1429H4.64516C4.02917 21.1429 3.43842 21.3837 3.00285 21.8124C2.56728 22.241 2.32258 22.8224 2.32258 23.4286C2.32258 24.0348 2.56728 24.6162 3.00285 25.0448C3.43842 25.4735 4.02917 25.7143 4.64516 25.7143H31.3548C31.9708 25.7143 32.5616 25.4735 32.9971 25.0448C33.4327 24.6162 33.6774 24.0348 33.6774 23.4286C33.6774 22.8224 33.4327 22.241 32.9971 21.8124C32.5616 21.3837 31.9708 21.1429 31.3548 21.1429ZM4.64516 31.4286H31.3548C31.9708 31.4286 32.5616 31.6694 32.9971 32.0981C33.4327 32.5267 33.6774 33.1081 33.6774 33.7143C33.6774 34.3205 33.4327 34.9019 32.9971 35.3305C32.5616 35.7592 31.9708 36 31.3548 36H4.64516C4.02917 36 3.43842 35.7592 3.00285 35.3305C2.56728 34.9019 2.32258 34.3205 2.32258 33.7143C2.32258 33.1081 2.56728 32.5267 3.00285 32.0981C3.43842 31.6694 4.02917 31.4286 4.64516 31.4286Z" fill="currentColor"/>
</svg>
