<svg width="1em" height="1em" viewBox="0 0 36 36" fill="none" xmlns="http://www.w3.org/2000/svg">
<path fill-rule="evenodd" clip-rule="evenodd" d="M1.01144 25.3913C1.15696 24.8342 1.13148 24.2462 0.938323 23.7038C0.131229 21.3171 -0.160166 18.7864 0.0833996 16.2788C0.518642 12.0564 2.41979 8.12 5.45631 5.15412C8.49282 2.18825 12.4727 0.380453 16.7038 0.0450398C17.1313 3.98978e-05 17.5644 3.98944e-05 17.9974 3.98944e-05C20.4716 -0.00517432 22.9202 0.500789 25.1897 1.48622C27.4593 2.47165 29.5007 3.9153 31.1863 5.72667C32.8718 7.53809 34.1651 9.67812 34.985 12.0127C35.8049 14.3473 36.1337 16.8261 35.9509 19.2938C35.6155 23.5253 33.8078 27.5055 30.8422 30.5422C27.8766 33.5791 23.9406 35.4804 19.7185 35.9156C19.1223 36 18.5599 36 17.9974 36C16.0282 35.9916 14.0741 35.6551 12.2155 35.0044C11.637 34.8226 11.0166 34.8226 10.4381 35.0044L7.87896 35.7356C6.55951 36.1146 5.15156 36.0439 3.87671 35.5347C2.60186 35.0255 1.53253 34.1068 0.837082 32.9231C0.414704 32.1796 0.147132 31.3581 0.0504717 30.5084C-0.0461888 29.6587 0.0300608 28.7983 0.274633 27.9788L1.01144 25.3913ZM8.58686 8.36513C6.31068 10.5891 4.88598 13.5406 4.5605 16.7063V16.7288C4.37765 18.6076 4.59621 20.5039 5.2017 22.2919C5.68962 23.7012 5.7367 25.2258 5.33669 26.6625L4.59987 29.25C4.45786 29.7072 4.50025 30.2018 4.71799 30.6281C4.90584 30.9554 5.19796 31.2103 5.54767 31.3521C5.89739 31.4938 6.28453 31.5142 6.64719 31.41L9.20634 30.6788C9.90311 30.4785 10.6243 30.3762 11.3493 30.375C12.1391 30.3832 12.9221 30.522 13.6666 30.7856C15.473 31.4038 17.3912 31.6263 19.2911 31.4381C22.0162 31.1805 24.5985 30.1004 26.6956 28.3412C28.7927 26.582 30.3055 24.2267 31.0334 21.5878C31.7612 18.949 31.6697 16.1511 30.771 13.5654C29.8722 10.9797 28.2087 8.72839 26.0011 7.11003C23.6863 5.39606 20.8776 4.48013 17.9974 4.50004C17.6712 4.50004 17.345 4.50004 17.0188 4.53379C13.8466 4.78548 10.863 6.14118 8.58686 8.36513ZM21.6253 25.875H21.3721C18.4539 25.702 15.6998 24.467 13.6296 22.4028C11.5594 20.3386 10.3161 17.588 10.1344 14.67C10.0936 14.0499 10.1853 13.4281 10.4036 12.8462C10.6218 12.2642 10.9614 11.7355 11.3999 11.295L12.2155 10.4794C12.6922 10.003 13.3386 9.73538 14.0125 9.73538C14.6864 9.73538 15.3328 10.003 15.8095 10.4794C16.2344 10.8904 16.4866 11.4479 16.5149 12.0384C16.5431 12.6289 16.3451 13.2079 15.9614 13.6575C15.9089 13.7044 15.8189 13.7931 15.6989 13.9115C15.4589 14.1481 15.099 14.5031 14.679 14.8781C14.8888 16.5125 15.634 18.0314 16.7981 19.1976C17.9621 20.3638 19.4796 21.1117 21.1134 21.3244C21.6984 20.6888 22.199 20.1713 22.3396 20.0419C22.7891 19.6581 23.3681 19.4602 23.9586 19.4883C24.549 19.5166 25.1065 19.7689 25.5174 20.1938C25.9938 20.6705 26.2614 21.317 26.2614 21.991C26.2614 22.6649 25.9938 23.3114 25.5174 23.7881L24.7019 24.6038C23.8852 25.4184 22.7787 25.8756 21.6253 25.875Z" fill="currentColor"/>
</svg>
